<svg width="3142" height="1380" viewBox="0 0 3142 1380" fill="none" xmlns="http://www.w3.org/2000/svg">
<path d="M2249.26 1230.04C2174.33 1230.04 2129.9 1191.72 2126.5 1136.54H2198.13C2198.13 1154.93 2208.33 1179.42 2252.66 1180.94C2283.37 1180.94 2300.37 1162.55 2300.37 1148.72C2296.97 1127.28 2269.65 1125.75 2242.45 1121.07C2211.74 1116.62 2187.93 1110.41 2170.82 1102.79C2147.02 1090.49 2133.3 1064.36 2133.3 1036.82C2133.3 987.719 2174.33 949.398 2245.85 949.398C2314.09 949.398 2358.41 984.677 2361.69 1038.34H2293.57C2293.57 1024.63 2290.17 1001.55 2249.25 1001.55C2221.93 1001.55 2204.94 1006.12 2201.54 1026.03C2201.54 1053.69 2259.45 1052.17 2303.77 1062.83C2344.69 1073.61 2372 1099.62 2372 1136.54C2372 1204.03 2317.49 1230.04 2249.26 1230.04ZM943.883 777.209L1179.07 640.694L1305.22 857.011H988.201" fill="white"/>
<path d="M1438.45 1221.9V948.88" stroke="white" stroke-width="107.399"/>
<path d="M834.722 1089.43C834.722 1132.31 872.237 1167.59 913.035 1167.59C957.47 1167.59 991.471 1132.31 991.471 1089.43C991.471 1048.07 957.47 1011.27 913.035 1011.27C872.237 1011.27 834.722 1048.07 834.722 1089.43ZM909.639 1230.51C834.717 1230.51 770 1167.59 770 1089.43C770 1011.27 834.722 949.873 909.639 949.873C940.355 949.873 967.67 957.606 991.471 974.36V952.915H1059.71V1224.3H991.476V1207.43C971.077 1222.78 940.361 1230.51 909.644 1230.51H909.639ZM1819.94 856.947L1492.72 286.522L1727.91 148.486L2136.97 856.947H1819.94ZM1148.34 1089.43C1148.34 1132.31 1182.47 1167.59 1226.78 1167.59C1267.58 1167.59 1305.21 1132.31 1305.21 1089.43C1305.21 1048.07 1267.58 1011.27 1226.78 1011.27C1182.46 1011.27 1148.34 1048.07 1148.34 1089.43ZM1223.38 1230.51C1144.94 1230.51 1083.63 1167.59 1083.63 1089.43C1083.63 1011.27 1144.94 949.873 1223.38 949.873C1253.98 949.873 1281.3 957.606 1305.21 974.36V859.407H1373.33V1224.3H1305.21V1207.43C1281.29 1222.78 1253.98 1230.51 1223.37 1230.51H1223.38ZM1220.02 533.4L1458.6 398.529L1721.11 856.931H1472.21V924.425H1404.09V856.931L1220.02 533.4ZM2327.8 926.549C2310.68 926.549 2293.69 911.199 2293.69 892.802C2293.69 874.405 2310.68 859.055 2327.8 859.055C2348.2 859.055 2361.92 874.41 2361.92 892.802C2361.92 911.194 2348.2 926.554 2327.8 926.554V926.549ZM2327.8 863.746C2310.68 863.746 2300.48 877.452 2300.48 892.802C2300.48 908.152 2310.68 921.98 2327.8 921.98C2344.8 921.98 2355 908.157 2355 892.802C2355 877.447 2344.8 863.746 2327.8 863.746Z" fill="white"/>
<path d="M2334.84 911.317L2328.04 895.967H2321.24V911.317H2316.08V874.522H2331.44C2334.84 874.522 2341.64 879.214 2341.64 885.303C2341.64 891.393 2338.24 894.446 2334.84 895.967L2341.64 911.317H2334.84ZM2328.04 879.214H2321.24V891.398H2328.04C2334.84 891.398 2334.84 889.877 2334.84 885.303C2334.84 882.144 2334.84 879.214 2328.04 879.214ZM1877.59 1089.43C1877.59 1132.31 1911.72 1167.59 1956.03 1167.59C1996.94 1167.59 2034.35 1132.31 2034.35 1089.43C2034.35 1048.07 1996.94 1011.27 1956.03 1011.27C1911.71 1011.27 1877.59 1048.07 1877.59 1089.43ZM1952.51 1230.51C1874.2 1230.51 1812.87 1167.59 1812.87 1089.43C1812.87 1011.27 1874.2 949.873 1952.51 949.873C1983.23 949.873 2010.54 957.606 2034.35 974.36V952.915H2099.18V1224.3H2034.35V1207.43C2010.54 1222.78 1983.23 1230.51 1952.51 1230.51ZM1564.21 1089.43C1564.21 1132.31 1601.72 1167.59 1642.64 1167.59C1686.96 1167.59 1721.07 1132.31 1721.07 1089.43C1721.07 1048.07 1686.95 1011.27 1642.64 1011.27C1601.72 1011.27 1564.21 1048.07 1564.21 1089.43ZM1721.07 859.407H1789.19V1224.3H1721.07V1207.43C1700.56 1222.78 1673.24 1230.51 1642.64 1230.51C1564.21 1230.51 1499.48 1167.59 1499.48 1089.43C1499.48 1011.27 1564.21 949.873 1642.64 949.873C1673.24 949.873 1700.56 957.606 1721.07 974.36V859.407Z" fill="white"/>
</svg>
