<svg width="3142" height="1380" viewBox="0 0 3142 1380" fill="none" xmlns="http://www.w3.org/2000/svg">
<g clip-path="url(#clip0_402_42)">
<path fill-rule="evenodd" clip-rule="evenodd" d="M-46 -927H3188V2307H-46V-927Z" fill="#E5E5E5"/>
<path fill-rule="evenodd" clip-rule="evenodd" d="M1571 211.165C756.764 211.165 96.6797 425.55 96.6797 690C96.6797 954.467 756.764 1168.84 1571 1168.84C2385.22 1168.84 3045.32 954.467 3045.32 690C3045.32 425.55 2385.22 211.165 1571 211.165V211.165Z" fill="white"/>
<path fill-rule="evenodd" clip-rule="evenodd" d="M746.159 690.151C746.159 799.626 689.803 880.511 592.106 880.511C494.427 880.511 438.07 799.642 438.07 690.151C438.07 575.09 493.957 497.56 592.106 497.56C690.273 497.56 746.159 575.073 746.159 690.151Z" fill="#E5E5E5"/>
<path fill-rule="evenodd" clip-rule="evenodd" d="M537.328 690.94C537.328 730.887 541.053 807.729 592.292 807.729C643.531 807.729 647.255 730.887 647.255 690.94C647.255 650.405 641.92 569.335 592.292 569.335C542.663 569.335 537.328 650.405 537.328 690.94Z" fill="white"/>
<path fill-rule="evenodd" clip-rule="evenodd" d="M988.677 874.89H800.969V503.181H895.494V810.665H988.677V874.89ZM1050.22 503.181H1169.42C1216.08 503.181 1253.3 503.785 1288.18 543.648C1322.1 581.818 1337.65 634.584 1337.65 689.598C1337.65 740.132 1322.57 792.881 1292.89 829.356C1260.85 869.236 1220.8 874.907 1176.03 874.907H1050.22V503.181Z" fill="#E5E5E5"/>
<path fill-rule="evenodd" clip-rule="evenodd" d="M1163.77 806.437C1176.97 806.437 1185.45 807.712 1197.69 798.837C1206.64 791.857 1213.72 782.361 1218.9 770.298C1230.21 744.964 1233.97 715.804 1233.97 686.661C1233.97 657.502 1227.84 619.483 1214.17 595.407C1198.63 569.419 1183.55 570.694 1160.93 570.694H1149.62V806.454H1163.77V806.437V806.437Z" fill="white"/>
<path fill-rule="evenodd" clip-rule="evenodd" d="M1679.8 874.891L1566.79 649.633V874.891H1475.85V503.181H1567.91L1680.24 727.079V503.181H1770.97V874.891H1679.8V874.891ZM2009.47 805.783H1939.57L1920.85 874.891H1819.56L1914.54 503.181H2035.22L2131.07 874.891H2026.86L2009.47 805.783V805.783Z" fill="#E5E5E5"/>
<path fill-rule="evenodd" clip-rule="evenodd" d="M2000.09 735.786L1975.13 598.192L1950.2 735.786H2000.09Z" fill="white"/>
<path fill-rule="evenodd" clip-rule="evenodd" d="M2325.16 874.891H2224.86L2135.27 503.181H2233.77L2274.13 712.851L2309.59 503.181H2415.67L2325.16 874.891ZM2646.13 694.279V874.891H2548.52V694.279L2448.86 503.181H2546.29L2596.45 609.988L2653.28 503.181H2741.98L2646.13 694.279Z" fill="#E5E5E5"/>
</g>
<defs>
<clipPath id="clip0_402_42">
<rect width="3142" height="1380" fill="white"/>
</clipPath>
</defs>
</svg>
