<svg width="3142" height="1380" viewBox="0 0 3142 1380" fill="none" xmlns="http://www.w3.org/2000/svg">
<path d="M636.515 480.088L651.31 483.785C541.604 727.263 548.993 968.262 867.671 968.262C1407.02 830.811 1407.02 830.811 1773.76 728.487C1705.96 727.263 1638.16 726.02 1570.98 724.796C1560.49 653.915 1550.02 583.027 1540.15 512.139L1462.49 719.241C1410.09 721.093 1357.7 722.945 1305.31 724.784C1381.12 500.419 1456.95 276.67 1532.76 52.9211C1587 53.5362 1641.24 54.1514 1695.48 55.388C1651.1 189.142 1651.1 189.142 1656.04 196.536C1696.73 149.69 1738.03 102.843 1779.31 55.9968C1935.24 52.9339 2091.19 50.4605 2247.14 48C2235.43 88.0607 2224.33 128.128 2213.24 168.195C2157.15 171.277 2101.06 174.359 2045.58 177.441C2011.07 279.759 2011.07 279.759 2009.21 302.57C2058.52 305.652 2107.84 308.734 2157.77 312.431L2113.38 436.323C2059.14 441.257 2004.9 446.191 1951.28 451.119C1935.87 497.344 1920.44 543.575 1905.66 590.421L2059.14 595.97C2053.6 613.848 2048.05 632.334 2042.49 650.833C2052.97 650.833 2063.45 650.833 2074.55 651.448C2322.96 585.494 2571.97 520.155 2821 454.822C2190.43 728.494 1559.87 1002.17 929.294 1276.46C182.148 1522.04 171.12 908.69 636.515 480.088ZM672.263 724.796L903.413 48H1074.15L1077.85 293.939C1106.82 213.189 1135.79 133.062 1164.76 52.9339C1214.06 51.0821 1263.99 49.2303 1313.91 48C1239.33 273.595 1165.36 499.195 1091.39 724.796H920.041C918.195 645.277 916.344 565.765 915.107 486.873C846.68 673.631 846.68 673.631 834.351 724.796H672.263ZM1117.3 724.796C1193.12 501.047 1269.55 277.298 1345.98 54.1578H1508.71C1429.81 275.44 1351.53 496.728 1273.24 718.011C1220.85 719.862 1169.08 722.329 1117.3 724.796V724.796ZM1725.05 656.369C1694.86 399.338 1694.86 399.338 1694.86 339.549C1911.83 86.8304 1911.83 86.8304 1926.62 81.2814L1725.05 656.369V656.369Z" fill="white"/>
</svg>
