<svg width="413" height="167" viewBox="0 0 413 167" fill="none" xmlns="http://www.w3.org/2000/svg">
<path d="M37.1943 82.3154C37.3844 82.5505 37.5079 82.8324 37.5517 83.1316C37.5955 83.4307 37.558 83.7362 37.4432 84.0159V162.267C37.4258 162.907 37.1637 163.516 36.7109 163.968C36.2581 164.421 35.6489 164.683 35.0088 164.7H28.0928C27.4529 164.686 26.8434 164.425 26.3921 163.971C25.9408 163.517 25.6828 162.907 25.6722 162.267V130.192C25.669 129.866 25.5943 129.545 25.4533 129.251C25.3122 128.958 25.1084 128.698 24.8561 128.492C24.3758 128.03 23.738 127.768 23.0718 127.759H14.7726C14.1604 127.792 13.5829 128.054 13.1542 128.492C12.9038 128.699 12.702 128.959 12.5634 129.253C12.4247 129.547 12.3525 129.867 12.352 130.192V162.267C12.3345 162.907 12.0724 163.516 11.6196 163.968C11.1668 164.421 10.5577 164.683 9.91755 164.7H2.43443C1.82222 164.667 1.24471 164.406 0.816088 163.967C0.563806 163.761 0.359957 163.502 0.218942 163.208C0.0779275 162.914 0.00318669 162.593 0 162.267L0 84.0159C0.0214433 83.7055 0.104675 83.4026 0.244813 83.1248C0.384951 82.8471 0.579174 82.6001 0.816088 82.3983C1.0167 82.159 1.26328 81.9623 1.54124 81.8198C1.8192 81.6773 2.12291 81.592 2.43443 81.5688H9.88988C10.2159 81.572 10.5373 81.6467 10.8313 81.7877C11.1252 81.9286 11.3847 82.1324 11.5912 82.3845C12.0296 82.8129 12.2912 83.3902 12.3243 84.0021V113.367C12.3432 113.676 12.424 113.979 12.5618 114.257C12.6995 114.535 12.8916 114.782 13.1266 114.985C13.3284 115.221 13.5755 115.415 13.8534 115.556C14.1313 115.696 14.4344 115.779 14.7449 115.8H23.0441C23.3813 115.792 23.7133 115.716 24.0201 115.575C24.3268 115.435 24.6018 115.234 24.8284 114.985C25.0603 114.78 25.2494 114.532 25.3847 114.255C25.52 113.977 25.5989 113.675 25.6169 113.367V84.0159C25.63 83.4131 25.8666 82.8367 26.2808 82.3983C26.4919 82.1364 26.7596 81.9257 27.0639 81.782C27.3681 81.6383 27.701 81.5654 28.0375 81.5688H35.4929C35.8156 81.548 36.1385 81.605 36.4346 81.7349C36.7306 81.8648 36.9912 82.0639 37.1943 82.3154ZM86.9895 159.834C90.2291 155.547 91.9428 150.301 91.8583 144.93V102.168C92.1081 96.7068 90.4451 91.3289 87.1554 86.9607C85.3791 84.9037 83.1557 83.28 80.6553 82.2137C78.1548 81.1474 75.4435 80.6667 72.7287 80.8084C70.0306 80.6655 67.3368 81.1606 64.8662 82.2536C62.3955 83.3466 60.2176 85.0067 58.5094 87.0989C55.3269 91.4618 53.7178 96.7739 53.9448 102.168V144.612C53.695 150.074 55.358 155.452 58.6477 159.82C60.3821 161.884 62.5739 163.516 65.0493 164.587C67.5247 165.657 70.2156 166.136 72.9085 165.986C75.5814 166.132 78.2516 165.652 80.7059 164.584C83.1603 163.516 85.331 161.889 87.0448 159.834H86.9895ZM79.0499 144.128C79.2327 146.525 78.7238 148.924 77.5837 151.041C76.9757 151.789 76.1902 152.373 75.2988 152.74C74.4074 153.107 73.4383 153.245 72.4797 153.142C71.5211 153.245 70.552 153.107 69.6606 152.74C68.7691 152.373 67.9837 151.789 67.3757 151.041C66.2476 148.92 65.744 146.523 65.9233 144.128V102.168C65.7478 99.7736 66.2512 97.3778 67.3757 95.2558C67.9686 94.486 68.7492 93.8809 69.6427 93.4985C70.5363 93.1161 71.5131 92.969 72.4797 93.0714C73.4463 92.969 74.4231 93.1161 75.3166 93.4985C76.2102 93.8809 76.9908 94.486 77.5837 95.2558C78.7202 97.3738 79.2288 99.7718 79.0499 102.168V144.128ZM109.978 163.967C109.746 163.758 109.584 163.484 109.512 163.18C109.44 162.876 109.463 162.558 109.577 162.267V84.0159C109.605 83.4027 109.867 82.8235 110.31 82.3983C110.518 82.1401 110.782 81.9315 111.081 81.788C111.38 81.6445 111.707 81.5696 112.039 81.5688H119.495C119.821 81.572 120.142 81.6467 120.436 81.7877C120.73 81.9286 120.989 82.1324 121.196 82.3845C121.63 82.8143 121.887 83.3918 121.915 84.0021V149.949C121.921 150.274 121.997 150.594 122.138 150.888C122.279 151.181 122.481 151.441 122.731 151.649C123.161 152.083 123.739 152.34 124.35 152.368H138.776C139.114 152.376 139.446 152.453 139.752 152.593C140.059 152.733 140.334 152.934 140.561 153.184C140.798 153.385 140.992 153.632 141.132 153.91C141.272 154.188 141.355 154.491 141.377 154.801V162.253C141.374 162.579 141.299 162.9 141.158 163.194C141.017 163.488 140.813 163.747 140.561 163.954C140.08 164.415 139.443 164.677 138.776 164.686H111.68C111.362 164.688 111.047 164.626 110.755 164.502C110.462 164.378 110.198 164.196 109.978 163.967ZM126.272 48.2084C130.872 48.6534 135.504 48.6534 140.104 48.2084C142.395 47.9531 144.634 47.3518 146.744 46.425C148.864 45.5948 150.926 44.6201 152.913 43.5079L155.679 42.1253L171.406 52.0104C170.819 52.4195 170.193 52.7714 169.539 53.0611C168.936 53.3155 168.364 53.6403 167.838 54.0289C167.128 54.5152 166.367 54.9231 165.569 55.2455C164.451 56.369 163.471 57.6222 162.651 58.9783L162.249 59.4484C162.249 59.6558 161.987 59.9323 161.447 60.2503C161.063 60.5242 160.616 60.6956 160.147 60.748L159.179 61.3839C157.45 62.6835 156.578 63.5545 156.578 63.9831C156.366 64.9508 156.449 65.6006 156.827 65.9324C157.162 66.1052 157.528 66.2078 157.904 66.2339C158.28 66.2601 158.657 66.2092 159.013 66.0845C160.525 65.5499 162.309 65.0108 164.366 64.467L166.8 63.9831L175.099 66.4163L177.7 67.0661C179.986 67.511 182.295 67.834 184.616 68.0339C188.117 68.3523 191.64 68.3523 195.142 68.0339C196.018 68.0339 200.827 67.0615 209.569 65.1168L222.377 62.3517C231.995 65.0522 237.343 66.6698 238.422 67.2044C240.349 67.6555 242.359 67.6031 244.259 67.0523C246.657 66.6931 248.987 65.9803 251.175 64.937C253.628 63.3069 255.768 61.2515 257.497 58.8677C259.227 57.1529 260.555 55.0751 261.383 52.7846C261.383 51.9274 255.851 50.8491 244.785 49.5495L241.7 49.0656C239.22 48.955 235.817 48.8444 231.492 48.7338H225.489C227.232 44.5309 229.233 39.9962 231.492 35.1297C234.394 28.2233 238.209 21.7368 242.835 15.8435C246.718 12.8673 251.589 11.4785 256.459 11.9586C260.692 11.8203 267.492 12.0784 276.861 12.7328L287.706 13.3826C290.257 13.566 292.821 13.3985 295.327 12.8849C298.342 12.0277 298.232 10.894 294.995 9.48387C290.812 7.85989 286.529 6.50682 282.173 5.43307C277.664 4.14732 274.482 3.16572 272.643 2.51594C269.817 1.79466 266.948 1.25438 264.053 0.898379C261.992 0.691 259.032 0.414495 255.131 0.0965138H254.163C250.468 -0.0990882 246.762 0.0629608 243.097 0.580398L238.948 0.898379C235.822 1.11958 229.178 6.03677 219.016 15.6499C210.145 24.0741 201.016 33.6873 191.629 44.4895C184.436 39.0377 176.966 33.9617 169.248 29.2817C165.901 27.3323 163.522 26.0465 162.125 25.3968C160.519 24.6976 158.769 24.3896 157.021 24.4981C155.192 24.8319 153.484 25.6427 152.069 26.8484C146.346 30.2325 140.45 33.3152 134.406 36.0837C127.379 39.54 122.57 41.9733 119.979 43.3834C115.765 45.6508 114.091 46.8904 114.958 47.1024C118.701 47.7208 122.48 48.0903 126.272 48.2084V48.2084ZM183.813 163.967C183.662 164.175 183.467 164.349 183.243 164.475C183.019 164.601 182.77 164.678 182.513 164.7H155.292C154.973 164.7 154.658 164.635 154.365 164.509C154.073 164.383 153.809 164.199 153.591 163.967C153.356 163.751 153.17 163.488 153.044 163.195C152.917 162.902 152.854 162.586 152.857 162.267V84.0159C152.87 83.4104 153.113 82.8323 153.535 82.3983C153.742 82.1462 154.001 81.9424 154.295 81.8015C154.589 81.6605 154.911 81.5858 155.237 81.5826H162.692C163.304 81.6723 163.871 81.9578 164.308 82.3964C164.744 82.8351 165.026 83.4033 165.113 84.0159V149.962C165.115 150.28 165.181 150.595 165.307 150.887C165.433 151.179 165.616 151.443 165.846 151.663C166.065 151.893 166.329 152.075 166.622 152.199C166.914 152.322 167.229 152.385 167.547 152.382H182.029C182.355 152.385 182.677 152.46 182.971 152.601C183.264 152.742 183.524 152.945 183.73 153.198C184.169 153.626 184.43 154.203 184.464 154.815V162.267C184.47 162.895 184.237 163.503 183.813 163.967V163.967ZM210.565 163.967C210.084 164.429 209.446 164.691 208.78 164.7H201.477C200.815 164.689 200.183 164.427 199.706 163.967C199.452 163.763 199.247 163.504 199.105 163.21C198.964 162.915 198.891 162.593 198.89 162.267V84.0159C198.909 83.7049 198.991 83.4009 199.131 83.1227C199.271 82.8445 199.467 82.598 199.706 82.3983C199.931 82.1497 200.204 81.9492 200.508 81.809C200.812 81.6688 201.142 81.5918 201.477 81.5826H208.78C209.117 81.5907 209.449 81.6672 209.756 81.8074C210.063 81.9476 210.338 82.1487 210.565 82.3983C210.8 82.6008 210.992 82.8482 211.129 83.126C211.267 83.4038 211.348 83.7064 211.367 84.0159V162.267C211.366 162.592 211.294 162.913 211.155 163.207C211.017 163.501 210.815 163.76 210.565 163.967V163.967ZM242.821 109.772C245.063 112.536 247.499 115.137 250.11 117.556C252.511 119.799 254.783 122.176 256.916 124.676C259.194 127.267 261.103 130.161 262.587 133.275C264.097 136.694 264.87 140.392 264.855 144.128C265.248 149.902 263.361 155.6 259.599 160C257.754 161.865 255.537 163.321 253.092 164.274C250.647 165.227 248.029 165.655 245.407 165.53C243.092 165.567 240.796 165.108 238.673 164.185C236.55 163.263 234.649 161.897 233.097 160.179C229.96 156.327 227.988 151.661 227.412 146.727C227.185 145.876 227.214 144.977 227.495 144.142C227.589 143.912 227.731 143.705 227.913 143.536C228.094 143.366 228.31 143.238 228.546 143.16L235.462 141.778C235.821 141.68 236.199 141.682 236.557 141.781C236.915 141.881 237.239 142.076 237.495 142.345C238.125 142.822 238.605 143.47 238.879 144.211L239.211 146.631C239.57 148.204 240.233 149.693 241.161 151.013C241.784 151.753 242.568 152.341 243.452 152.734C244.336 153.126 245.298 153.313 246.265 153.28C247.197 153.321 248.128 153.178 249.004 152.857C249.88 152.537 250.684 152.046 251.369 151.414C252.053 150.674 252.578 149.801 252.911 148.85C253.244 147.898 253.378 146.889 253.305 145.884C253.22 142.492 252.089 139.209 250.069 136.483C247.745 133.638 245.256 130.933 242.613 128.381C240.196 126.228 237.923 123.919 235.808 121.469C233.565 118.884 231.702 115.993 230.275 112.883C228.847 109.276 228.133 105.426 228.173 101.546C227.817 96.033 229.584 90.5924 233.111 86.3385C234.935 84.5044 237.13 83.0797 239.548 82.1596C241.967 81.2394 244.553 80.8448 247.136 81.002C250.11 80.9389 253.024 81.8466 255.436 83.5873C257.508 85.1498 259.221 87.1395 260.457 89.4216C261.371 91.2828 262.076 93.2395 262.559 95.2558L263.209 97.8412C263.421 98.5765 263.336 99.3654 262.974 100.039C262.866 100.372 262.661 100.665 262.385 100.879C262.109 101.094 261.774 101.22 261.425 101.242L254.951 102.058C254.394 102.084 253.845 101.913 253.402 101.574C253.048 101.282 252.796 100.885 252.683 100.44L252.517 99.9564C252.479 98.921 252.229 97.9045 251.781 96.9698C251.334 96.0352 250.699 95.2024 249.917 94.5231C249.263 93.9367 248.492 93.4964 247.655 93.2318C246.818 92.9671 245.933 92.8842 245.062 92.9885C241.493 93.3019 239.709 96.1637 239.709 101.574C239.853 104.567 240.942 107.437 242.821 109.772V109.772ZM309.837 82.3983C310.038 82.6098 310.175 82.8743 310.232 83.1608C310.288 83.4473 310.261 83.744 310.155 84.0159V91.4677C310.138 92.1075 309.875 92.7164 309.423 93.169C308.97 93.6216 308.361 93.8835 307.721 93.901H300.805C300.479 93.9015 300.158 93.9736 299.864 94.1122C299.57 94.2508 299.31 94.4525 299.103 94.7028C298.643 95.1837 298.381 95.8207 298.37 96.4863V162.267C298.37 162.592 298.297 162.913 298.159 163.207C298.02 163.501 297.818 163.76 297.568 163.967C297.088 164.429 296.45 164.691 295.784 164.7H288.494C287.828 164.691 287.19 164.429 286.71 163.967C286.457 163.761 286.254 163.502 286.113 163.208C285.972 162.914 285.897 162.593 285.894 162.267V96.4863C285.889 95.8196 285.626 95.1806 285.161 94.7028C284.953 94.4525 284.693 94.2508 284.399 94.1122C284.105 93.9736 283.784 93.9015 283.459 93.901H276.543C276.225 93.8988 275.91 93.8328 275.618 93.7069C275.326 93.5811 275.062 93.3979 274.842 93.1682C274.612 92.949 274.43 92.6849 274.306 92.3925C274.182 92.1 274.12 91.7853 274.123 91.4677V84.0159C274.151 83.4056 274.407 82.8281 274.842 82.3983C275.219 81.9314 275.766 81.6331 276.363 81.5688H308.177C308.5 81.5655 308.818 81.639 309.107 81.7833C309.396 81.9275 309.646 82.1383 309.837 82.3983V82.3983ZM357.654 155.299V162.751C357.608 163.381 357.315 163.967 356.838 164.382C356.611 164.63 356.335 164.829 356.028 164.967C355.722 165.105 355.39 165.179 355.054 165.184H325.329C325.017 165.167 324.711 165.087 324.431 164.949C324.15 164.812 323.901 164.619 323.697 164.382C323.223 163.966 322.935 163.379 322.894 162.751V84.4998C322.895 84.1748 322.967 83.854 323.106 83.5601C323.244 83.2662 323.446 83.0064 323.697 82.7993C324.129 82.3591 324.712 82.0975 325.329 82.0665H353.366C354.006 82.084 354.615 82.3459 355.068 82.7985C355.521 83.2511 355.783 83.8599 355.801 84.4998V91.9516C355.767 92.5635 355.506 93.1407 355.067 93.5692C354.861 93.8213 354.601 94.0251 354.308 94.166C354.014 94.307 353.692 94.3817 353.366 94.3848H337.805C337.139 94.3942 336.501 94.6561 336.021 95.1176C335.774 95.3195 335.573 95.5722 335.432 95.8584C335.291 96.1446 335.214 96.4578 335.205 96.7766V113.367C335.226 113.677 335.309 113.98 335.45 114.258C335.59 114.536 335.784 114.783 336.021 114.985C336.247 115.234 336.522 115.435 336.829 115.575C337.136 115.716 337.468 115.792 337.805 115.8H348.871C349.196 115.801 349.517 115.873 349.811 116.011C350.105 116.15 350.365 116.352 350.572 116.602C351.008 117.038 351.269 117.618 351.305 118.233V125.685C351.288 126.325 351.026 126.934 350.573 127.387C350.12 127.839 349.511 128.101 348.871 128.119H337.805C337.469 128.124 337.137 128.198 336.83 128.336C336.524 128.474 336.248 128.673 336.021 128.92C335.784 129.122 335.59 129.369 335.45 129.647C335.309 129.925 335.226 130.228 335.205 130.538V149.99C335.211 150.315 335.287 150.636 335.427 150.929C335.568 151.223 335.771 151.482 336.021 151.691C336.502 152.149 337.14 152.407 337.805 152.41H354.984C356.174 152.382 357.032 153.363 357.585 155.299H357.654ZM401.571 126.943C404.157 125.558 406.253 123.41 407.574 120.791C409.592 116.261 410.538 111.327 410.34 106.371C410.567 102.804 410.01 99.2295 408.708 95.9C407.406 92.5705 405.39 89.5665 402.802 87.0989C398.329 83.3233 392.607 81.3514 386.757 81.5688H374.432C374.095 81.5769 373.763 81.6534 373.456 81.7936C373.15 81.9338 372.875 82.1348 372.648 82.3845C372.413 82.587 372.221 82.8344 372.083 83.1122C371.945 83.39 371.865 83.6926 371.846 84.0021V162.253C371.846 162.578 371.918 162.899 372.057 163.193C372.196 163.487 372.397 163.746 372.648 163.954C373.128 164.415 373.766 164.677 374.432 164.686H381.763C382.429 164.677 383.067 164.415 383.548 163.954C383.798 163.746 384 163.487 384.138 163.193C384.277 162.899 384.349 162.578 384.35 162.253V133.109C384.359 132.444 384.621 131.806 385.083 131.326C385.289 131.074 385.549 130.87 385.843 130.729C386.137 130.588 386.458 130.513 386.784 130.51H388.887C389.412 130.55 389.904 130.781 390.27 131.16C390.729 131.561 391.088 132.063 391.321 132.626L399.62 162.267C399.787 162.952 400.153 163.572 400.672 164.05C401.193 164.49 401.858 164.721 402.539 164.7H410.312C410.598 164.69 410.877 164.612 411.127 164.473C411.376 164.334 411.589 164.137 411.747 163.899C411.905 163.661 412.004 163.389 412.036 163.105C412.068 162.821 412.032 162.534 411.931 162.267L401.571 126.943ZM396.232 113.823C395.446 115.253 394.332 116.475 392.981 117.39C392.347 117.81 391.63 118.088 390.879 118.206C389.419 118.715 387.887 118.985 386.342 119.008C386.071 119.006 385.804 118.939 385.564 118.814C385.323 118.689 385.116 118.509 384.958 118.289C384.583 117.797 384.383 117.193 384.391 116.574V96.0024C384.409 95.3626 384.671 94.7537 385.124 94.3011C385.577 93.8486 386.186 93.5866 386.826 93.5692H388.928C390.24 93.4291 391.566 93.6073 392.794 94.0887C394.022 94.57 395.116 95.3403 395.983 96.3342C397.629 99.4087 398.336 102.899 398.016 106.371C398.074 108.976 397.434 111.549 396.162 113.823H396.232Z" fill="white"/>
</svg>
