<svg width="3142" height="1380" viewBox="0 0 3142 1380" fill="none" xmlns="http://www.w3.org/2000/svg">
<path fill-rule="evenodd" clip-rule="evenodd" d="M2995.21 737.768V712.828H2995.05L2985.52 737.768H2981.19L2971.67 712.828H2971.52V737.768H2965.71V705.851H2974.69L2983.43 728.471L2992.11 705.851H3001V737.768H2995.21ZM2949.46 737.768H2943.27V710.888H2933.52V705.851H2959.21V710.888H2949.46V737.768ZM2750.28 645.653L2457.09 645.549L2406.47 742.553H2339.8C2339.8 742.553 2547.58 348.805 2555.86 335.358C2564.13 321.902 2587.83 279.415 2626.08 281.483C2664.33 283.551 2680.32 312.693 2687.56 325.111C2694.79 337.529 2909.34 742.553 2909.34 742.553H2802.61L2750.28 645.653ZM2624.92 412.384C2615.66 393.755 2594.61 389.169 2583.23 410.895C2578.49 419.864 2488.86 588.426 2488.86 588.426L2720 588.446L2624.92 412.384ZM2249.49 336.926L2249.83 738.446H2154.48V337.358L1973.49 337.074V281.307L2431.52 281L2431.31 337.413L2249.49 336.926ZM2003.45 1020.21C2016.28 1017.85 2027.71 1019.26 2027.71 1008.77C2027.71 999.525 2018.16 997.805 2010.96 997.805C2000.95 997.805 1993.91 1001.88 1993.12 1010.65H1975.28C1976.53 989.81 1994.22 983.702 2012.05 983.702C2027.86 983.702 2044.45 990.129 2044.45 1007.21V1048.87C2044.45 1053.25 2045.39 1054.98 2048.68 1054.98C2049.77 1054.98 2051.19 1054.98 2053.06 1054.66V1067.04C2050.4 1067.98 2044.77 1069.07 2041.8 1069.07C2034.6 1069.07 2029.43 1066.57 2028.02 1059.21C2020.98 1066.11 2009.56 1069.07 2000.01 1069.07C1985.46 1069.07 1972.32 1061.25 1972.32 1045.42C1972.31 1025.22 1988.43 1021.93 2003.45 1020.21ZM2006.58 1054.98C2014.4 1054.98 2026.61 1050.91 2026.61 1039.62V1026.31C2021.13 1029.92 2012.53 1029.76 2004.7 1031.17C1997.03 1032.42 1990.15 1035.24 1990.15 1044.63C1990.15 1052.63 2000.33 1054.98 2006.58 1054.98ZM1929.12 1046.99V999.21H1915.66V985.894H1929.12V961.609H1946.96V985.894H1963.08V999.21H1946.96V1042.45C1946.96 1049.81 1947.58 1053.57 1955.57 1053.57C1958.07 1053.57 1960.58 1053.57 1963.08 1052.94V1066.73C1959.17 1067.04 1955.41 1067.66 1951.5 1067.66C1932.87 1067.67 1929.43 1060.46 1929.12 1046.99ZM1814.52 283.826H1911.48V741.049H1814.52V283.826ZM1827.4 1043.55L1856.04 955.035H1875.91L1837.73 1066.89H1815.98L1778.73 955.035H1799.08L1827.09 1043.55H1827.4ZM1753.71 1068.05C1738.91 1068.05 1728.38 1056.96 1728.38 1042.3C1728.38 1026.8 1740.08 1016.54 1753.71 1016.54C1767.19 1016.54 1778.89 1026.8 1778.89 1042.3C1778.89 1057.79 1767.19 1068.05 1753.71 1068.05ZM1753.71 1021.02C1742.56 1021.02 1733.89 1029.76 1733.89 1042.3C1733.89 1054.01 1741.46 1063.58 1753.71 1063.58C1764.72 1063.58 1773.39 1054.9 1773.39 1042.3C1773.39 1029.76 1764.72 1021.02 1753.71 1021.02ZM1757.7 1044.5L1765.68 1057.04H1760.38L1753.02 1044.85H1748.62V1057.04H1743.94V1028.53H1754.74C1761.62 1028.53 1765.12 1030.94 1765.12 1036.72C1765.13 1041.88 1761.97 1044.02 1757.7 1044.5ZM1754.26 1032.52H1748.62V1040.85H1753.85C1757.36 1040.85 1760.45 1040.51 1760.45 1036.37C1760.45 1032.93 1757.08 1032.52 1754.26 1032.52ZM1467.9 742.466C1429.73 740.398 1413.77 711.315 1406.55 698.925C1399.32 686.531 1185.19 282.289 1185.19 282.289H1291.72L1469.06 611.824C1478.3 630.417 1499.32 634.996 1510.68 613.305C1519.96 595.75 1687.1 282.289 1687.1 282.289H1753.65C1753.65 282.289 1546.26 675.275 1538 688.699C1529.74 702.127 1506.08 744.533 1467.9 742.466ZM1206.27 985.894L1174.81 1071.27C1169.02 1085.84 1164.79 1099 1146.17 1099C1141.95 1099 1137.88 1098.68 1133.81 1098.06V1083.01C1136.62 1083.48 1139.44 1084.11 1142.26 1084.11C1150.55 1084.11 1152.58 1079.73 1154.77 1072.84L1156.81 1066.57L1126.13 985.894H1145.7L1166.82 1046.36H1167.14L1187.64 985.894H1206.27ZM909.626 407.159V616.475C909.626 693.01 875.204 740.761 779.794 740.761H574.842V684.168H753.659C790.254 684.168 812.118 654.415 812.118 616.479V407.159C812.118 340.439 844.49 282.876 939.246 282.876H1142.79V339.477H966.69C919.124 337.417 909.626 376.415 909.626 407.159ZM507.286 536.674H287.963C257.899 536.674 235.684 559.57 235.684 598.816V741.408H141V604.049C141 526.863 189.359 474.856 257.971 474.856H479.839C534.247 472.785 547.223 445.754 547.223 406.504C547.223 376.415 532.186 335.338 479.839 339.473H141V282.88H507.286C603.346 282.88 641.249 338.475 641.249 406.508C641.249 483.694 603.346 536.674 507.286 536.674ZM993.443 989.654C993.443 1003.44 987.338 1024.12 955.412 1023.96H925.676V1066.89H906.116V955.039H955.412C987.338 955.035 993.443 975.711 993.443 989.654ZM925.676 971.017V1007.99H954.316C963.081 1007.99 973.879 1003.6 973.879 989.498C973.879 974.773 964.959 971.017 954.631 971.017H925.676ZM1027.08 1066.89H1009.24V955.035H1027.08V1066.89ZM1074.03 1020.21C1086.86 1017.85 1098.29 1019.26 1098.29 1008.77C1098.29 999.525 1088.74 997.805 1081.54 997.805C1071.52 997.805 1064.48 1001.88 1063.7 1010.65H1045.86C1047.11 989.81 1064.8 983.702 1082.63 983.702C1098.44 983.702 1115.03 990.129 1115.03 1007.21V1048.87C1115.03 1053.25 1115.97 1054.98 1119.26 1054.98C1120.35 1054.98 1121.76 1054.98 1123.64 1054.66V1067.04C1120.98 1067.98 1115.35 1069.07 1112.37 1069.07C1105.17 1069.07 1100.01 1066.57 1098.6 1059.21C1091.55 1066.11 1080.13 1069.07 1070.59 1069.07C1056.03 1069.07 1042.89 1061.25 1042.89 1045.42C1042.89 1025.22 1059 1021.93 1074.03 1020.21ZM1077.16 1054.98C1084.98 1054.98 1097.19 1050.91 1097.19 1039.62V1026.31C1091.71 1029.92 1083.11 1029.76 1075.28 1031.17C1067.61 1032.42 1060.73 1035.24 1060.73 1044.63C1060.73 1052.63 1070.9 1054.98 1077.16 1054.98ZM1260.72 1053.57C1277.94 1053.57 1284.35 1045.11 1284.35 1036.65C1284.35 1028.03 1279.66 1024.58 1275.12 1022.86C1267.3 1019.89 1257.13 1017.85 1241.79 1013.62C1222.7 1008.45 1217.07 996.867 1217.07 985.267C1217.07 962.874 1237.72 952.372 1257.91 952.372C1281.23 952.372 1300.79 964.75 1300.79 988.089H1281.23C1280.29 973.676 1270.58 968.351 1257.13 968.351C1248.05 968.351 1236.63 971.64 1236.63 982.92C1236.63 990.752 1241.94 995.134 1249.93 997.326C1251.65 997.801 1276.37 1004.22 1282.16 1005.95C1296.87 1010.33 1303.92 1022.86 1303.92 1034.46C1303.92 1059.52 1281.69 1069.55 1259.47 1069.55C1233.96 1069.55 1213.31 1057.33 1212.83 1029.6H1232.39C1232.4 1046.83 1245.08 1053.57 1260.72 1053.57ZM1324.57 961.609H1342.41V985.894H1358.53V999.21H1342.41V1042.45C1342.41 1049.81 1343.04 1053.57 1351.02 1053.57C1353.52 1053.57 1356.03 1053.57 1358.53 1052.94V1066.73C1354.62 1067.04 1350.86 1067.66 1346.95 1067.66C1328.33 1067.66 1324.88 1060.46 1324.57 1046.99V999.206H1311.11V985.89H1324.57V961.609ZM1398.9 1020.21C1411.74 1017.85 1423.16 1019.26 1423.16 1008.77C1423.16 999.525 1413.62 997.805 1406.42 997.805C1396.4 997.805 1389.36 1001.88 1388.57 1010.65H1370.73C1371.98 989.81 1389.67 983.702 1407.51 983.702C1423.32 983.702 1439.91 990.129 1439.91 1007.21V1048.87C1439.91 1053.25 1440.84 1054.98 1444.13 1054.98C1445.23 1054.98 1446.63 1054.98 1448.52 1054.66V1067.04C1445.86 1067.98 1440.22 1069.07 1437.25 1069.07C1430.05 1069.07 1424.88 1066.57 1423.47 1059.21C1416.43 1066.11 1405.01 1069.07 1395.46 1069.07C1380.91 1069.07 1367.76 1061.25 1367.76 1045.42C1367.76 1025.22 1383.88 1021.93 1398.9 1020.21ZM1402.03 1054.98C1409.85 1054.98 1422.06 1050.91 1422.06 1039.62V1026.31C1416.58 1029.92 1407.98 1029.76 1400.15 1031.17C1392.49 1032.42 1385.6 1035.24 1385.6 1044.63C1385.6 1052.63 1395.77 1054.98 1402.03 1054.98ZM1465.25 961.609H1483.09V985.894H1499.21V999.21H1483.09V1042.45C1483.09 1049.81 1483.72 1053.57 1491.7 1053.57C1494.2 1053.57 1496.71 1053.57 1499.22 1052.94V1066.73C1495.3 1067.04 1491.55 1067.66 1487.63 1067.66C1469.01 1067.66 1465.57 1060.46 1465.25 1046.99V999.206H1451.79V985.89H1465.25V961.609ZM1531.14 971.951H1513.3V955.035H1531.14V971.951ZM1531.14 1066.89H1513.3V985.894H1531.14V1066.89ZM1588.41 983.698C1614.39 983.698 1629.25 1001.56 1629.25 1026.31C1629.25 1051.21 1614.39 1069.07 1588.41 1069.07C1562.44 1069.07 1547.57 1051.21 1547.57 1026.31C1547.57 1001.56 1562.44 983.698 1588.41 983.698ZM1588.41 1054.98C1604.38 1054.98 1611.42 1040.41 1611.42 1026.31C1611.42 1012.37 1604.38 997.801 1588.41 997.801C1572.45 997.801 1565.41 1012.36 1565.41 1026.31C1565.41 1040.4 1572.45 1054.98 1588.41 1054.98ZM1661.81 997.805L1662.12 998.112C1667.44 989.187 1676.67 983.702 1687.31 983.702C1704.84 983.702 1715.95 993.099 1715.95 1011.28V1066.89H1698.11V1015.97C1697.8 1003.29 1692.79 997.805 1682.31 997.805C1670.41 997.805 1662.74 1007.2 1662.74 1019.11V1066.89H1644.9V985.898H1661.8V997.805H1661.81ZM1903.61 971.951H1885.77V955.035H1903.61V971.951ZM1903.61 1066.89H1885.77V985.894H1903.61V1066.89Z" fill="white"/>
</svg>
