<svg width="3142" height="1380" viewBox="0 0 3142 1380" fill="none" xmlns="http://www.w3.org/2000/svg">
<path fill-rule="evenodd" clip-rule="evenodd" d="M2578.58 1241.85C2579.69 1246.25 2580.08 1250.31 2576.76 1253.26C2576.38 1261.86 2567.81 1269.75 2560.23 1273.11C2550.77 1277.3 2538.41 1276.14 2527.09 1276.62L2526.81 1290.67C2569.48 1292.35 2615.43 1290.85 2657.94 1290.8C2684.1 1290.77 2727.15 1292.43 2752.24 1287.13C2759.67 1285.56 2773.68 1280.65 2779.3 1280.86C2780.7 1279.53 2779.82 1280.12 2782.02 1278.92L2804.91 1269.47C2822.47 1260.71 2834.32 1253.42 2848.45 1240.32C2854.03 1235.13 2861.32 1224.85 2866.32 1221.44C2869.6 1215.24 2873.25 1211.12 2877.11 1204.9C2929.92 1119.85 2924.54 982.699 2867.16 905.948C2839.92 869.512 2798.27 841.92 2731.31 835.865C2708.45 833.799 2553.11 833.492 2526.74 834.638L2526.8 848.428C2573.47 850.824 2580.4 854.956 2580.41 907.731C2580.42 944.989 2580.32 982.244 2580.27 1019.5C2580.27 1025.62 2582.76 1234.59 2578.58 1241.85V1241.85ZM2781.89 1214.64C2797.74 1197.74 2806.51 1131.2 2808.07 1111.99C2813.51 1045 2809.44 952.133 2769.74 897.738C2749.54 870.062 2722.75 861.284 2674.51 862.142L2674.16 1206.29C2675.11 1241.45 2665.64 1272.99 2723.16 1262.54C2738.49 1259.75 2750.1 1253.02 2759.46 1245.73C2764.98 1241.43 2780.46 1223.64 2781.89 1214.64ZM229 848.254C253.277 855.498 253.054 858.531 264.048 888.515C281.905 937.223 304.02 1013.44 320.486 1065.18C325.123 1079.75 391.355 1294.12 395.43 1301L405.94 1301.25L501.874 1012.54C506.49 1018.43 540.028 1136.31 546.352 1156.25C554.748 1182.71 584.441 1278.96 589.691 1301.08L601.791 1301.3C611.399 1263.11 625.044 1222.82 636.378 1184.39C647.993 1144.98 660.054 1106.02 671.41 1066.62C688.365 1007.79 706.024 948.746 724.368 890.495C731.108 869.083 735.966 852.461 758.327 848.9L758.862 835.096C749.075 832.747 677.93 833.621 664.533 834.51L664.218 848.675C698.092 851.254 706.201 864.122 696.242 905.144C686.857 943.808 664.573 1013.18 652.272 1054.72L630.768 1126.15C629.696 1128.14 629.947 1127.66 628.843 1128.89C606.561 1055.71 581.577 975.792 560.714 902.36C549.499 862.882 548.177 850.301 591.679 848.741L591.544 834.413L417.692 834.49L417.39 848.555C435.88 849.498 444.259 852.348 452.592 864.258C462.882 878.964 474.557 920.081 480.46 939.87C484.215 952.453 492.399 968.523 488.018 981.632C483.644 994.708 440.62 1132.1 436.139 1139.94L432.259 1131.14L411.072 1063.79C395.335 1014.4 377.163 959.543 362.634 910.353C349.566 866.109 347.54 852.474 385.092 848.443L384.928 834.845L229.131 834.422L229 848.254ZM1069.03 1067.22C1075.36 1072.91 1078.45 1090.98 1101.65 1113.61C1126 1137.35 1139.94 1136.88 1150.39 1143.6C1150.61 1143.75 1151.03 1144.03 1151.32 1144.28C1161.25 1143.81 1177.26 1151.5 1210.35 1147.38C1330.6 1132.42 1364.15 949.658 1280.45 866.994C1258.6 845.415 1230.1 833.721 1186.59 833.591C1079.59 833.275 1036.47 952.179 1061.77 1043.49C1063.79 1050.77 1069.14 1061.88 1069.03 1067.22V1067.22ZM1179.98 850.783C1129.18 863.194 1123.31 944.767 1124.24 1001.56C1125.13 1055.92 1138.95 1142.7 1202.75 1129.01C1271.22 1114.32 1264.39 943.158 1242.84 889.906C1233.89 867.784 1214.3 842.399 1179.98 850.783ZM862.81 834.691C778.061 846.834 742.854 934.074 751.446 1014.27C759.96 1093.72 817.563 1161.23 909.892 1146.56C1069.73 1121.15 1060.69 806.34 862.81 834.691ZM876.014 850.661C825.113 862.065 818.275 943.434 819.402 1000.18C820.478 1054.47 832.225 1141.23 896.545 1129.24C965.832 1116.34 959.109 942.912 938.298 890.897C929.214 868.201 910.006 843.046 876.014 850.661ZM1492.73 1139.82L1496.95 1137.64C1516.08 1130.39 1537.62 1128.49 1559.91 1104C1606.31 1053.01 1610.67 966.697 1581.22 905.843C1574.29 891.534 1567.54 885.362 1560.26 874.345C1552.46 869.568 1548.07 859.615 1523.62 849.026C1482.36 831.157 1392.41 837.38 1342.65 837.643L1342.09 847.263C1383.38 847.927 1377.72 863.936 1377.83 900.833C1377.92 926.748 1380.5 1107.22 1375.07 1119.12C1369.55 1131.21 1359.39 1131.36 1342.93 1131.95L1342.34 1141.61L1456.58 1141.81C1466.91 1141.71 1485.89 1139.26 1492.73 1139.82V1139.82ZM1442.46 856.705C1439.56 858.928 1440.26 853.812 1439.98 860.816C1439.95 911.873 1439.98 962.926 1440.06 1013.98C1440.1 1039.28 1440.13 1064.58 1440.12 1089.88C1440.12 1101.44 1438.56 1115.66 1447.53 1120.79C1456.47 1125.9 1472.72 1123.46 1481.66 1119.99C1500.41 1112.73 1510.14 1098.43 1517.69 1079.22C1535.12 1034.89 1536.06 941.518 1513.44 896.206C1512.27 893.856 1511.34 891.746 1510.26 889.804C1509.92 889.185 1509.01 887.62 1508.64 887.159C1506.04 883.948 1507.91 885.888 1505.31 884.155C1503.52 876.708 1490.6 865.787 1482.13 862.088C1472.21 857.754 1453.76 855.393 1442.46 856.705ZM2203.92 1130.91L2193.78 1131.37L2192.29 1141.18L2294.76 1141.54L2294.88 1132.09C2276.54 1131.74 2264.36 1128.17 2257.04 1116.98C2246.8 1092.86 2250.9 1041.75 2250.84 1012.6C2250.77 975.473 2250.91 938.345 2251.13 901.217C2257.7 903.776 2255.49 903.342 2261.64 911.377C2280.27 935.737 2377.87 1060.25 2381.66 1069.17C2384.9 1070.98 2429.95 1130.17 2438.94 1142.31C2442.97 1147.75 2442.12 1148.84 2451 1148.51C2454.98 1137.91 2452.13 1005.06 2452.18 982.244C2452.23 954.189 2452.09 926.113 2452.22 898.062C2452.46 848.267 2463.92 854.042 2489.08 847.018L2488.91 838.165L2393.75 838.193L2393.75 846.41C2404.25 849.061 2409.21 846.803 2418.8 852.056C2424.93 855.409 2429.1 859.823 2431.64 867.077C2437.94 885.091 2436.06 1001.58 2435.1 1021.99C2429.17 1018.61 2341.55 898.977 2329.22 883.024C2322.52 874.352 2317.74 867.901 2311.59 859.704C2306.36 852.727 2300.58 843.67 2294.43 837.564L2192.62 837.631L2192.34 845.639C2195.57 847.626 2192.6 846.3 2197.18 847.501C2198.13 847.751 2201.08 848.148 2202.4 848.383C2213.22 850.317 2216.99 853.76 2224.3 862.392C2236.54 876.838 2234.07 874.694 2234.21 896.694L2234.28 1070.56C2234.34 1099.29 2237.33 1127.05 2203.92 1130.91L2203.92 1130.91ZM2005.82 874.275C2005.64 881.68 1982.32 937.025 1977.31 949.585C1974.82 955.831 1951.48 1019.06 1946.6 1024.01C1946.52 1030.76 1918.05 1101 1907.87 1115.52C1897.75 1129.94 1889.94 1128.56 1881.73 1132.67L1882.7 1141.59L1971.42 1141.38C1972.62 1136.5 1972.63 1135.84 1970.94 1132.32C1962.62 1129.65 1951.04 1130.66 1944.28 1125.63C1925.21 1111.44 1952.62 1058.34 1954.54 1055.82L2046.32 1055.73C2075.18 1124.18 2077.61 1129.54 2036.67 1132.05L2037.22 1141.59L2166.87 1141.68L2167.39 1132.13C2161.64 1130.87 2157.82 1130.77 2153.96 1127.75C2139.56 1120.92 2127.24 1085.12 2120.92 1067.8C2112.72 1045.34 2103.9 1024.09 2095.39 1001.87C2089.04 985.264 2044.66 876.253 2045.5 869.94C2043.58 868.154 2045.03 869.99 2043.12 867.099L2040.03 859.988C2037.02 851.96 2031.87 834.59 2027.32 831.512C2017.51 834.055 2013.83 867.377 2005.82 874.275V874.275ZM1960.88 1037.51L2039.27 1037.66C2036.44 1026.92 2017.53 980.072 2011.27 964.038L2002.9 942.762C2000.6 938.934 2002.19 941.121 1999.91 939.026L1960.88 1037.51ZM1651.03 902.059C1652.49 922.368 1651.11 947.605 1651 968.446C1650.89 990.512 1650.88 1012.61 1650.97 1034.68C1651.06 1056.41 1651.67 1079.34 1651.02 1100.93C1650.16 1129.62 1643.01 1130.33 1615.63 1132.08L1615.33 1141.53L1842.71 1141.04L1843.73 1125.74L1851.93 1034.06C1835.54 1033.77 1846.16 1035.19 1830.6 1074.19C1824.97 1088.3 1816.19 1103.85 1807.19 1110.59C1793.45 1120.88 1781.26 1123.28 1759.17 1123.16C1746.76 1123.09 1710.68 1126.92 1715.75 1105.82C1714.35 1103.49 1714.04 1101.99 1713.68 1098.22C1712.66 1087.72 1713.54 995.277 1713.53 983.624C1713.52 967.192 1710.22 870.494 1716.09 864.194C1716.81 846.641 1734.95 848.806 1751.88 846.973L1751.86 837.836L1615.6 837.564L1615.11 847.014C1630.71 848.475 1641.95 847.607 1647.95 859.21C1652.87 868.723 1650.1 890.362 1651.03 902.059H1651.03Z" fill="white"/>
<path fill-rule="evenodd" clip-rule="evenodd" d="M1548.17 670.912C1488.56 654.311 1463.82 633.292 1440.72 704.18C1454.65 713.278 1471.75 706.577 1492.73 731.202C1510.29 751.82 1507.49 761.867 1511.92 791.793L1684.55 792.033C1685.96 739.901 1704.27 710.552 1754.36 707.429C1750.67 696.548 1746.55 686.442 1742.66 675.899C1727.5 634.795 1670.09 665.14 1647.45 671.114L1646.63 601.334L1548.77 601.328L1548.17 670.912Z" fill="white"/>
<path fill-rule="evenodd" clip-rule="evenodd" d="M1487.64 1323.58L1706.91 1323.85C1699.8 1303.22 1691.9 1298.24 1687.22 1270.14C1683.62 1248.49 1683.67 1225.3 1682.94 1202.89L1510.86 1202.96C1509.66 1226.7 1511.17 1247.57 1507.71 1270.89C1503.58 1298.62 1495.83 1303.76 1487.64 1323.58Z" fill="white"/>
<path fill-rule="evenodd" clip-rule="evenodd" d="M1513.89 408.829C1549.66 385.374 1582.61 302.639 1548.24 231.557C1542.62 219.938 1526.68 188.564 1513.95 182.802C1459.4 241.828 1449.23 317.406 1495.39 384.611C1502.04 394.297 1508.88 400.847 1513.89 408.829V408.829Z" fill="white"/>
<path fill-rule="evenodd" clip-rule="evenodd" d="M1071.95 363.302C1082.63 391.875 1122.07 431.057 1149 444.595C1197.98 469.221 1234.85 459.209 1284.69 446.337C1248.59 356.513 1132.42 328.145 1071.95 363.302V363.302Z" fill="white"/>
<path fill-rule="evenodd" clip-rule="evenodd" d="M1780.23 672.875C1806.68 779.466 1928.6 805.887 1978.98 781.524C1969.01 744.234 1935.8 707.68 1911.17 690.696C1876.27 666.627 1829.6 664.799 1780.23 672.875Z" fill="white"/>
<path fill-rule="evenodd" clip-rule="evenodd" d="M1906.24 646.89C1970.21 706.499 2059.74 697.384 2123.13 643.028C2131.03 636.253 2128.47 640.81 2132.25 632.568C2020.96 544.95 1914.21 625.765 1906.24 646.89V646.89Z" fill="white"/>
<path fill-rule="evenodd" clip-rule="evenodd" d="M1426.02 635.452C1417.85 591.525 1391.23 555.239 1366.56 536.49C1331.24 509.644 1291.11 503.302 1236.32 507.137C1247.12 549.189 1268.36 582.642 1295.36 604.642C1331.01 633.69 1367.96 637.23 1426.02 635.452Z" fill="white"/>
<path fill-rule="evenodd" clip-rule="evenodd" d="M1910.22 445.406C2012.26 484.62 2090.34 433.867 2123.41 363.3C2093.68 343.841 2019.76 349.081 1988.01 364.69C1948.05 384.329 1931.85 408.619 1910.22 445.406V445.406Z" fill="white"/>
<path fill-rule="evenodd" clip-rule="evenodd" d="M1084.21 631.609C1090.09 644.403 1113.61 659.002 1129.28 667.649C1193.43 703.039 1263.09 690.512 1312.04 645.604C1285.8 626.631 1263.72 596.878 1207.52 592.421C1153.5 588.136 1117.56 612.435 1084.21 631.609Z" fill="white"/>
<path fill-rule="evenodd" clip-rule="evenodd" d="M1762.27 449.379C1815.93 452.37 1854.75 448.988 1890.43 421.757C1912.35 405.023 1947.67 359.906 1952.41 320.921C1858.16 317.023 1782.36 351.014 1762.27 449.379Z" fill="white"/>
<path fill-rule="evenodd" clip-rule="evenodd" d="M1777.98 631.489C1827.95 637.243 1874.65 627.986 1905.86 603.402C1929.19 585.023 1961.22 540.144 1967.12 503.29C1913.29 502.878 1874.45 505.212 1837.9 532.647C1818.82 546.966 1777.65 595.354 1777.98 631.489Z" fill="white"/>
<path fill-rule="evenodd" clip-rule="evenodd" d="M1784.31 334.144C1820.39 337.759 1873.48 293.178 1886.01 277.064C1912.69 242.751 1919.4 202.693 1917.71 148.918C1876.35 157.459 1835.59 185.382 1817.12 208.167C1786.94 245.385 1783.25 276.144 1784.31 334.144V334.144Z" fill="white"/>
<path fill-rule="evenodd" clip-rule="evenodd" d="M1608.49 282.94C1630.98 260.947 1656.18 216.282 1655.95 171.369C1655.71 124.5 1629.93 83.8558 1609.42 57C1582.42 72.2304 1537.38 158.728 1573.93 234.718C1578.41 244.05 1583.19 252.301 1588.51 260.218L1602.1 277.983C1609.01 284.718 1603.08 280.009 1608.49 282.94V282.94Z" fill="white"/>
<path fill-rule="evenodd" clip-rule="evenodd" d="M1639.61 560.929C1689.17 574.725 1720.72 587.987 1773.12 565.248C1808.74 549.795 1838.9 516.624 1856.54 486.475C1828.9 466.517 1754.91 468.464 1721.56 482.054C1689.54 495.101 1651.87 531.331 1639.61 560.929V560.929Z" fill="white"/>
<path fill-rule="evenodd" clip-rule="evenodd" d="M1356.86 486.476C1370.11 513.386 1408.26 550.729 1438.71 564.633C1485.8 586.137 1527.73 576.852 1573.61 560.419C1562.18 532.955 1523.12 495.264 1492.55 482.051C1460.28 468.107 1383.63 466.916 1356.86 486.476Z" fill="white"/>
<path fill-rule="evenodd" clip-rule="evenodd" d="M1442.18 449.023C1422.33 361.778 1359.65 314.853 1253.62 321.099C1256.87 359.14 1293.88 405.54 1313.06 420.96C1346.25 447.646 1390.71 454.108 1442.18 449.023Z" fill="white"/>
<path fill-rule="evenodd" clip-rule="evenodd" d="M1711.62 411.402C1735.32 396.901 1761.87 341.451 1761.13 300.229C1760.43 261.164 1733.3 201.447 1711.62 188.027C1689.74 209.013 1664.23 258.017 1663.8 300.326C1663.3 348.58 1688.32 385.436 1711.62 411.402Z" fill="white"/>
<path fill-rule="evenodd" clip-rule="evenodd" d="M1607.87 556.854C1675.41 475.057 1669.63 410.894 1607.99 329.57C1586.51 350.061 1559.31 400.682 1559.19 443.468C1559.05 489.075 1584.26 534.75 1607.87 556.854Z" fill="white"/>
<path fill-rule="evenodd" clip-rule="evenodd" d="M1210.41 783.777C1277.92 787.936 1336.96 793.055 1383.62 725.714C1395.84 708.083 1400.4 691.917 1410.08 673.805C1363.11 661.233 1313.56 667.804 1279.33 690.158C1257.32 704.533 1216.07 749.154 1210.41 783.777V783.777Z" fill="white"/>
<path fill-rule="evenodd" clip-rule="evenodd" d="M1433.93 340.957C1435.26 287.515 1431.41 247.62 1402.31 214.332C1383.17 192.426 1343 161.851 1302.04 156.383C1302.34 210.239 1305.58 247.108 1333.42 283.045C1351.43 306.302 1391.09 334.992 1433.93 340.957Z" fill="white"/>
</svg>
