<svg width="2294" height="685" viewBox="0 0 2294 685" fill="none" xmlns="http://www.w3.org/2000/svg">
<path fill-rule="evenodd" clip-rule="evenodd" d="M7 132H186.476L488.606 419.177V132H611.248V553.79H451.214L7 132ZM2286.41 553.79H2081.5L1828.75 312.98V553.79H1706.09V132H1842.2L2286.41 553.79ZM1018.07 254.642V132H659.12V254.642H1018.07ZM1018.07 404.197V281.567H659.12V404.197H1018.07ZM1018.07 553.79V431.135H659.12V553.79H1018.07V553.79ZM1045 132V254.642H1137.73V553.79H1255.9V254.642H1348.61V132H1045ZM1375.53 132V254.642H1468.28V553.79H1586.42V254.642H1679.17V132H1375.53V132Z" fill="white"/>
</svg>
