<svg width="3142" height="1380" viewBox="0 0 3142 1380" fill="none" xmlns="http://www.w3.org/2000/svg">
<path fill-rule="evenodd" clip-rule="evenodd" d="M1002 121H2140V1259H1002V121Z" fill="white"/>
<path fill-rule="evenodd" clip-rule="evenodd" d="M2123.27 1241.94V138.05H1018.73V1241.94H2123.27V1241.94Z" fill="white"/>
<path fill-rule="evenodd" clip-rule="evenodd" d="M1812.03 423.353H1834.8C1856.94 422.722 1866.42 442.966 1866.42 458.782V696.01C1867.06 713.09 1856.94 728.906 1837.32 728.906H1812.02V423.353H1812.03ZM1835.44 414.497H1744.34V423.353H1768.37V956.647H1744.34V966.134H1846.81V956.647H1812.02V739.657H1842.38C1885.41 739.657 1910.07 716.886 1910.07 685.891V472.703C1910.08 441.702 1889.2 414.497 1835.44 414.497V414.497ZM1353.39 421.458C1353.39 430.314 1348.33 429.682 1344.53 426.518C1329.35 416.398 1311.64 408.806 1295.19 408.806C1268.62 408.806 1231.3 422.09 1230.66 477.757V886.421C1231.3 957.91 1265.46 971.194 1298.98 971.194C1325.55 971.814 1338.21 957.91 1348.33 952.851C1354.02 950.95 1360.35 956.009 1360.35 966.766H1371.1V706.761H1393.24V697.905H1300.88V706.761H1327.45V930.08C1327.45 948.423 1315.43 962.344 1299.61 962.344C1284.44 962.344 1273.05 947.791 1273.05 930.08V461.315C1273.05 448.657 1275.58 418.925 1295.19 418.925C1333.14 418.925 1353.39 530.266 1353.39 587.834H1364.14V413.866H1353.39V421.458ZM1521.03 729.532L1547.59 491.047L1574.8 729.532H1521.03ZM1576.06 739.025L1600.73 956.647H1576.69V966.134H1667.79V956.647H1643.76L1583.02 413.866H1544.43L1487.5 926.283C1484.33 944.615 1483.07 956.009 1456.5 956.647V966.134H1524.82V956.647C1505.21 956.647 1496.35 943.995 1498.26 931.337L1519.76 739.025H1576.06Z" fill="black"/>
</svg>
