<svg width="3142" height="1380" viewBox="0 0 3142 1380" fill="none" xmlns="http://www.w3.org/2000/svg">
<path d="M435.31 685.291C436.59 686.875 437.421 688.773 437.716 690.788C438.01 692.803 437.758 694.86 436.986 696.744V1223.77C436.868 1228.08 435.104 1232.18 432.057 1235.23C429.01 1238.28 424.91 1240.04 420.602 1240.16H374.059C369.753 1240.06 365.651 1238.3 362.613 1235.25C359.576 1232.19 357.84 1228.08 357.769 1223.77V1007.75C357.747 1005.55 357.244 1003.39 356.295 1001.41C355.346 999.43 353.975 997.683 352.277 996.293C349.044 993.185 344.752 991.421 340.269 991.358H284.417C280.297 991.581 276.41 993.342 273.525 996.293C271.84 997.688 270.482 999.437 269.549 1001.42C268.616 1003.4 268.13 1005.56 268.126 1007.75V1223.77C268.009 1228.08 266.245 1232.18 263.198 1235.23C260.15 1238.28 256.051 1240.04 251.743 1240.16H201.383C197.263 1239.94 193.377 1238.17 190.492 1235.22C188.794 1233.83 187.422 1232.09 186.473 1230.11C185.524 1228.13 185.021 1225.97 185 1223.77V696.744C185.144 694.654 185.704 692.614 186.648 690.743C187.591 688.872 188.898 687.209 190.492 685.85C191.842 684.238 193.502 682.913 195.372 681.953C197.243 680.994 199.287 680.419 201.383 680.263H251.557C253.751 680.284 255.914 680.788 257.892 681.737C259.871 682.686 261.617 684.058 263.007 685.757C265.957 688.642 267.717 692.53 267.94 696.651V894.426C268.068 896.51 268.611 898.548 269.538 900.419C270.465 902.29 271.758 903.957 273.339 905.32C274.698 906.915 276.361 908.222 278.231 909.166C280.101 910.109 282.141 910.67 284.23 910.814H340.082C342.352 910.76 344.586 910.244 346.65 909.3C348.715 908.356 350.565 907.002 352.091 905.32C353.651 903.945 354.923 902.274 355.834 900.404C356.745 898.534 357.276 896.502 357.397 894.426V696.744C357.485 692.684 359.077 688.802 361.865 685.85C363.285 684.086 365.087 682.666 367.134 681.699C369.182 680.731 371.422 680.24 373.687 680.263H423.86C426.032 680.123 428.205 680.507 430.198 681.382C432.19 682.257 433.943 683.597 435.31 685.291V685.291ZM770.422 1207.38C792.224 1178.51 803.757 1143.18 803.189 1107.01V819.003C804.87 782.218 793.678 745.998 771.539 716.577C759.585 702.724 744.622 691.788 727.794 684.606C710.967 677.425 692.72 674.187 674.45 675.142C656.292 674.179 638.164 677.514 621.537 684.875C604.91 692.236 590.253 703.417 578.757 717.509C557.339 746.893 546.511 782.67 548.038 819.003V1104.86C546.357 1141.65 557.549 1177.87 579.687 1207.29C591.36 1221.19 606.11 1232.19 622.769 1239.39C639.428 1246.6 657.537 1249.83 675.66 1248.82C693.648 1249.8 711.618 1246.57 728.135 1239.38C744.653 1232.18 759.261 1221.23 770.794 1207.38H770.422ZM716.99 1101.6C718.221 1117.75 714.796 1133.91 707.123 1148.16C703.031 1153.2 697.745 1157.13 691.746 1159.6C685.747 1162.08 679.225 1163.01 672.774 1162.32C666.323 1163.01 659.801 1162.08 653.802 1159.6C647.803 1157.13 642.517 1153.2 638.425 1148.16C630.833 1133.88 627.444 1117.74 628.651 1101.6V819.003C627.47 802.874 630.857 786.738 638.425 772.446C642.416 767.261 647.669 763.186 653.682 760.61C659.696 758.035 666.269 757.044 672.774 757.734C679.279 757.044 685.853 758.035 691.866 760.61C697.88 763.186 703.133 767.261 707.123 772.446C714.771 786.711 718.194 802.861 716.99 819.003V1101.6ZM925.132 1235.22C923.571 1233.82 922.476 1231.97 921.994 1229.92C921.512 1227.87 921.665 1225.73 922.433 1223.77V696.744C922.619 692.614 924.385 688.713 927.366 685.85C928.767 684.11 930.539 682.706 932.552 681.739C934.565 680.773 936.769 680.268 939.002 680.263H989.176C991.37 680.284 993.533 680.788 995.511 681.737C997.49 682.686 999.235 684.058 1000.63 685.757C1003.55 688.651 1005.28 692.541 1005.47 696.651V1140.81C1005.51 1143 1006.02 1145.15 1006.97 1147.13C1007.91 1149.11 1009.27 1150.86 1010.96 1152.26C1013.85 1155.18 1017.74 1156.91 1021.85 1157.1H1118.94C1121.21 1157.16 1123.44 1157.67 1125.51 1158.61C1127.57 1159.56 1129.42 1160.91 1130.95 1162.59C1132.54 1163.95 1133.85 1165.62 1134.79 1167.49C1135.73 1169.36 1136.29 1171.4 1136.44 1173.49V1223.68C1136.42 1225.87 1135.91 1228.04 1134.97 1230.01C1134.02 1231.99 1132.64 1233.74 1130.95 1235.13C1127.71 1238.24 1123.42 1240 1118.94 1240.07H936.582C934.445 1240.08 932.327 1239.66 930.359 1238.82C928.39 1237.99 926.612 1236.77 925.132 1235.22V1235.22ZM1034.79 455.578C1065.74 458.575 1096.92 458.575 1127.87 455.578C1143.29 453.858 1158.36 449.808 1172.56 443.567C1186.83 437.975 1200.7 431.411 1214.07 423.919L1232.69 414.608L1338.53 481.185C1334.58 483.94 1330.37 486.31 1325.96 488.261C1321.9 489.975 1318.06 492.162 1314.51 494.779C1309.74 498.054 1304.62 500.802 1299.25 502.973C1291.72 510.54 1285.13 518.98 1279.61 528.114L1276.91 531.28C1276.91 532.677 1275.14 534.539 1271.51 536.681C1268.92 538.526 1265.91 539.68 1262.76 540.033L1256.24 544.316C1244.61 553.069 1238.74 558.935 1238.74 561.822C1237.31 568.34 1237.87 572.716 1240.42 574.951C1242.67 576.114 1245.14 576.805 1247.66 576.981C1250.19 577.157 1252.73 576.815 1255.12 575.975C1265.3 572.375 1277.31 568.743 1291.15 565.081L1307.53 561.822L1363.38 578.21L1380.88 582.586C1396.27 585.582 1411.81 587.758 1427.43 589.104C1450.99 591.248 1474.7 591.248 1498.27 589.104C1504.16 589.104 1536.53 582.555 1595.36 569.457L1681.55 550.834C1746.28 569.022 1782.27 579.917 1789.54 583.517C1802.5 586.555 1816.03 586.203 1828.82 582.493C1844.95 580.074 1860.64 575.273 1875.36 568.247C1891.87 557.268 1906.27 543.424 1917.9 527.369C1929.55 515.82 1938.48 501.826 1944.06 486.399C1944.06 480.626 1906.82 473.363 1832.35 464.61L1811.6 461.351C1794.9 460.606 1772 459.862 1742.9 459.117H1702.5C1714.23 430.81 1727.69 400.268 1742.9 367.492C1762.43 320.977 1788.1 277.29 1819.23 237.598C1845.37 217.553 1878.14 208.199 1910.92 211.433C1939.4 210.502 1985.17 212.24 2048.22 216.647L2121.2 221.023C2138.37 222.259 2155.63 221.131 2172.49 217.671C2192.79 211.898 2192.04 204.263 2170.26 194.765C2142.11 183.828 2113.29 174.715 2083.97 167.483C2062.41 161.517 2041.03 154.966 2019.83 147.836C2000.81 142.978 1981.51 139.339 1962.02 136.941C1942.03 134.954 1922.01 133.154 1901.98 131.541H1895.47C1870.6 130.223 1845.66 131.315 1821 134.8L1793.07 136.941C1772.03 138.431 1727.32 171.549 1658.93 236.294C1599.23 293.032 1537.8 357.777 1474.62 430.531C1426.22 393.813 1375.95 359.625 1324.01 328.105C1308.39 318.745 1292.39 310.016 1276.07 301.94C1265.26 297.231 1253.49 295.157 1241.72 295.887C1229.41 298.136 1217.92 303.596 1208.39 311.717C1169.88 334.509 1130.2 355.271 1089.52 373.917C1042.24 397.196 1009.87 413.584 992.434 423.081C964.073 438.352 952.81 446.701 958.643 448.129C983.832 452.294 1009.27 454.783 1034.79 455.578V455.578ZM1422.03 1235.22C1421.01 1236.63 1419.7 1237.79 1418.19 1238.64C1416.68 1239.49 1415.01 1240.01 1413.28 1240.16H1230.08C1227.94 1240.16 1225.82 1239.72 1223.85 1238.87C1221.88 1238.03 1220.11 1236.78 1218.63 1235.22C1217.06 1233.77 1215.8 1231.99 1214.95 1230.02C1214.1 1228.05 1213.68 1225.92 1213.7 1223.77V696.744C1213.79 692.666 1215.42 688.773 1218.26 685.85C1219.65 684.151 1221.4 682.779 1223.38 681.83C1225.35 680.881 1227.52 680.378 1229.71 680.356H1279.89C1284.01 680.96 1287.82 682.883 1290.76 685.837C1293.7 688.792 1295.6 692.618 1296.18 696.744V1140.9C1296.19 1143.04 1296.63 1145.16 1297.48 1147.13C1298.33 1149.09 1299.56 1150.87 1301.11 1152.35C1302.59 1153.9 1304.36 1155.13 1306.33 1155.96C1308.3 1156.79 1310.42 1157.21 1312.56 1157.19H1410.02C1412.21 1157.22 1414.38 1157.72 1416.36 1158.67C1418.33 1159.62 1420.08 1160.99 1421.47 1162.69C1424.42 1165.57 1426.18 1169.46 1426.4 1173.58V1223.77C1426.44 1228 1424.88 1232.1 1422.03 1235.22V1235.22ZM1602.06 1235.22C1598.83 1238.33 1594.53 1240.1 1590.05 1240.16H1540.9C1536.45 1240.08 1532.19 1238.32 1528.99 1235.22C1527.27 1233.85 1525.89 1232.1 1524.94 1230.12C1523.99 1228.14 1523.5 1225.97 1523.49 1223.77V696.744C1523.62 694.649 1524.17 692.602 1525.11 690.728C1526.06 688.855 1527.37 687.194 1528.99 685.85C1530.5 684.175 1532.33 682.825 1534.38 681.88C1536.43 680.936 1538.65 680.418 1540.9 680.356H1590.05C1592.32 680.41 1594.55 680.925 1596.62 681.87C1598.68 682.814 1600.53 684.168 1602.06 685.85C1603.64 687.213 1604.93 688.88 1605.86 690.751C1606.79 692.622 1607.33 694.66 1607.46 696.744V1223.77C1607.45 1225.96 1606.97 1228.12 1606.03 1230.1C1605.1 1232.08 1603.74 1233.83 1602.06 1235.22V1235.22ZM1819.14 870.216C1834.23 888.829 1850.62 906.347 1868.19 922.639C1884.35 937.746 1899.64 953.757 1913.99 970.593C1929.33 988.042 1942.17 1007.53 1952.16 1028.51C1962.32 1051.53 1967.52 1076.44 1967.42 1101.6C1970.07 1140.49 1957.37 1178.87 1932.05 1208.5C1919.63 1221.06 1904.71 1230.87 1888.26 1237.29C1871.81 1243.71 1854.18 1246.59 1836.54 1245.75C1820.96 1245.99 1805.51 1242.91 1791.22 1236.69C1776.93 1230.48 1764.14 1221.28 1753.7 1209.71C1732.59 1183.77 1719.31 1152.34 1715.44 1119.11C1713.91 1113.38 1714.11 1107.32 1716 1101.7C1716.63 1100.15 1717.59 1098.76 1718.81 1097.61C1720.03 1096.47 1721.48 1095.61 1723.07 1095.09L1769.61 1085.78C1772.03 1085.12 1774.57 1085.13 1776.98 1085.8C1779.39 1086.47 1781.57 1087.78 1783.3 1089.59C1787.53 1092.81 1790.76 1097.17 1792.61 1102.16L1794.84 1118.46C1797.26 1129.06 1801.72 1139.08 1807.97 1147.98C1812.16 1152.96 1817.43 1156.92 1823.38 1159.56C1829.33 1162.21 1835.81 1163.47 1842.32 1163.25C1848.59 1163.52 1854.85 1162.55 1860.75 1160.4C1866.64 1158.24 1872.05 1154.93 1876.66 1150.68C1881.27 1145.69 1884.8 1139.81 1887.04 1133.4C1889.28 1127 1890.19 1120.2 1889.7 1113.43C1889.12 1090.59 1881.51 1068.48 1867.91 1050.11C1852.28 1030.95 1835.52 1012.73 1817.74 995.548C1801.47 981.045 1786.18 965.493 1771.94 948.991C1756.85 931.582 1744.31 912.112 1734.71 891.167C1725.1 866.871 1720.29 840.94 1720.56 814.813C1718.16 777.68 1730.05 741.037 1753.79 712.387C1766.07 700.034 1780.84 690.439 1797.11 684.242C1813.39 678.044 1830.8 675.386 1848.18 676.445C1868.19 676.021 1887.8 682.134 1904.03 693.858C1917.98 704.381 1929.51 717.782 1937.82 733.152C1943.97 745.687 1948.72 758.866 1951.97 772.446L1956.35 789.858C1957.77 794.811 1957.2 800.124 1954.76 804.664C1954.04 806.905 1952.66 808.876 1950.8 810.321C1948.94 811.765 1946.69 812.617 1944.34 812.765L1900.77 818.258C1897.02 818.436 1893.33 817.282 1890.35 814.999C1887.96 813.034 1886.27 810.359 1885.51 807.364L1884.39 804.105C1884.14 797.131 1882.45 790.285 1879.44 783.99C1876.43 777.695 1872.16 772.086 1866.89 767.511C1862.49 763.561 1857.3 760.596 1851.67 758.814C1846.03 757.031 1840.08 756.473 1834.22 757.175C1810.2 759.286 1798.19 778.561 1798.19 814.999C1799.16 835.157 1806.49 854.488 1819.14 870.216V870.216ZM2270.14 685.85C2271.5 687.274 2272.42 689.055 2272.8 690.985C2273.18 692.915 2273 694.913 2272.28 696.744V746.933C2272.17 751.242 2270.4 755.343 2267.35 758.391C2264.31 761.439 2260.21 763.203 2255.9 763.321H2209.36C2207.17 763.325 2205.01 763.81 2203.03 764.744C2201.05 765.677 2199.3 767.035 2197.91 768.721C2194.81 771.96 2193.04 776.25 2192.97 780.733V1223.77C2192.97 1225.96 2192.48 1228.12 2191.55 1230.1C2190.62 1232.08 2189.26 1233.83 2187.57 1235.22C2184.34 1238.33 2180.05 1240.1 2175.57 1240.16H2126.51C2122.03 1240.1 2117.73 1238.33 2114.5 1235.22C2112.8 1233.83 2111.43 1232.09 2110.48 1230.11C2109.53 1228.13 2109.03 1225.97 2109.01 1223.77V780.733C2108.97 776.243 2107.21 771.939 2104.07 768.721C2102.68 767.035 2100.93 765.677 2098.95 764.744C2096.97 763.81 2094.81 763.325 2092.63 763.321H2046.08C2043.94 763.306 2041.82 762.862 2039.86 762.014C2037.89 761.166 2036.11 759.933 2034.63 758.386C2033.09 756.909 2031.86 755.131 2031.03 753.161C2030.19 751.191 2029.77 749.071 2029.79 746.933V696.744C2029.98 692.634 2031.71 688.745 2034.63 685.85C2037.17 682.705 2040.85 680.696 2044.87 680.263H2258.97C2261.14 680.241 2263.29 680.736 2265.23 681.707C2267.17 682.679 2268.86 684.099 2270.14 685.85V685.85ZM2591.94 1176.84V1227.03C2591.63 1231.27 2589.66 1235.22 2586.45 1238.02C2584.92 1239.69 2583.07 1241.03 2581 1241.95C2578.94 1242.88 2576.71 1243.38 2574.44 1243.42H2374.4C2372.3 1243.3 2370.24 1242.77 2368.36 1241.84C2366.47 1240.91 2364.79 1239.61 2363.41 1238.02C2360.23 1235.21 2358.29 1231.26 2358.02 1227.03V700.003C2358.02 697.815 2358.5 695.654 2359.44 693.674C2360.37 691.695 2361.73 689.945 2363.41 688.55C2366.33 685.585 2370.25 683.824 2374.4 683.615H2563.09C2567.39 683.733 2571.49 685.497 2574.54 688.545C2577.59 691.593 2579.35 695.694 2579.47 700.003V750.192C2579.25 754.313 2577.49 758.201 2574.54 761.086C2573.14 762.784 2571.4 764.157 2569.42 765.106C2567.44 766.055 2565.28 766.558 2563.09 766.58H2458.36C2453.88 766.643 2449.59 768.407 2446.35 771.515C2444.69 772.875 2443.34 774.577 2442.39 776.504C2441.45 778.432 2440.92 780.541 2440.86 782.689V894.426C2441.01 896.516 2441.57 898.556 2442.51 900.427C2443.45 902.298 2444.76 903.961 2446.35 905.32C2447.88 907.002 2449.73 908.356 2451.79 909.3C2453.86 910.244 2456.09 910.76 2458.36 910.814H2532.83C2535.02 910.818 2537.18 911.303 2539.16 912.237C2541.14 913.17 2542.89 914.528 2544.28 916.214C2547.22 919.149 2548.97 923.059 2549.22 927.202V977.391C2549.1 981.7 2547.33 985.8 2544.29 988.849C2541.24 991.897 2537.14 993.661 2532.83 993.779H2458.36C2456.1 993.816 2453.87 994.314 2451.8 995.242C2449.74 996.171 2447.88 997.51 2446.35 999.179C2444.76 1000.54 2443.45 1002.2 2442.51 1004.07C2441.57 1005.94 2441.01 1007.98 2440.86 1010.07V1141.09C2440.9 1143.28 2441.41 1145.43 2442.36 1147.41C2443.31 1149.39 2444.67 1151.14 2446.35 1152.54C2449.59 1155.63 2453.89 1157.36 2458.36 1157.38H2573.98C2581.98 1157.19 2587.75 1163.81 2591.48 1176.84H2591.94ZM2887.49 985.864C2904.9 976.533 2919 962.065 2927.89 944.428C2941.47 913.916 2947.84 880.683 2946.51 847.31C2948.04 823.281 2944.29 799.209 2935.53 776.785C2926.76 754.36 2913.19 734.128 2895.78 717.509C2865.67 692.08 2827.17 678.799 2787.8 680.263H2704.86C2702.59 680.317 2700.35 680.832 2698.29 681.777C2696.22 682.721 2694.37 684.075 2692.85 685.757C2691.27 687.12 2689.97 688.787 2689.05 690.658C2688.12 692.529 2687.58 694.567 2687.45 696.651V1223.68C2687.45 1225.87 2687.94 1228.03 2688.87 1230.01C2689.8 1231.99 2691.16 1233.74 2692.85 1235.13C2696.08 1238.24 2700.37 1240 2704.86 1240.07H2754.19C2758.68 1240 2762.97 1238.24 2766.2 1235.13C2767.89 1233.74 2769.24 1231.99 2770.18 1230.01C2771.11 1228.03 2771.6 1225.87 2771.6 1223.68V1027.39C2771.66 1022.91 2773.43 1018.61 2776.53 1015.38C2777.92 1013.68 2779.67 1012.31 2781.65 1011.36C2783.63 1010.41 2785.79 1009.91 2787.98 1009.89H2802.13C2805.67 1010.15 2808.98 1011.71 2811.44 1014.26C2814.53 1016.96 2816.95 1020.34 2818.52 1024.13L2874.37 1223.77C2875.49 1228.38 2877.95 1232.56 2881.44 1235.78C2884.95 1238.74 2889.42 1240.3 2894.01 1240.16H2946.32C2948.25 1240.09 2950.12 1239.57 2951.8 1238.63C2953.48 1237.69 2954.91 1236.36 2955.98 1234.76C2957.04 1233.16 2957.71 1231.33 2957.92 1229.42C2958.14 1227.51 2957.9 1225.57 2957.21 1223.77L2887.49 985.864ZM2851.56 897.499C2846.27 907.126 2838.78 915.36 2829.69 921.522C2825.42 924.351 2820.59 926.224 2815.54 927.016C2805.71 930.442 2795.41 932.265 2785 932.416C2783.18 932.402 2781.39 931.956 2779.77 931.115C2778.15 930.273 2776.75 929.06 2775.7 927.574C2773.17 924.261 2771.82 920.196 2771.88 916.028V777.474C2772 773.165 2773.76 769.064 2776.81 766.016C2779.85 762.968 2783.95 761.204 2788.26 761.086H2802.41C2811.24 760.143 2820.16 761.343 2828.43 764.585C2836.69 767.827 2844.05 773.015 2849.89 779.709C2860.97 800.416 2865.72 823.922 2863.57 847.31C2863.96 864.853 2859.65 882.18 2851.1 897.499H2851.56Z" fill="white"/>
</svg>
