<svg width="488" height="411" viewBox="0 0 488 411" fill="none" xmlns="http://www.w3.org/2000/svg">
<path d="M486.865 143.859C462.253 84.0493 331.113 3.96127 325.543 0.581275C324.632 0.0282749 323.535 -0.137723 322.504 0.119277C321.469 0.376277 320.58 1.03528 320.034 1.95028C309.268 19.9713 281.18 31.6173 248.477 31.6173C215.772 31.6173 187.683 19.9713 176.915 1.94927C175.801 0.0852749 173.402 -0.551722 171.511 0.520278C165.541 3.90028 25.0146 83.9863 0.302576 143.855C-0.204424 145.084 -0.0684236 146.485 0.666576 147.593L45.8186 215.638C46.4926 216.654 47.5936 217.307 48.8086 217.411C50.0236 217.515 51.2196 217.06 52.0576 216.175C52.4396 215.771 86.5736 179.729 107.252 160.765L106.493 406.58C106.49 407.643 106.91 408.664 107.66 409.417C108.41 410.17 109.43 410.593 110.493 410.593H376.673C376.681 410.593 376.688 410.594 376.694 410.593C378.903 410.593 380.694 408.802 380.694 406.593C380.694 406.453 380.686 406.316 380.673 406.18L379.989 160.763C400.667 179.726 434.802 215.771 435.184 216.175C436.023 217.061 437.217 217.513 438.435 217.411C439.65 217.306 440.751 216.651 441.425 215.635L486.501 147.59C487.233 146.484 487.37 145.086 486.865 143.859Z" fill="white"/>
</svg>
