<svg id="logo-studioE" xmlns="http://www.w3.org/2000/svg" width="286.852" height="76.724" viewBox="0 0 286.852 76.724">
  <path id="Path_35" data-name="Path 35" d="M214.066,21.127l3.471-11.944h.053l3.46,11.944Zm11.031,14.1h10.168L224.777.629H210.341l-10.486,34.6h10.164l1.856-6.4h11.374l1.848,6.4ZM44.167,17.922c0-1.9.05-3.021.086-3.854.265-5.34,2.375-5.965,6.473-5.965s6.211.625,6.479,5.965c.036.835.085,1.96.085,3.854S57.241,20.95,57.2,21.8c-.269,5.327-2.378,5.956-6.479,5.956s-6.208-.628-6.473-5.956c-.036-.846-.086-1.965-.086-3.874M50.726,35.85c10.442,0,15.478-1.833,16.19-11.257.173-2.24.206-4.541.21-6.671s-.037-4.415-.21-6.666C66.2,1.843,61.168,0,50.726,0S35.253,1.843,34.541,11.256c-.171,2.251-.2,4.546-.2,6.666s.032,4.431.2,6.671c.712,9.424,5.75,11.257,16.185,11.257M0,.63V9.256H10.341V35.229H20.694V9.256H31.035V.63Zm148.938,0h9.821v34.6h-9.821ZM119.256,13.261V.63h-9.772v34.6h9.772V21.893H130.6V35.229h9.754V.63H130.6V13.261Zm57.967-4.719h6.765a2.533,2.533,0,0,1,2.866,2.849,2.61,2.61,0,0,1-2.866,2.793h-6.765Zm0,12.478h6.765c2.743,0,3.312,1.2,3.312,3.148s-1.067,3.135-3.312,3.135h-6.765Zm13.832-3.873c4.35-1.11,5.624-3.719,5.624-7.473,0-7.6-4.783-9.045-11.588-9.045H167.47v34.6h18.5c8.514,0,11.378-3.669,11.378-9.316,0-3.932-.9-7.406-6.294-8.766M72.814,23.874H82.12c.009,1.688.229,2.808,1.04,3.413.925.7,1.753.941,4.5.941,2.648,0,5.544,0,5.544-3.271,0-2.571-1.616-3.146-4.61-3.31-7.415-.393-10.1-.608-12.862-2.662-1.879-1.4-2.853-4.114-2.853-7.8,0-6.262,2.184-8.457,5.336-9.99,3.253-1.577,16.02-1.577,19.45,0,4.326,1.995,4.456,6.3,4.456,10.3H92.836c-.018-2.034-.479-2.613-.854-3-.964-.85-2.338-1.029-4.318-1.029-2.4,0-5.172.107-5.172,3.021,0,2.217.949,3.155,3.481,3.312,3.467.224,10.294.438,12.729,1.875,3.421,2.021,4.3,4.755,4.3,9.218,0,6.442-2.3,8.326-5.5,9.742-3.7,1.643-16.076,1.643-20.094-.128-4.5-1.956-4.587-5.871-4.587-10.631" fill="#fff"/>
  <path id="Path_36" data-name="Path 36" d="M243.9,52.49h6.5l9.8,9.238-9.8,9.28h-6.5l9.8-9.28Z" fill="#fff"/>
  <path id="Path_37" data-name="Path 37" d="M257.228,52.49h6.5l9.791,9.238-9.8,9.28h-6.5l9.8-9.28Z" fill="#fff"/>
  <path id="Path_38" data-name="Path 38" d="M270.559,52.49h6.5l9.8,9.238-9.8,9.28h-6.505l9.81-9.28ZM.876,52.581H5.031V67.51H12.36v3.5H.876Zm21.981,10.2a2.426,2.426,0,0,0-2.322-2.712,2.756,2.756,0,0,0-2.6,2.712h4.922Zm-4.894,2.841c.138,1.751,1.831,2.569,3.772,2.569a11.122,11.122,0,0,0,3.691-.572l.545,2.814a12.658,12.658,0,0,1-4.838.845C16.6,71.279,14,68.659,14,64.448c0-3.4,2.129-7.138,6.752-7.138,4.32,0,5.96,3.364,5.96,6.672a10.558,10.558,0,0,1-.136,1.668l-8.61-.027Zm18.345-.929c-2.188,0-3.881.517-3.881,2.1a1.491,1.491,0,0,0,1.64,1.586,2.3,2.3,0,0,0,2.161-1.53,2.943,2.943,0,0,0,.081-.708Zm4.019,3.087a17.148,17.148,0,0,0,.22,3.228H36.8l-.243-1.339h-.083a4.82,4.82,0,0,1-3.827,1.639,4.1,4.1,0,0,1-4.32-4.1c0-3.474,3.117-5.112,7.847-5.112V61.93c0-.711-.381-1.72-2.432-1.72a7.841,7.841,0,0,0-3.691.982l-.767-2.653a10.994,10.994,0,0,1,5.193-1.2c4.458,0,5.853,2.625,5.853,5.771v4.673ZM52.44,63.327a3.479,3.479,0,0,0-.057-.767,2.467,2.467,0,0,0-2.431-2.021c-1.916,0-2.872,1.694-2.872,3.8C47.08,66.579,48.2,68,49.925,68a2.457,2.457,0,0,0,2.433-1.993,4.877,4.877,0,0,0,.082-.93V63.327ZM56.593,51.6V67.018c0,1.528.058,3.089.111,3.989H53.013l-.163-1.939h-.082a4.667,4.667,0,0,1-4.183,2.239c-3.173,0-5.715-2.705-5.715-6.859-.026-4.484,2.789-7.109,5.989-7.109a4.1,4.1,0,0,1,3.524,1.5h.057V51.6h4.153Zm3.337,6.042h4.157V71.007H59.93Zm2.051-1.749a2.37,2.37,0,1,1,.026,0Zm5.439,6.016c0-1.67-.055-3.064-.108-4.267h3.61L71.11,59.5h.082a4.8,4.8,0,0,1,4.128-2.159c2.733,0,4.786,1.832,4.786,5.771v7.9H75.949V63.6c0-1.727-.6-2.9-2.1-2.9a2.285,2.285,0,0,0-2.132,1.56,3.03,3.03,0,0,0-.137,1.039v7.71H67.42v-9.1Zm24.524,1.175a3.662,3.662,0,0,0-.081-.765,2.278,2.278,0,0,0-2.242-1.834c-1.531,0-2.731,1.367-2.731,3.8,0,2,.983,3.553,2.705,3.553a2.275,2.275,0,0,0,2.216-1.671,3.9,3.9,0,0,0,.135-1.119l0-1.967ZM96.1,69.068c0,2.567-.52,4.673-2.052,6.017a8.131,8.131,0,0,1-5.412,1.639,10.689,10.689,0,0,1-4.812-1.012l.82-3.174a8.126,8.126,0,0,0,3.883,1.013A3.18,3.18,0,0,0,92,70.026v-.848h-.058A4.322,4.322,0,0,1,88.335,70.9c-3.308,0-5.658-2.681-5.658-6.509,0-4.321,2.763-7.054,6.07-7.054a4.019,4.019,0,0,1,3.661,1.888h.054l.141-1.586h3.606q-.119,1.993-.108,3.991v7.436Zm9.2-16.487h4.154V71.008H105.3Zm7.626,9.325c0-1.67-.054-3.064-.107-4.267h3.607l.192,1.857h.079a4.808,4.808,0,0,1,4.13-2.159c2.733,0,4.784,1.832,4.784,5.771v7.9h-4.155V63.6c0-1.727-.6-2.9-2.1-2.9a2.286,2.286,0,0,0-2.132,1.56,2.984,2.984,0,0,0-.136,1.039v7.71h-4.158v-9.1Zm16.021,0c0-1.67-.052-3.064-.107-4.267h3.609l.191,1.857h.08a4.8,4.8,0,0,1,4.128-2.159c2.735,0,4.786,1.832,4.786,5.771v7.9h-4.155V63.6c0-1.727-.6-2.9-2.1-2.9a2.288,2.288,0,0,0-2.134,1.56A3.008,3.008,0,0,0,133.1,63.3v7.71h-4.158v-9.1ZM151.2,68.33c1.644,0,2.655-1.614,2.655-4.019,0-1.971-.767-3.991-2.655-3.991-1.969,0-2.73,2.021-2.73,4.02,0,2.269.956,3.99,2.7,3.99Zm-.082,2.977a6.547,6.547,0,0,1-6.915-6.891c0-4.316,2.843-7.079,7.161-7.079a6.5,6.5,0,0,1,6.809,6.863,6.691,6.691,0,0,1-7.025,7.105l-.03,0Zm12.716-13.668,1.8,6.2c.33,1.122.546,2.191.767,3.258h.084q.315-1.64.734-3.258l1.724-6.2h4.371l-4.973,13.368h-4.158l-4.864-13.368h4.511Zm18.507,7.055c-2.188,0-3.882.517-3.882,2.1a1.491,1.491,0,0,0,1.641,1.586,2.3,2.3,0,0,0,2.16-1.53,3.047,3.047,0,0,0,.081-.708Zm4.019,3.087a17.419,17.419,0,0,0,.219,3.228h-3.744l-.246-1.339H182.5a4.811,4.811,0,0,1-3.825,1.639,4.1,4.1,0,0,1-4.317-4.1c0-3.474,3.113-5.112,7.846-5.112V61.93c0-.711-.385-1.72-2.435-1.72a7.83,7.83,0,0,0-3.69.982l-.768-2.653a11.019,11.019,0,0,1,5.2-1.2c4.455,0,5.851,2.625,5.851,5.771v4.673ZM194.315,54V57.64h2.979V60.7h-2.979v4.87c0,1.614.409,2.348,1.644,2.348a5.152,5.152,0,0,0,1.227-.107l.028,3.144a8.7,8.7,0,0,1-2.681.354,4.452,4.452,0,0,1-3.146-1.146A5.551,5.551,0,0,1,190.24,66.2V60.7h-1.776V57.639h1.776V55.122L194.315,54Zm5.387,3.638h4.151V71.007H199.7Zm2.049-1.749a2.371,2.371,0,1,1,.023,0Zm11.673,12.44c1.639,0,2.65-1.614,2.65-4.019,0-1.971-.763-3.991-2.65-3.991-1.969,0-2.735,2.021-2.735,4.02,0,2.269.956,3.99,2.707,3.99Zm-.085,2.977a6.546,6.546,0,0,1-6.913-6.891c0-4.316,2.842-7.079,7.159-7.079A6.5,6.5,0,0,1,220.4,64.2a6.693,6.693,0,0,1-7.028,7.105l-.03,0Zm9.241-9.4c0-1.67-.058-3.064-.108-4.267h3.606l.193,1.857h.08a4.8,4.8,0,0,1,4.128-2.159c2.731,0,4.785,1.832,4.785,5.771v7.9h-4.155V63.6c0-1.727-.6-2.9-2.1-2.9a2.282,2.282,0,0,0-2.131,1.56,2.981,2.981,0,0,0-.138,1.039v7.71H222.58v-9.1Z" fill="#fff"/>
</svg>
