<svg xmlns="http://www.w3.org/2000/svg" width="187.088" height="73.04" viewBox="0 0 187.088 73.04">
  <g id="logo-studioG" transform="translate(-2.834 -59.858)">
    <path id="Path_43" data-name="Path 43" d="M71.01,85.75a23.309,23.309,0,0,0,2.963.52c.78-1.975,1.56-3.925,2.313-5.9,2.625-6.836,5.172-13.62,7.875-20.507a47.728,47.728,0,0,0-7.875.572A19.26,19.26,0,0,0,71.01,62.02C66.8,64.1,65.084,67.634,63.057,72.651c-.962,7.2,1.352,11.435,7.953,13.1Zm-6.679,20.117c1.663-4.783,3.041-8.915,4.678-13.7.65-.052,1.326-.026,2-.052a6.4,6.4,0,0,0,.676-.052c.416-1.117,1.481-3.535,1.923-4.652H58.222c-.6,1.118-1.065,3.119-1.663,4.236.962,0,2.495.053,3.457.053-1.378,4.184-2.885,8.265-4.289,12.424-.182.571-.39,1.144-.572,1.741h9.176ZM38.859,86.452c2.261.052,4.522.156,6.732.052,3.743-.156,7.251-.962,10.137-3.743a19,19,0,0,0,4.73-8.291c.441-7.642-1.56-11.358-4.73-13.126a15.727,15.727,0,0,0-7.251-1.481c-.962,2.625-1.924,5.276-2.885,7.927q-3.349,9.337-6.733,18.662Z" fill="#fff" fill-rule="evenodd"/>
    <path id="Path_44" data-name="Path 44" d="M55.728,98.537c.1-.285.208-.6.312-.883a11.48,11.48,0,0,0-.312-6.343c-.988-2.417-3.12-3.535-5.614-3.9-1.585,3.951-3.015,8.266-4.522,12.476q-1.046,3.011-2.209,5.979c.78,0,1.507-.026,2.209-.078,5.171-.417,8.316-2.366,10.136-7.253ZM93.571,86.166c2.235,0,4.314.052,6.263.025,6.861-.13,11.879-1.4,14.764-10.682,2.938-10.5-2.547-15.647-10.525-15.647-1.379,3.587-2.809,7.121-4.238,10.656-2.132,5.2-4.263,10.372-6.264,15.648ZM71.01,99.031c-.884,2.287-1.741,4.549-2.625,6.836h15.88c5.3-13.307,10.345-26.355,15.569-39.585.832-2.131,1.689-4.263,2.549-6.42H99.834c-4.6-.026-9.226.078-13.853,0-3.249,8.551-6.472,16.946-9.695,25.394q-2.661,6.879-5.276,13.775ZM45.591,62.124c.312-.754.624-1.507.91-2.261H31.166c-6.082,15.465-12.034,30.54-18.09,46H28.7C34.648,91.234,39.743,76.73,45.591,62.124Zm2.235,25.289q-1.115-.092-2.235-.1c-3.587.025-7.251,1.144-9.877,7.225-2.235,7.719.78,10.708,5.3,11.333,1.585-3.925,3.067-8.344,4.575-12.554q1.061-2.971,2.235-5.9Zm57.154,0c-1.559,3.977-3.4,8.552-5.146,12.892q-1.176,2.872-2.287,5.771a21.124,21.124,0,0,1,2.287-.156c3.172-.078,6.811-.233,10.6-6.758,1.3-8.058-1.039-11.541-5.459-11.749Zm57.7,3.146h3.066c-1.766,4.808-3.039,10.084-4.781,14.918l-.156.391h9.435c1.9-4.86,2.625-10.215,4.549-15.075.779,0,2.65-.026,3.43-.026.6-1.04.832-2.313,1.43-3.353H163.93c-.26,1.039-.989,2.105-1.248,3.145ZM161.1,87.413h-.131c-2.834.078-5.8-.1-8.6,0-1.145,2.938-2,6.212-3.119,9.175h-3.016c-.182,1.04-1.246,3.041-1.4,4.081l1.949.026h.961c-.26.961-.623,2-.961,3.015-.26.728-.494,1.455-.676,2.157h9.668c1.768-5.926,3.406-12.06,5.2-17.986A3.037,3.037,0,0,1,161.1,87.413ZM160.967,60.8h-33.45c-1.455,3.639-2.988,7.278-4.471,10.916C121.278,76,119.538,80.24,118,84.372H180.59c2.859-7.719,6.445-15.854,9.332-23.574H160.967ZM148.725,87.413H138.692c-1.715,5.042-3.535,10.656-5.275,15.881-.287.884-.572,1.716-.857,2.573H142.2c1.377-3.977,3.041-8.551,4.574-12.918.675-1.923,1.351-3.794,1.949-5.536ZM71.01,109.766H11.776L2.834,132.9H68.255l2.755-6.732,5.277-13,1.377-3.4H71.01ZM133.416,97.29c1.143-3.249,1.143-5.744,0-7.434q-1.482-2.145-5.537-2.573c-1.352,3.873-3.17,7.954-4.834,11.956q-1.349,3.174-2.521,6.42c.832.1,1.689.155,2.521.182,4.133.026,8.188-1.455,10.318-8.421.028-.026.028-.078.053-.13ZM102.1,87.413c-.727,0-1.508.026-2.262.026-2.287-.026-4.625-.1-6.809-.026-4.262,10.839-8.525,22.9-12.761,33.763,2.859.156,5.978-.052,8.837.1,3.586-9.149,7.173-18.688,10.733-27.993C100.588,91.312,101.342,89.363,102.1,87.413Zm23.445.13a16.4,16.4,0,0,0-2.5-.13c-5.457.1-9.486,2.833-10.553,8.188-1.352,6.394,1.145,11.2,6.135,10.267,1.43-3.821,2.938-7.771,4.418-11.7C123.877,91.936,124.734,89.7,125.541,87.543Z" fill="#fff" fill-rule="evenodd"/>
  </g>
</svg>
