<svg xmlns="http://www.w3.org/2000/svg" width="181.593" height="66.994" viewBox="0 0 181.593 66.994">
  <g id="logo-studio" transform="translate(-8.33 -59.033)">
    <path id="Path_11" data-name="Path 11" d="M37.95,92.214H21.411c-3.016,0-9.05-.416-11.754,4.37a12.774,12.774,0,0,0,0,11.338c2.393,4.264,5.929,4.992,9.674,4.992h5.513c1.456,0,3.745-.209,4.681,1.457a3.1,3.1,0,0,1,0,3.016c-1.041,1.977-4.473,1.664-5.929,1.664H8.512v6.658H26.3c3.953,0,8.114,0,10.506-4.162,1.873-3.223,2.081-8.736.312-11.648-2.5-4.473-5.513-5.2-10.09-5.2H21.722c-1.56,0-3.745.207-4.681-1.457a3.109,3.109,0,0,1,0-3.016c.832-1.664,3.121-1.457,5.409-1.457H48.767v26.941h7.9V98.768h8.113l3.952-6.553H37.95ZM92.143,109.9c0,3.016.1,6.449-3.12,8.32a8.647,8.647,0,0,1-7.177.105c-3.433-1.873-3.121-4.785-3.121-8.531V92.214H70.716V110.73c0,4.785-.312,10.3,5.305,13.521,3.849,2.289,14.458,2.289,18.307.1,5.408-3.119,5.824-7.9,5.824-13V92.214H92.143V109.9ZM119.5,92.214H104.314v33.5h16.018c5.2-.1,9.883-.312,13.211-6.139,3.121-5.512,3.121-15.811-.207-21.426C129.8,92.006,123.973,92.214,119.5,92.214Zm6.658,22.78c-2.186,3.953-5.93,3.537-9.361,3.537h-4.473V99.6H117c3.85,0,6.865-.312,9.154,3.537,1.664,2.705,1.664,8.842,0,11.857Zm12.8,10.715h8.008v-33.5h-8.008Zm41.192-28.918c-4.059-5.305-12.275-5.1-16.436-4.681a15.618,15.618,0,0,0-5.514,1.249c-5.408,2.392-6.969,7.8-7.594,12.067-.727,4.783.209,13.418,4.578,17.371,4.576,3.951,15.186,3.535,19.035,2.6,4.68-1.248,6.865-3.85,8.426-8.426,1.768-5.512,1.561-15.082-2.495-20.18Zm-4.682,14.043c-.312,2.809-1.248,5.514-4.682,7.072a9.625,9.625,0,0,1-8.424-.416c-3.641-2.391-3.85-6.344-3.746-9.152,0-3.537.936-7.074,5.3-8.635,2.08-.729,6.346-.52,8.531,1.248C175.566,103.344,175.775,108.65,175.463,110.834Z" fill="#fff" fill-rule="evenodd"/>
    <path id="Path_12" data-name="Path 12" d="M11.737,77.964l1.248,4.577,1.352-4.577H17.77l1.248,4.577,1.353-4.577h3.016l-2.5,8.01H17.354L16,81.708l-1.352,4.266H11.113L8.72,77.964h3.017Zm15.291,4.785H28.9V84H26.924a1.258,1.258,0,0,1-.833-.312.47.47,0,0,1,0-.624C26.3,82.749,26.507,82.749,27.028,82.749Zm-2.809-4.785-.624,2.081h3.744c.521,0,1.145-.1,1.457.208.1.1.1.521.1.625H26.507c-1.352,0-2.5-.1-3.328,1.04a2.682,2.682,0,0,0,0,2.913c.832,1.248,2.7,1.145,4.057,1.145h.312L28.9,84.415v1.561h3.121V81.5c0-.728.1-2.185-.937-2.913-.728-.624-2.185-.624-3.017-.624H24.219Zm11.026,0,2.081,4.889L39.3,77.964H42.63l-3.64,8.01H35.557l-3.64-8.01ZM47.728,79.94a1.258,1.258,0,0,1,.833,1.145H45.232a1.4,1.4,0,0,1,.936-1.145,2.652,2.652,0,0,1,1.56,0Zm3.848,2.809a4.907,4.907,0,0,0-.728-3.537c-1.145-1.248-3.329-1.352-4.369-1.248a5,5,0,0,0-3.849,1.768,5.384,5.384,0,0,0,.208,4.889c1.145,1.457,2.7,1.353,4.265,1.353h3.016L51.472,84H48.04c-1.248,0-2.184,0-2.705-1.144h6.241Z" fill="#fff" fill-rule="evenodd"/>
    <path id="Path_13" data-name="Path 13" d="M56.569,77.964H59.69v8.01H56.569Zm7.177,0v1.665L65.1,77.964h1.144c.728,0,2.289-.1,3.121.624.728.624.728,1.457.728,2.6v4.785H66.971V81.917c0-.728,0-1.248-.728-1.665a13.461,13.461,0,0,0-2.5-.1v5.825h-3.12v-8.01h3.12ZM73.94,73.907V80.98l3.329-3.016h3.537l-3.641,3.744,4.161,4.266H77.165L73.94,82.749v3.225H70.82V73.907h3.12ZM52.409,67.978h3.12v18h-3.12Z" fill="#fff" fill-rule="evenodd"/>
    <path id="Path_14" data-name="Path 14" d="M60,75.363a1.754,1.754,0,0,1-1.768,1.769,1.693,1.693,0,0,1-1.768-1.769A1.669,1.669,0,0,1,58.233,73.7,1.8,1.8,0,0,1,60,75.363Z" fill="#fff" fill-rule="evenodd"/>
    <path id="Path_15" data-name="Path 15" d="M60.522,74.011a8.969,8.969,0,1,0-9.05,2.6v-.937a8.1,8.1,0,0,1,2.392-15.811,8.125,8.125,0,0,1,8.114,8.114A8.314,8.314,0,0,1,59.9,73.387c.208.1.417.416.625.624Z" fill="#fff" fill-rule="evenodd"/>
    <path id="Path_16" data-name="Path 16" d="M185.033,91.9V89.2h-1.041v-.416h2.5V89.2h-1.039v2.7Zm1.871,0V88.781h.625l.729,2.289c.1.208.1.312.207.416a4.5,4.5,0,0,0,.1-.52l.834-2.185h.52V91.9h-.416V89.3l-.938,2.6h-.311l-.938-2.6v2.6H186.9Z" fill="#fff" fill-rule="evenodd"/>
  </g>
</svg>
