<svg xmlns="http://www.w3.org/2000/svg" width="187.086" height="49.304" viewBox="0 0 187.086 49.304">
  <g id="logo-studioC" transform="translate(-2.834 -71.726)">
    <path id="Path_21" data-name="Path 21" d="M31.427,72.06H13.4a6.286,6.286,0,0,0-4.452,3.562,77.567,77.567,0,0,0-3.005,9.794s-.891,4.229,4.006,6.455H29.424s.668-1.558-1.558-3.562a55.813,55.813,0,0,0-8.236-5.23c-.445-.223-.222-3.562,1.669-3.562h6.9s3.562.334,3.228-7.457Z" fill="#fff" fill-rule="evenodd"/>
    <path id="Path_22" data-name="Path 22" d="M15.067,95.989H29.98s-.334,13.244-9.349,12.91H7.165s-6.678,1.225-3.45-10.016H5.273s-.779,1.559,4.229,1.559,8.014-.112,5.565-4.453Z" fill="#fff" fill-rule="evenodd"/>
    <path id="Path_23" data-name="Path 23" d="M36.1,71.838l11.574-.112s2.226.112,1.892,3c-.445,2.782-1.224,8.347-1.224,8.347s3.116-3.45,6.01-3.45c3.005,0,9.349-.891,8.792,3.562l-2,9.571H49.234l.557-4.674a1.68,1.68,0,0,0-2.894-.223l-.779,4.786H33.1l3.9-17.362s.667-2.448-1.335-2.56Z" fill="#fff" fill-rule="evenodd"/>
    <path id="Path_24" data-name="Path 24" d="M32.541,96.656H45.562s-.333,1.781-1.892,9.35c0,0-.891,2,1.335,2l-.334,1.113H31.984s-2.448-.223-1.113-4.785l1.67-7.68Zm16.805-.222H60.141s.668,3.562-2,10.572a1.2,1.2,0,0,0,1.224,1.67l-.223,1-10.795-.111s-1.893-.334-1.225-3.449c.78-3.007,1.225-5.456,2.227-9.684Z" fill="#fff" fill-rule="evenodd"/>
    <path id="Path_25" data-name="Path 25" d="M65.038,92.761S66.6,79.628,74.721,79.628h13.8s8.013-.891,4.452,13.133l-12.8-.111.891-5.12s-1-1.78-2.671,0l-1.113,5.231Z" fill="#fff" fill-rule="evenodd"/>
    <path id="Path_26" data-name="Path 26" d="M64.927,96.656h12.02l-.557,3.451s1.113,2.336,2.782.443l.779-4.006H92.527s-.779,13.021-10.684,13.021H69.823s-9.348,1.449-4.9-12.909Z" fill="#fff" fill-rule="evenodd"/>
    <path id="Path_27" data-name="Path 27" d="M108.666,93.317H96.089l2-9.682s.777-2.115-1.225-2.115l.111-1.446h12.243S112,80.3,111,83.19a6.021,6.021,0,0,1,4.785-2.894h5.564s3.783.445,3.783,3.339a95.207,95.207,0,0,1-1.113,9.682H111.334l1.113-4.9s-.779-1.892-2.559-.333Z" fill="#fff" fill-rule="evenodd"/>
    <path id="Path_28" data-name="Path 28" d="M96.2,96.656h12.354l-.779,4.006s1.113,2.783,3.006.334l1-4.229h11.8s.111,12.8-7.9,12.8l-9.35.111s-2.113,5.676.334,6.232v.779H93.084S91.081,115.91,96.2,96.656Zm31.942.334h13.8l-2.561,8.348s-.668,1.668.111,2.67a7.155,7.155,0,0,0,1.113,1.113l-.557.779-13.467-.111a2.325,2.325,0,0,1-1.336-2.115c0-1.668,2.9-10.684,2.9-10.684Z" fill="#fff" fill-rule="evenodd"/>
    <path id="Path_29" data-name="Path 29" d="M128.031,93.54l4.006-17.7a1.69,1.69,0,0,0-1.779-2V72.506h13.8s3.229.111.557,8.681l6.678-6.122s.334-.89-.777-.89l.221-1.558H163.2s2.9,2-.332,4.452l-9.238,8.792,2.449,7.679H128.031Z" fill="#fff" fill-rule="evenodd"/>
    <path id="Path_30" data-name="Path 30" d="M144.947,96.99h12.91l1.893,2.783.668-2.561h12.354l-.668,4.229s.111,1,1.781,1c1.781,0,1.781-1.113,1.781-1.113l.666-4.006h12.576s-.443,13.021-9.57,13.021h-14.8s-3.338-.111-3.783-1.336l-1,.779h-9.57s-2.561-.11-5.233-12.8Z" fill="#fff" fill-rule="evenodd"/>
    <path id="Path_31" data-name="Path 31" d="M160.418,93.985h12.8l1.113-4.9a2.134,2.134,0,0,1,1.781-1.225c1.223,0,1.445,1.336,1.445,1.336l-.779,4.786h12.355l.777-9.238s.445-3.895-4.451-3.895H168.542s-6.9,1-8.124,13.133Z" fill="#fff" fill-rule="evenodd"/>
    <path id="Path_32" data-name="Path 32" d="M115.232,114.686a4.01,4.01,0,0,0-1.225-.223c-.891,0-1.559.334-1.67.891a.688.688,0,0,0,.223.779l1,.891c.891.668,1.336,1.113,1.113,2.115s-1.559,1.891-3.229,1.891a3.709,3.709,0,0,1-1.668-.334l.223-1a3.151,3.151,0,0,0,1.445.443,1.61,1.61,0,0,0,1.67-1c.334-1.559-2.893-1.781-2.336-3.785.223-1,1.334-1.891,3.115-1.891a6.545,6.545,0,0,1,1.559.221l-.222,1Zm6.344-1.114-.222.891h-1.782l-1.67,6.455h-1.556l1.67-6.455h-1.782l.223-.891h5.119Zm3.449.891c1.336,0,1.113,1.225.779,2.783-.445,1.559-1,2.893-2.225,2.893s-1-1.334-.668-2.893C123.357,115.688,123.8,114.463,125.025,114.463Zm.334-1c-3.115,0-3.783,2.447-4.117,3.783s-.891,3.783,2.115,3.783c3.115,0,3.783-2.447,4.117-3.783S128.365,113.463,125.359,113.463Zm5.344,3.449.666-2.449h.223c1.225,0,1.225.557,1,1.225C132.371,116.467,131.926,116.912,130.7,116.912Zm-2.56,4.006H129.7l.891-3.561,1.223,3.561h1.67l-1.225-3.561a2.508,2.508,0,0,0,2.115-1.893c.445-1.781-1.336-1.893-2.561-1.893h-1.779l-1.893,7.347Zm12.576-7.346-.223.891h-2.672l-.556,2.338H139.6l-.111.779h-2.449l-.666,2.559h2.67l-.223.779H134.6l1.892-7.346h4.229Zm4.562,1.114a3.444,3.444,0,0,0-1.225-.223c-.889,0-1.445.334-1.557.891-.111.334-.111.557.223.779l.891.891c.889.668,1.445,1.113,1.223,2.115a3.338,3.338,0,0,1-3.338,1.891,3.23,3.23,0,0,1-1.559-.334l.223-1a2.779,2.779,0,0,0,1.447.443,1.723,1.723,0,0,0,1.67-1c.334-1.559-2.9-1.781-2.449-3.785a3.112,3.112,0,0,1,3.117-1.891,6.709,6.709,0,0,1,1.668.221l-.334,1Zm5.119,6.232h-1.556l1.89-7.346h1.559Zm4.676-5.119-.445,2.449-.668,2.67H152.4l1.893-7.346h1.447l1.334,5.678.111-.111.334-2.895.668-2.672h1.559l-1.893,7.346h-1.445l-1.336-5.676v.557Zm10.906-1.225a2.179,2.179,0,0,0-.891-.111c-2.225,0-2.781,2-3,2.895-.223,1-.557,2.781,1.557,2.781a3.091,3.091,0,0,0,1-.111l-.223.891a5.428,5.428,0,0,1-1.334.111c-3.229,0-3.117-2.113-2.672-3.672.334-1.447,1.225-3.895,4.451-3.895a4.758,4.758,0,0,1,1.336.221Zm-.556,5.9a1.11,1.11,0,0,1,1.113-.555c.556,0,.891.221.779.555a1.112,1.112,0,0,1-1.113.557C165.76,121.029,165.314,120.807,165.426,120.473Z" fill="#fff" fill-rule="evenodd"/>
  </g>
</svg>
