<svg xmlns="http://www.w3.org/2000/svg" width="187.087" height="59.155" viewBox="0 0 187.087 59.155">
  <g id="logo-studioF" transform="translate(-2.833 -66.8)">
    <path id="Path_40" data-name="Path 40" d="M40.456,99.564,41,98.887c.81-.406,1.624,0,2.438.271.946-2.166.808-5.143,1.217-7.581L41.81,90.9c-1.624-.543-3.788.54-4.87-.949L28,67.487l-.676-.675L20.7,69.517,2.833,113.91c3.113-.676,5.955-2.3,9.066-2.977,5.686-6.092,12.18-10.965,19.9-11.639,2.164,4.871,4.061,9.742,6.226,14.346a38.7,38.7,0,0,0,6.767-3.113L40.456,99.564ZM19.21,95.234c1.219-4.467,3.382-9.068,5.007-13.534a69.574,69.574,0,0,1,3.925,9.743,51.736,51.736,0,0,0-8.932,3.791Zm35.322,17.457-6.089.135-.4-.543.267-45.2H54.4l.136,45.608ZM85.256,83.053c3.246,3.925,3.517,9.88,1.62,14.48-2.841,7.982-11.231,12.588-18.539,15.025,0-2.574,1.356-5.281,2.031-7.855,5.144-2.84,11.233-7.848,11.233-14.612-.272-1.082-1.354-1.762-2.169-2.438-5.139-.269-8.8,4.736-11.367,8.392-4.2,8.658-3.383,19.625-3.248,29.773l-6.631.137L58.05,82.1l6.767-.135c.138,1.76-.271,3.791.272,5.415,4.872-5.684,14.076-8.528,20.167-4.331ZM110.561,81.7c2.978,2.977,3.249,7.036,2.978,11.367-1.895.948-4.193.676-6.223,1.353,0-1.623,1.082-4.6-.951-5.953-2.975.4-3.246,3.922-4.869,5.819a102.462,102.462,0,0,0-4.469,15.566l-5.681,2.707c-.676-9.881-.272-20.032-.41-30.049l6.227-.269c.137,2.165-.271,4.329.272,6.226,1.759-2.979,4.6-7.039,8.526-7.579a7.422,7.422,0,0,1,4.6.812Zm77.551,2.572c2.567,2.975,2.164,7.579.271,10.824-3.654,4.738-8.933,6.634-14.619,7.312-.539-2.031.542-3.928.408-5.821,2.841-1.761,6.9-1.895,8.662-5.144a1.666,1.666,0,0,0-1.759-2.434c-3.792.269-6.9,3.518-9.207,6.63a8.94,8.94,0,0,0-.812,7.445c.137,1.486,1.894,2.842,3.249,3.518,3.384,1.082,7.04-.273,9.744-2.436.812,1.893,1.219,4.332,1.9,6.361-3.11,2.436-7.306,4.463-11.772,3.113a12.854,12.854,0,0,1-9.609-7.039c-2.708-7.037,0-15.024,5.819-20.3C175.118,82.781,182.968,79.4,188.112,84.272Zm-26.391-1.219c-.272,2.03-1.493,4.06-2.167,6.091-2.707.269-7.035-1.491-8.932,1.486.948,4.738,7.574,3.521,8.932,8.394a11.205,11.205,0,0,1-1.216,9.742c-5.145,5.822-13.533,6.225-21.114,5.008.271-1.758,1.082-3.652,1.491-5.68,5.14.266,11.364,1.082,14.344-3.928-.136-5.549-7.307-3.928-8.934-8.932-.677-1.9-1.62-4.331-.541-6.5,1.353-4.06,5.685-5.549,9.475-6.5a43.626,43.626,0,0,1,8.662.812Zm-31.129,2.3c-5.683,2.842-10.961,8.8-11.638,15.293.27,2.572.945,5.549,3.653,6.766,1.762,1.086,3.926.408,5.412-.539,3.385-2.572,5.549-6.5,4.331-10.423-.4-1.625-2.163-2.84-3.381-3.789l2.3-5.683c2.841.269,5.279,2.842,6.631,5.277,1.9,5.278,2.165,12.045-1.487,16.645a15.854,15.854,0,0,1-16.513,5.01c-2.57-.812-5.547-3.115-6.5-5.816a16.942,16.942,0,0,1,4.06-18.274c3.788-4.06,8.663-5.82,13.4-7.039l-.27,2.572Z" fill="#fff" fill-rule="evenodd"/>
    <path id="Path_41" data-name="Path 41" d="M65.613,70.4a2.064,2.064,0,0,0-2.249-1.756c-1.021,0-2.523.679-2.523,3.554,0,1.827.722,3.471,2.523,3.471a2.169,2.169,0,0,0,2.249-1.911h2.124a4.23,4.23,0,0,1-4.416,3.75c-2.707,0-4.646-1.827-4.646-5.336,0-3.556,2.051-5.37,4.67-5.37a4.047,4.047,0,0,1,4.391,3.6Zm12.877,2.28v4.561H76.364V67.072H78.49v3.85h3.963v-3.85h2.123V77.239H82.453V72.678Zm16.922-.524c0-2.848,1.615-3.555,2.76-3.555s2.764.707,2.764,3.555-1.617,3.555-2.764,3.555S95.412,75,95.412,72.154Zm-2.126,0c0,4.772,3.543,5.352,4.886,5.352s4.887-.58,4.887-5.352S99.519,66.8,98.172,66.8s-4.886.582-4.886,5.354ZM118.327,70.4a2.069,2.069,0,0,0-2.254-1.756c-1.018,0-2.518.679-2.518,3.554,0,1.827.721,3.471,2.518,3.471a2.169,2.169,0,0,0,2.254-1.911h2.123a4.227,4.227,0,0,1-4.416,3.75c-2.705,0-4.65-1.827-4.65-5.336,0-3.556,2.055-5.37,4.677-5.37a4.044,4.044,0,0,1,4.39,3.6Zm12.49,1.756c0-2.848,1.617-3.555,2.764-3.555s2.76.707,2.76,3.555-1.612,3.555-2.76,3.555-2.764-.708-2.764-3.555Zm-2.123,0c0,4.772,3.542,5.352,4.887,5.352s4.888-.58,4.888-5.352-3.542-5.354-4.888-5.354-4.887.582-4.887,5.354ZM149.37,75.4h5.057v1.843h-7.179V67.072h2.122V75.4Zm17.635-6.032h.027l1.261,4.023H165.7Zm-1.873,5.779h3.758l.653,2.1h2.308l-3.586-10.167h-2.448l-3.629,10.167h2.239Zm18.2,2.1h-2.123V68.868h-3.077v-1.8h8.274v1.8h-3.074Z" fill="#fff" fill-rule="evenodd"/>
  </g>
</svg>
