<svg xmlns="http://www.w3.org/2000/svg" width="1222.334" height="445.209" viewBox="0 0 1222.334 445.209">
  <g id="logo-studioA" transform="translate(-0.026 0.016)">
    <path id="path2320" d="M33.887,444.888C19.919,442.468,9.415,432.459,5.181,417.5c-1.43-4.949-1.98-18.808-.99-24.912,2.64-16.828,11.714-28.6,25.847-33.656,5.279-1.87,15.233-2.2,21.227-.66,4.894,1.21,8.524,2.8,10.779,4.674l1.54,1.21-3.85,5.774a41.187,41.187,0,0,1-4.289,5.774,26.463,26.463,0,0,1-3.74-1.7c-10.119-5.224-20.347-2.31-25.187,7.2-2.53,4.949-3.3,10.724-2.97,22.492.22,8.469.495,11.164,1.375,13.913,2.915,9.074,9.019,13.913,17.653,13.913a20.441,20.441,0,0,0,11.659-3.3,11.331,11.331,0,0,1,3.025-1.65c.6,0,7.974,10.009,7.974,10.779-.055,1.43-8.8,5.829-14.023,7.094-3.135.77-14.023.99-17.323.44Zm113.286-.165c-12.153-2.09-20.9-9.679-25.737-22.492-2.75-7.259-3.575-12.868-3.245-22.877.33-10.174,1.375-14.958,4.784-22,4.4-9.074,10.229-14.3,19.3-17.378,4.784-1.595,5.774-1.76,12.318-1.76,5.939,0,7.864.165,11.274,1.21,12.483,3.85,20.622,13.253,23.977,27.827,1.54,6.764,1.43,22.987-.22,29.586-3.795,15.013-12.923,25.022-25.352,27.662A65.8,65.8,0,0,1,147.173,444.723Zm12.7-13.858c5-1.7,8.579-6.929,10.174-15.013,1.1-5.554,1.265-21.942.33-27.772-1.815-10.779-7.2-16.223-16.058-16.223-8.634,0-13.308,4.839-15.783,16.278-1.155,5.389-1.265,21.007-.22,26.837,1.54,8.3,4.729,13.473,9.569,15.343C151.133,431.634,156.962,431.854,159.877,430.865Zm345.577,13.858c-14.188-2.145-24.032-12.428-28.1-29.421-1.485-6.159-1.485-21.227-.055-27.387,2.53-10.834,7.919-19.358,15.453-24.527a39.9,39.9,0,0,1,7.479-3.355c4.894-1.7,5.719-1.815,12.648-1.815,6.324,0,7.974.165,11.274,1.265,16.5,5.5,25.132,19.743,25.077,41.575,0,16.773-4.344,28.871-13.143,36.57-3.19,2.8-10.449,6.434-14.353,7.149a76.776,76.776,0,0,1-16.278-.055ZM519.2,430.315c7.039-3.3,9.9-11.824,9.844-29.366-.055-14.3-1.54-20.787-5.829-24.857-7.644-7.259-19.688-5.279-24.032,3.9-2.97,6.324-4.234,16.828-3.41,27.827.77,10.339,2.2,15.178,5.664,19.413,3.19,4.014,12.483,5.554,17.763,3.08Zm543.883,14.408c-12.044-1.815-20.732-9.239-25.792-22-2.42-6.049-3.135-10.284-3.465-19.248-.22-7.314-.11-9.349.88-14.243,1.925-9.349,5.334-16.333,10.559-21.5,3.959-3.96,6.764-5.719,12.593-7.7,4.895-1.7,5.719-1.815,12.648-1.815,6.379,0,7.974.165,11.274,1.265,12.153,4.069,19.8,12.7,23.482,26.452,1.1,4.124,1.265,5.939,1.265,15.673,0,12.868-.77,16.883-5,25.517a31.8,31.8,0,0,1-21.172,17.378,66.511,66.511,0,0,1-17.268.22Zm12.538-13.913c2.86-.825,6.434-4.4,7.974-7.809,3.74-8.524,4.4-29.641,1.155-40.09-2.695-8.689-11.714-13.363-19.852-10.339-8.249,3.135-11.659,11.549-11.659,28.651,0,17.653,2.97,26.177,10.229,29.036a20.842,20.842,0,0,0,12.153.55ZM248.911,358.933H266.4c18.863,0,21.777.33,27,2.97,13.693,6.929,16.388,28.6,5.059,40.255-2.42,2.53-7.424,5.169-9.789,5.169h-1.54l1.7,1.76a58.594,58.594,0,0,1,4.619,6.159c3.74,5.609,16.993,27.772,16.993,28.431,0,.275-4.564.44-10.284.33l-10.284-.165-3.63-6.324c-1.98-3.465-5.719-10.009-8.249-14.573-2.86-5.114-6.214-10.119-7.919-11.934-2.42-2.475-4.124-2.09-4.124-2.09v35.2H248.911V358.933ZM280.037,394.4c4.674-1.375,6.929-4.674,6.874-10.174,0-5.664-2.695-9.239-7.754-10.394a51.012,51.012,0,0,0-7.809-.6h-5.389v22C270.633,395.174,275.417,395.449,280.037,394.4Zm90.409-35.581c12.923,1.1,26.452-1.32,39.21,1.375,8.524,2.42,14.133,7.2,17.378,14.848,1.32,3.08,1.43,4.014,1.375,10.5-.055,6.709-.165,7.369-1.7,10.944a26.65,26.65,0,0,1-9.679,11.824c-5.224,3.355-8.029,4.015-19.193,4.344l-9.789.275v31.236h-17.6Zm34.206,38.165a9.755,9.755,0,0,0,3.52-4.289c1.32-2.75,1.43-3.41,1.21-7.589-.33-5.334-1.76-8.194-5.169-10.284-1.815-1.155-2.915-1.32-9.129-1.485l-7.039-.22v25.572l7.314-.22c6.379-.22,7.479-.385,9.294-1.485Zm199.515-38.055h17.708c19.3,0,22.382.385,27.387,3.08A22.817,22.817,0,0,1,659.93,375.1c2.86,9.9.715,20.073-5.554,26.782-2.64,2.8-7.369,5.444-9.789,5.444H643.1l1.595,1.87a78.916,78.916,0,0,1,4.674,6.489c3.41,5.224,16.223,26.4,16.718,27.717l-20.513.825-6.214-11.109c-10.669-19.083-13.253-22.822-16.333-23.757l-1.21-.385v35.251h-17.6V358.933Zm31.071,35.691c4.894-1.375,7.369-4.894,7.424-10.449,0-4.454-1.7-7.534-5.224-9.294-2.365-1.155-3.629-1.375-9.184-1.595l-6.489-.22v22.107c4.454-.055,9.019.275,13.473-.55Zm81.115,49.384,27.937-85.349h18.973c8.854,28.486,17.983,56.863,26.782,85.349l-18.973.11-5.939-20.347H740.825l-5.939,20.347C728.671,444.063,722.512,444.283,716.353,444.008Zm36.955-63.792L745,409.527h15.728C757.543,399.958,756.168,389.84,753.308,380.216Zm102.727-6.434h-20.9V358.933h61.592l-2.86,14.848H873.634v70.391h-17.6Zm96.788-14.848h18.7v85.239h-18.7Zm210.074-.055,19.853.275c7.809,16.718,16.388,33.106,23.042,50.319l1.1,3.025-.275-6.049-1.045-47.569h16.663v85.239h-17.983l-2.035-4.509c-6.489-14.353-17.708-39.65-20.348-46.084-1.7-4.07-2.969-6.819-2.8-6.049s.495,13.8.66,29.036l.385,27.607H1162.9Zm25.242-48.229c-10.339-5.719-16.883-11.274-21.557-18.148l-2.695-4.015-3.959,3.465a68.223,68.223,0,0,1-12.758,9.514c-11.659,6.874-27.332,9.734-46.744,8.469-40.2-2.585-61.317-21.887-64.067-58.513-1.21-16.278,1.485-31.126,7.809-42.455,8.634-15.563,25.572-26.452,49.384-31.731,12.154-2.695,22.052-3.685,40.365-4.014l16.993-.33-.33-8.854c-.165-4.894-.6-10.394-.935-12.318-1.7-9.954-5.884-15.013-13.748-16.5-6.1-1.155-8.909-1.21-15.893-.385-13.528,1.65-27.662,7.2-45.094,17.708-4.674,2.8-8.744,5-9.074,4.894-.66-.275-23.372-38.385-23.372-39.155.055-1.1,14.133-8.909,24.2-13.308,27.167-11.989,44.215-16.058,67.2-16.058,21.392,0,36.186,3.63,48.119,11.714,4.674,3.19,11.714,10.449,14.3,14.738a78.66,78.66,0,0,1,6.819,16.938l1.265,4.674-.275,32.171c-.165,17.708-.275,43.445-.275,57.193,0,28.212,0,28.212,4.29,36.57,1.87,3.63,3.355,5.5,8.524,10.614,5.774,5.719,6.214,6.269,5.444,7.149-.44.495-6.929,8.029-14.463,16.608s-13.858,15.728-14.243,15.783C1193.144,313.179,1190.724,312.079,1188.14,310.649Zm-63.957-42.455a37.178,37.178,0,0,0,21.5-10.229l3.409-3.245.385-21.392.385-21.392-8.909.385c-28.047,1.21-38.55,5.664-43.06,18.423-1.43,4.014-1.98,14.573-.99,18.808,2.255,9.569,9.844,17.1,18.7,18.533,1.65.275,3.3.55,3.574.55s2.585-.165,5-.44ZM865.66,306.91a51.986,51.986,0,0,1-23.647-9.844c-7.479-5.609-11.879-12.154-15.123-22.6-3.025-9.734-2.915-6.929-3.3-124.78-.33-106.962-.385-109.107-1.595-122.855-.66-7.644-1.1-14.078-.935-14.243.495-.495,54.388-12.758,55.048-12.538s1.65,7.644,2.42,17.928c1.1,72.976.055,145.9,1.045,218.873.44,17.708.55,19.853,1.595,22.767,2.585,7.259,6.1,9.9,13.253,9.9a27.828,27.828,0,0,0,4.894-.275c.715-.22,3.245,7.644,9.239,28.981l1.1,3.9-8.579,2.255c-12.374,3.3-24.857,4.179-35.416,2.53Zm114.386.495a57.656,57.656,0,0,1-19.248-5.554c-14.628-7.314-21.722-17.763-25.077-36.955-.44-2.53-.715-35.086-.99-111.911-.385-107.952-.385-108.392-1.7-124.175-.825-9.679-1.1-16-.825-16.278.66-.6,54.663-12.923,55.048-12.538.6.6,1.815,11.549,2.365,21.282,1.43,75.121-.22,150.351,1.1,225.472.385,7.974.715,10.889,1.595,13.418,1.485,4.234,3.575,6.874,6.379,8.084,3.08,1.375,7.974,1.925,10.229,1.1,1.155-.385,1.925-.44,2.145-.055.55.88,9.459,32.556,9.239,32.776-.11.11-3.41,1.1-7.314,2.2C1003.583,306.855,988.074,308.395,980.045,307.4Zm-586.777-.495c-.935-.11-4.125-.495-7.149-.88a99.11,99.11,0,0,1-11.879-2.42c-37.615-10.724-61.1-41.74-66.542-87.934-.825-7.094-.825-26.947,0-34.371,2.42-21.722,9.459-41.355,20.237-56.643,7.314-10.394,19.3-20.842,30.136-26.287,13.638-6.874,25.517-9.459,43-9.459,14.518,0,23.867,1.485,34.811,5.5,26.562,9.789,48.009,33.821,55.763,62.417,6.214,22.932,6.1,58.4-.275,81.39-5,18.148-13.693,32.831-26.782,45.424s-27.607,19.688-45.259,22.272C414.165,306.635,396.4,307.35,393.268,306.91Zm20.842-42.62c12.263-5.554,18.2-18.038,20.9-43.995,1.045-9.9,1.21-34.536.275-43.995-2.53-26.177-9.019-38.825-22.657-44.1-7.149-2.75-16.938-2.035-24.142,1.76-12.319,6.489-17.873,20.182-19.743,48.669-1.045,16.223-.11,38.055,2.31,51.144,3.19,17.6,8.249,25.462,19.3,30.081,5.169,2.2,7.864,2.585,14.463,2.31,4.729-.11,6.1-.385,9.294-1.87ZM5.841,124.387c-.88-7.2-2.53-13.748-4.509-17.708-.99-2.035-1.54-3.685-1.21-3.96.6-.55,47.4-13.253,48.779-13.253s4.509,6.6,6.159,12.978a51.312,51.312,0,0,1,1.375,6.324c0,.55.165,1.045.44,1.045a52.257,52.257,0,0,0,5.389-4.124,71.049,71.049,0,0,1,36.9-15.728c14.3-1.485,27.167.66,37.505,6.214,6.6,3.575,14.518,10.174,18.7,15.783l3.3,4.4,2.145-2.2c5.114-5.334,15.233-12.978,22.327-16.883,6.049-3.355,14.683-6.049,23.042-7.259,7.534-1.1,22.382-.44,29.586,1.32,8.029,1.925,14.9,4.839,20.073,8.524,10.614,7.479,14.683,14.078,17.433,28.431,1.155,5.994,1.155,6.929,1.375,90.3l.22,84.3H220.919V228.985c0-47.459-.22-75.506-.55-78.53-1.32-10.944-3.85-14.133-12.154-15.288-9.624-1.375-23.207,3.85-35.581,13.693l-4.509,3.575V302.84H115.937c-3.19-49.879,4.4-104.267-1.265-153.486-1.98-9.679-5.444-13.2-13.913-14.243-9.9-1.21-23.317,3.355-34.811,11.824l-4.509,3.3L61.384,302.84H7.491c-1.87-59.063,3.3-119.72-1.65-178.453ZM520.632,267.92,618.3,133.186l-89.474-.275V93.866H684.457v37.67c-30.411,44.16-61.647,87.714-91.839,132.039l95.743.22-.385,1.21-12.758,37.56-154.641.275.055-34.921ZM724.6,96.616l1.21-.275c17.488-2.915,35.031-5.444,52.518-8.249l1.76-.33V302.84H724.547V96.616Zm23.922-27.607a33.191,33.191,0,0,1-28.267-24.417c-4.729-18.148,4.784-36.186,22.107-41.85,3.3-1.045,5.114-1.265,10.724-1.265,10.669,0,16.773,2.42,23.7,9.349,6.654,6.654,9.569,13.968,9.569,24.2.055,10.559-2.75,17.433-9.844,24.582-7.369,7.369-16.828,10.559-27.992,9.4Z" transform="translate(0 0)" fill="#fff"/>
  </g>
</svg>
