<svg width="20" height="20" viewBox="0 0 20 20" fill="none" xmlns="http://www.w3.org/2000/svg">
<path d="M10 0C4.489 0 0 4.489 0 10C0 15.511 4.489 20 10 20C15.511 20 20 15.511 20 10C20 4.489 15.511 0 10 0ZM7.70703 6.29297L10 8.58594L12.293 6.29297C12.6404 5.94107 13.2864 5.87684 13.707 6.29297C14.0975 6.68348 14.0975 7.31652 13.707 7.70703L11.4141 10L13.707 12.293C14.0975 12.6835 14.0975 13.3165 13.707 13.707C13.3165 14.0975 12.6835 14.0975 12.293 13.707L10 11.4141L7.70703 13.707C7.31652 14.0975 6.68348 14.0975 6.29297 13.707C5.90255 13.3165 5.90255 12.6835 6.29297 12.293L8.58594 10L6.29297 7.70703C5.90255 7.31652 5.90255 6.68348 6.29297 6.29297C6.71455 5.89794 7.27017 5.87678 7.70703 6.29297Z" fill="#E24C4B"/>
</svg>
