<svg width="384" height="379" viewBox="0 0 384 379" fill="none" xmlns="http://www.w3.org/2000/svg">
<path d="M0 339.1C2.2 327.5 9.7 319.4 17.8 311.4C57.5 271.9 97.1 232.3 136.7 192.7C137.7 191.7 139.2 191 140.6 190.1C138.8 188.2 137.9 187.2 136.9 186.3C95.4 144.8 54 103.3 12.5 61.9C-0.9 48.4 -1.8 27.4 10.4 13C22.5 -1.49997 43.5 -4.19997 59 6.60003C60.9 8.00003 62.7 9.60003 64.3 11.3C105.4 52.1 146.4 92.9 187.4 133.7C188.6 134.9 189.8 136.3 191.2 137.9C192.5 136.6 193.6 135.7 194.6 134.6C235.4 93.8 276.2 52.9 317.1 12.1C337.2 -7.99997 370.3 -0.199972 378.1 26.6C382 40.1 379.2 52.3 369.1 62.4C328.2 103.4 287.3 144.3 246.3 185.2C245.2 186.3 244.1 187.2 242.6 188.5C244.2 190.1 245.4 191.4 246.7 192.6C288.2 233.8 329.6 275.1 371.2 316.3C379 324.1 383.3 333.2 383.1 344.3C382.8 363.2 367.6 378.2 348.6 378.7C335.8 379 325.2 374.8 316.1 365.6C275.7 324.9 235 284.4 194.5 243.8C193.4 242.7 192.6 241.5 190.7 239C189.4 241.1 188.8 242.6 187.7 243.6C146.5 284.9 105.2 326.2 63.9 367.5C51.2 380.2 29.6 382.5 14.6 372.8C7 368 3 360.6 0.8 352C0.6 351.2 0.3 350.4 0 349.6C0 346.1 0 342.6 0 339.1Z" fill="#E24C4B"/>
</svg>
