<svg width="80" height="80" viewBox="0 0 80 80" fill="none" xmlns="http://www.w3.org/2000/svg">
<path d="M1.68888 78.3109C2.21965 78.8461 2.85114 79.2709 3.5469 79.5608C4.24266 79.8507 4.98893 80 5.74266 80C6.49639 80 7.24266 79.8507 7.93842 79.5608C8.63419 79.2709 9.26567 78.8461 9.79645 78.3109L40 48.0466L70.2036 78.3109C70.7343 78.8461 71.3658 79.2709 72.0616 79.5608C72.7573 79.8507 73.5036 80 74.2573 80C75.0111 80 75.7573 79.8507 76.4531 79.5608C77.1489 79.2709 77.7803 78.8461 78.3111 78.3109C78.8463 77.7801 79.271 77.1485 79.5609 76.4527C79.8508 75.7568 80 75.0105 80 74.2566C80 73.5028 79.8508 72.7565 79.5609 72.0606C79.271 71.3648 78.8463 70.7332 78.3111 70.2024L48.0505 39.9951L78.3111 9.7879C79.3862 8.71263 79.9903 7.25427 79.9903 5.73362C79.9903 4.21297 79.3862 2.7546 78.3111 1.67934C77.236 0.604076 75.7778 0 74.2573 0C72.7369 0 71.2787 0.604076 70.2036 1.67934L40 31.9437L9.79645 1.67934C8.72132 0.604076 7.26313 -1.13297e-08 5.74266 0C4.2222 1.13297e-08 2.76401 0.604076 1.68888 1.67934C0.613746 2.7546 0.00974394 4.21297 0.00974393 5.73362C0.00974392 7.25427 0.613746 8.71263 1.68888 9.7879L31.9495 39.9951L1.68888 70.2024C1.15373 70.7332 0.728972 71.3648 0.439106 72.0606C0.149239 72.7565 0 73.5028 0 74.2566C0 75.0105 0.149239 75.7568 0.439106 76.4527C0.728972 77.1485 1.15373 77.7801 1.68888 78.3109Z" fill="white"/>
</svg>
