<svg xmlns="http://www.w3.org/2000/svg" xmlns:xlink="http://www.w3.org/1999/xlink" viewBox="0 0 261.55 261.55"><defs><style>.cls-1{fill:url(#linear-gradient);}.cls-2,.cls-3{fill:#fff;}.cls-3{opacity:0.3;}.cls-4{fill:#666;}.cls-5{fill:#00aeef;}</style><linearGradient id="linear-gradient" x1="130.77" y1="17.79" x2="130.77" y2="242.96" gradientTransform="translate(22.64 -19.26) rotate(9.22)" gradientUnits="userSpaceOnUse"><stop offset="0" stop-color="#8acdf1"/><stop offset="1" stop-color="#1c75bc"/></linearGradient></defs><g id="Layer_2" data-name="Layer 2"><g id="Layer_1-2" data-name="Layer 1"><circle class="cls-1" cx="130.77" cy="130.78" r="121.95" transform="translate(-19.26 22.64) rotate(-9.22)"/><path class="cls-2" d="M130.78,261.55C58.67,261.55,0,202.88,0,130.78S58.67,0,130.78,0,261.55,58.67,261.55,130.78,202.88,261.55,130.78,261.55Zm0-243.91A113.14,113.14,0,1,0,243.91,130.78,113.26,113.26,0,0,0,130.78,17.64Z"/><path class="cls-3" d="M131.14,67.37a215.49,215.49,0,0,1,68.07,11c9.08,3,15.9-8.62,8.89-15.12a113.12,113.12,0,0,0-153.91,0c-7,6.5-.2,18.13,8.88,15.12A215.54,215.54,0,0,1,131.14,67.37Z"/><path class="cls-2" d="M207.09,121.15a17.39,17.39,0,0,0,1.78-10.57A15.43,15.43,0,0,0,196.45,98.2c-7.71-1.26-16.34-.22-24.15-.22,1.17-4.73,4.46-8.8,5.7-13.6a30.46,30.46,0,0,0,.31-13.5c-1.65-8.41-8.13-13.73-17-13-8.3.69-8.23,14.58-10.21,20.37-1.43,4.2-4.29,7.22-7.07,10.57-3,3.61-5.95,7.22-9,10.75-1.62,1.85-3.58,5.08-5.85,6.09a15.1,15.1,0,0,1-4.08.63c-2,.23-4,.41-5.95.56a9.76,9.76,0,0,1,2.86,6.92V163a9.74,9.74,0,0,1-1.07,4.45c2.41.27,4.81.6,7.19,1.08,8.05,1.64,15.72,5.09,23.67,7.19a84.86,84.86,0,0,0,25.5,2.52c6.74-.29,13.42-.94,17.71-6.82,2.43-3.33,3.16-7.06,3.34-11.09.15-3.38,2.63-5.31,3.77-8.46,1.28-3.52.23-6.47.63-10,.42-3.65,3.09-6.41,3.16-10.37,0-2-1.41-5-1-6.77C205.09,123.48,206.49,122.32,207.09,121.15Zm-53.36,36.27a6,6,0,0,1-6,6l-20-4.27V123.94l20,1.79a6,6,0,0,1,6,6Z"/><path class="cls-4" d="M147.7,125.73l-20-1.79v35.24l20,4.27a6,6,0,0,0,6-6V131.76A6,6,0,0,0,147.7,125.73ZM141,152.23a2.15,2.15,0,0,1-2.63,2.1l-5-1.17a2.14,2.14,0,0,1-1.66-2.09V140a2.15,2.15,0,0,1,2.46-2.13l5,.74a2.15,2.15,0,0,1,1.83,2.13Zm0-18.8a2.14,2.14,0,0,1-2.47,2.12l-5-.77a2.16,2.16,0,0,1-1.81-2.13,2.14,2.14,0,0,1,2.36-2.13l5,.5a2.14,2.14,0,0,1,1.93,2.14Z"/><path class="cls-4" d="M122,163V113.78A9.84,9.84,0,0,0,110.86,104l-12.7,1.69a13.37,13.37,0,0,1,.7,4.27v56a13,13,0,0,1-1,5l13,1.74A9.84,9.84,0,0,0,122,163Zm-12.41-49.84a7.78,7.78,0,1,1-7.78,7.78A7.77,7.77,0,0,1,109.57,113.13Z"/><path class="cls-2" d="M109.57,128.69a7.78,7.78,0,1,0-7.78-7.78A7.78,7.78,0,0,0,109.57,128.69Z"/><path class="cls-2" d="M98.86,110a13.37,13.37,0,0,0-.7-4.27,11.57,11.57,0,0,0-9.15-8l-23.67-2.5c-6.81-1-12.87,4.77-12.87,12.22v61.74c0,7.46,6.06,13.21,12.87,12.22L89,178.18A11.49,11.49,0,0,0,97.87,171a13,13,0,0,0,1-5ZM63.27,169.9a1.86,1.86,0,1,1-3.72,0V106.85a1.86,1.86,0,1,1,3.72,0Zm6.63,1.86A1.87,1.87,0,0,1,68,169.9V106.85a1.86,1.86,0,1,1,3.72,0V169.9A1.87,1.87,0,0,1,69.9,171.76Z"/><path class="cls-5" d="M109.57,125.26a4.35,4.35,0,1,0-4.35-4.35A4.34,4.34,0,0,0,109.57,125.26Z"/><path class="cls-4" d="M61.41,105a1.87,1.87,0,0,0-1.86,1.87V169.9a1.86,1.86,0,1,0,3.72,0V106.85A1.87,1.87,0,0,0,61.41,105Z"/><path class="cls-4" d="M71.76,106.85a1.86,1.86,0,1,0-3.72,0V169.9a1.86,1.86,0,1,0,3.72,0Z"/><path class="cls-2" d="M139.16,138.64l-5-.74a2.15,2.15,0,0,0-2.46,2.13v11a2.14,2.14,0,0,0,1.66,2.09l5,1.17a2.15,2.15,0,0,0,2.63-2.1V140.77A2.15,2.15,0,0,0,139.16,138.64Z"/><path class="cls-2" d="M139.06,131l-5-.5a2.14,2.14,0,0,0-2.36,2.13,2.16,2.16,0,0,0,1.81,2.13l5,.77a2.14,2.14,0,0,0,2.47-2.12v-.27A2.14,2.14,0,0,0,139.06,131Z"/></g></g></svg>