<svg width="354" height="354" viewBox="0 0 354 354" fill="none" xmlns="http://www.w3.org/2000/svg">
<path d="M177 0.987602C79.9467 0.987602 0.987549 79.9468 0.987549 177.002C0.987549 274.053 79.9467 353.012 177 353.012C274.053 353.012 353.012 274.053 353.012 177.002C353.012 79.9468 274.053 0.987602 177 0.987602ZM177 327.812C93.8408 327.812 26.1875 260.161 26.1875 177.002C26.1875 93.8428 93.8408 26.1876 177 26.1876C260.159 26.1876 327.812 93.8429 327.812 177.002C327.812 260.161 260.159 327.812 177 327.812Z" fill="white"/>
<path d="M257.56 205.774C233.785 214.039 206.302 218.77 177 218.77C147.698 218.77 120.215 214.039 96.4409 205.774C89.9597 203.52 83.5907 209.58 85.6458 216.127C100.538 263.571 135.824 296.933 177 296.933C218.177 296.933 253.462 263.571 268.355 216.127C270.409 209.58 264.04 203.52 257.56 205.774Z" fill="white"/>
<path d="M120.059 148.651C134.234 145.305 143.012 131.101 139.666 116.926C136.32 102.751 122.116 93.9721 107.941 97.3184C93.7656 100.665 84.9871 114.869 88.3334 129.044C91.6796 143.219 105.884 151.998 120.059 148.651Z" fill="white"/>
<path d="M246.059 148.652C260.234 145.306 269.012 131.102 265.666 116.926C262.32 102.751 248.116 93.9726 233.941 97.3188C219.766 100.665 210.987 114.869 214.333 129.044C217.68 143.219 231.884 151.998 246.059 148.652Z" fill="white"/>
</svg>
