<svg width="100" height="100" viewBox="0 0 100 100" fill="none" xmlns="http://www.w3.org/2000/svg">
<path d="M94.5 0H5.5C4.04131 0 2.64236 0.579463 1.61091 1.61091C0.579463 2.64236 0 4.04131 0 5.5V94.5C0 95.2223 0.142262 95.9375 0.418663 96.6048C0.695064 97.272 1.10019 97.8784 1.61091 98.3891C2.12164 98.8998 2.72795 99.3049 3.39524 99.5813C4.06253 99.8577 4.77773 100 5.5 100H53.4V61.25H40.4V46.25H53.4V35C53.1307 32.3588 53.4425 29.6906 54.3136 27.1827C55.1846 24.6747 56.5938 22.3877 58.4423 20.4821C60.2908 18.5764 62.5339 17.0982 65.0141 16.1512C67.4944 15.2042 70.1518 14.8113 72.8 15C76.6916 14.9761 80.5814 15.1764 84.45 15.6V29.1H76.5C70.2 29.1 69 32.1 69 36.45V46.1H84L82.05 61.1H69V100H94.5C95.2223 100 95.9375 99.8577 96.6048 99.5813C97.272 99.3049 97.8784 98.8998 98.3891 98.3891C98.8998 97.8784 99.3049 97.272 99.5813 96.6048C99.8577 95.9375 100 95.2223 100 94.5V5.5C100 4.77773 99.8577 4.06253 99.5813 3.39524C99.3049 2.72795 98.8998 2.12164 98.3891 1.61091C97.8784 1.10019 97.272 0.695064 96.6048 0.418663C95.9375 0.142262 95.2223 0 94.5 0V0Z" fill="white"/>
</svg>
