<svg xmlns="http://www.w3.org/2000/svg" width="32.001" height="28.584" viewBox="0 0 32.001 28.584">
  <g id="iconA" transform="translate(0.648 0.728)">
    <circle id="Ellipse_1" data-name="Ellipse 1" cx="2.858" cy="2.858" r="2.858" transform="translate(12.495 10.678)" fill="#3fa9f5"/>
    <g id="Group_1" data-name="Group 1">
      <path id="Path_1" data-name="Path 1" d="M15.352,7.725A32.061,32.061,0,0,1,25.44,9.2c3.238,1.115,5.229,2.8,5.229,4.334,0,1.594-2.11,3.389-5.587,4.541a32.193,32.193,0,0,1-9.73,1.326,32.088,32.088,0,0,1-9.928-1.335C2.061,16.917.035,15.1.035,13.535c0-1.518,1.9-3.194,5.093-4.307a32.341,32.341,0,0,1,10.224-1.5Z" fill="none" stroke="#3fa9f5" stroke-width="1.367" fill-rule="evenodd"/>
      <path id="Path_2" data-name="Path 2" d="M10.295,10.647a32.062,32.062,0,0,1,6.318-8C19.2.4,21.654-.483,22.979.281c1.381.8,1.882,3.521,1.143,7.108A32.175,32.175,0,0,1,20.41,16.48a32.079,32.079,0,0,1-6.116,7.933c-2.676,2.339-5.263,3.186-6.618,2.4-1.315-.758-1.817-3.242-1.187-6.564a32.353,32.353,0,0,1,3.8-9.607Z" fill="none" stroke="#3fa9f5" stroke-width="1.367" fill-rule="evenodd"/>
      <path id="Path_3" data-name="Path 3" d="M10.3,16.489a32.07,32.07,0,0,1-3.777-9.47c-.658-3.361-.193-5.93,1.131-6.7,1.38-.8,3.99.128,6.729,2.56a32.191,32.191,0,0,1,6.022,7.756A32.082,32.082,0,0,1,24.224,19.9c.69,3.487.132,6.151-1.222,6.934-1.313.76-3.717-.045-6.279-2.25A32.343,32.343,0,0,1,10.3,16.489Z" fill="none" stroke="#3fa9f5" stroke-width="1.367" fill-rule="evenodd"/>
    </g>
  </g>
</svg>
