<svg xmlns="http://www.w3.org/2000/svg" width="23.971" height="23.971" viewBox="0 0 23.971 23.971">
  <g id="iconB" transform="translate(-4 -4)">
    <path id="Path_4" data-name="Path 4" d="M6.013,16.013,4,14V6A2,2,0,0,1,6,4h8L27.381,17.381a2,2,0,0,1,.008,2.831l-7.177,7.177a2,2,0,0,1-2.831-.008l-2.394-2.394a6.5,6.5,0,0,0-8.974-8.974ZM9.5,11A1.5,1.5,0,1,0,8,9.5,1.5,1.5,0,0,0,9.5,11Zm0,16A5.5,5.5,0,1,0,4,21.5,5.5,5.5,0,0,0,9.5,27ZM9,24.243,6.646,21.889l.732-.732L9,22.778l3.121-3.121.732.732L9,24.243Z" fill="#3fa9f5"/>
  </g>
</svg>
