<svg xmlns="http://www.w3.org/2000/svg" width="33.656" height="40.186" viewBox="0 0 33.656 40.186">
  <g id="iconD" transform="translate(-16.5 -10)">
    <path id="Path_8" data-name="Path 8" d="M54.3,10a9.8,9.8,0,1,0,9.8,9.795A9.794,9.794,0,0,0,54.3,10Zm0,17.079a7.284,7.284,0,1,1,7.284-7.284A7.292,7.292,0,0,1,54.3,27.079Z" transform="translate(-13.935)" fill="#3fa9f5"/>
    <rect id="Rectangle_1" data-name="Rectangle 1" width="9.582" height="2.512" transform="translate(36.268 22.78) rotate(-51.631)" fill="#3fa9f5"/>
    <circle id="Ellipse_2" data-name="Ellipse 2" cx="1.758" cy="1.758" r="1.758" transform="translate(41.616 20.549)" fill="#3fa9f5"/>
    <circle id="Ellipse_3" data-name="Ellipse 3" cx="1.758" cy="1.758" r="1.758" transform="translate(35.086 15.526)" fill="#3fa9f5"/>
    <path id="Path_9" data-name="Path 9" d="M28.053,22.781A12.23,12.23,0,0,1,30.1,16H16.5V48.149a5.038,5.038,0,0,0,5.023,5.023h20.6a5.038,5.038,0,0,0,5.023-5.023v-15.1A12.3,12.3,0,0,1,28.053,22.781Zm4.019,24.112H23.532V44.381h8.539Zm0-6.028H23.532V38.353h8.539Zm10.621.327H40.181c0-.4-.938-.408-1.045-.408-.293,0-.786.053-.786.408a.312.312,0,0,0,.008.085,4.274,4.274,0,0,0,1.129.37c1.12.275,3.2.788,3.2,3.11A2.751,2.751,0,0,1,40.522,47.5v1.349H38.01V47.52a2.849,2.849,0,0,1-2.171-2.762h2.512c0,.38.6.409.786.409,1.045,0,1.045-.276,1.045-.409,0-.243,0-.354-1.292-.672-1.065-.262-3.05-.75-3.05-2.895a2.878,2.878,0,0,1,2.171-2.769V37.1h2.512v1.363A2.819,2.819,0,0,1,42.693,41.191Z" transform="translate(0 -2.986)" fill="#3fa9f5"/>
  </g>
</svg>
