<svg xmlns="http://www.w3.org/2000/svg" width="24.589" height="30.007" viewBox="0 0 24.589 30.007">
  <g id="iconC" transform="translate(-3.71 -1)">
    <path id="Path_5" data-name="Path 5" d="M22.86,17.18V11.44h0V6.29c0-3-4.21-5.29-9.57-5.29S3.71,3.32,3.71,6.29V21.71c0,3,4.11,5.29,9.57,5.29a9.9,9.9,0,0,0,1.65-.09,7,7,0,1,0,7.92-9.73Zm-2.58-.1-.5.09-.29.07-.49.15-.26.09a5.689,5.689,0,0,0-.56.26l-.15.07a6.58,6.58,0,0,0-.67.4l-.17.13a5.3,5.3,0,0,0-.45.34l-.22.21c-.12.11-.24.22-.35.34l-.21.24-.15.17-.7.1-.44.06q-.67.06-1.38.06c-4.34,0-7.57-1.74-7.57-3.29V14.72l.16.11A9.31,9.31,0,0,0,8.23,16a16.09,16.09,0,0,0,5.06.76,16,16,0,0,0,5-.76,9.91,9.91,0,0,0,2.36-1.11l.17-.12v1.85a1.15,1.15,0,0,1-.09.44h-.19Zm.58-7.51v1.86h0a1.23,1.23,0,0,1-.12.5,3.18,3.18,0,0,1-1.16,1.24,7.82,7.82,0,0,1-2,.91,14.21,14.21,0,0,1-4.32.63A14.34,14.34,0,0,1,9,14.08a7.91,7.91,0,0,1-2-.91A3.45,3.45,0,0,1,5.86,12a1.35,1.35,0,0,1-.14-.59h0V9.57l.17.12a13.8,13.8,0,0,0,7.41,1.88,13.67,13.67,0,0,0,7.39-1.88ZM13.29,3c4.33,0,7.57,1.73,7.57,3.29,0,.78-.8,1.42-1.28,1.74a12,12,0,0,1-6.29,1.54A11.89,11.89,0,0,1,7,8c-.48-.31-1.28-.95-1.28-1.73C5.71,4.73,9,3,13.29,3Zm0,22C9,25,5.72,23.26,5.72,21.71V19.88h.06l.5.32.15.09c.23.13.47.25.73.37l.18.07A6.62,6.62,0,0,0,8,21l.31.1c.18.07.37.12.56.18l.35.09.58.13.38.08.62.09.39.06.7.06h1.44a12.924,12.924,0,0,0,1.35-.05h0c-.07.23-.12.47-.17.71s-.06.23-.08.35a7.88,7.88,0,0,0-.14,1.2,7.77,7.77,0,0,0,.06,1Zm8,4a5,5,0,0,1-4.76-3.47A4.9,4.9,0,0,1,16.29,24a5,5,0,0,1,.34-1.79c.06-.14.1-.28.17-.41l.13-.23a4.919,4.919,0,0,1,.26-.43A5,5,0,0,1,21.37,19h.39a5.006,5.006,0,0,1-.47,10Z" fill="#3fa9f5"/>
    <path id="Path_7" data-name="Path 7" d="M7,0a7,7,0,1,0,7,7A7,7,0,0,0,7,0ZM3.855,3.855a1.189,1.189,0,1,1,0,1.682A1.19,1.19,0,0,1,3.855,3.855Zm.652,6.424-.792-.791L9.487,3.715l.791.792Zm5.632-.14a1.189,1.189,0,1,1,0-1.682A1.19,1.19,0,0,1,10.139,10.139Z" transform="translate(14.306 17.003)" fill="#3fa9f5"/>
  </g>
</svg>
