<svg width="26" height="26" viewBox="0 0 26 26" fill="none" xmlns="http://www.w3.org/2000/svg">
<path d="M4.71875 0.0625L0.1875 20.8125H6.1875L7.65625 13.9375H11.9375C16.0312 13.9375 19.4297 11.4141 20.3438 7.125C21.3828 2.26953 17.8984 0.0625 14.9062 0.0625H4.71875ZM9.78125 4.28125H12.7188C14.1836 4.28125 15.1797 5.55078 14.75 7.125C14.3828 8.70312 12.8398 9.96875 11.3125 9.96875H8.5L9.78125 4.28125ZM22.5312 5.5C22.5273 6.125 22.4688 6.79688 22.3125 7.53125C21.9062 9.44141 21.0859 11.1133 19.9375 12.4375C19.4531 13.8633 18.0156 14.9688 16.5938 14.9688H16.5312C15.1523 15.5977 13.6133 15.9375 11.9375 15.9375H9.28125L8.15625 21.2188L7.8125 22.8125H6.15625L5.5 25.8125H11.4688L12.9375 18.9375H17.2188C21.3125 18.9375 24.7383 16.4141 25.6562 12.125C26.4258 8.51953 24.6914 6.36719 22.5312 5.5Z" fill="white"/>
</svg>
