<svg xmlns="http://www.w3.org/2000/svg" width="239.056" height="239.101" viewBox="0 0 239.056 239.101">
  <g id="instagram" transform="translate(-0.449 0)">
    <path id="Path_1" data-name="Path 1" d="M238.9,70.3c-.56-12.7-2.615-21.439-5.558-29.007A61.249,61.249,0,0,0,198.353,6.306c-7.612-2.943-16.3-5-29.005-5.558C156.549.141,152.486,0,120.023,0S83.5.141,70.745.7c-12.7.56-21.439,2.616-29.005,5.558A58.339,58.339,0,0,0,20.533,20.085,58.868,58.868,0,0,0,6.754,41.244c-2.943,7.614-5,16.3-5.558,29.005C.589,83.049.449,87.112.449,119.575s.14,36.526.7,49.278c.56,12.7,2.616,21.439,5.559,29.007a61.239,61.239,0,0,0,34.984,34.984c7.614,2.943,16.3,5,29.007,5.558,12.75.562,16.815.7,49.278.7s36.526-.139,49.278-.7c12.7-.56,21.439-2.615,29.005-5.558a61.158,61.158,0,0,0,34.986-34.984c2.941-7.614,5-16.3,5.558-29.007.56-12.752.7-16.815.7-49.278s-.047-36.526-.608-49.278Zm-21.532,97.621c-.515,11.677-2.476,17.983-4.111,22.187a39.663,39.663,0,0,1-22.7,22.7c-4.2,1.635-10.555,3.6-22.187,4.109-12.611.562-16.394.7-48.3.7s-35.732-.139-48.3-.7C60.1,216.4,53.79,214.44,49.586,212.806a36.792,36.792,0,0,1-13.732-8.922,37.174,37.174,0,0,1-8.922-13.732c-1.635-4.2-3.6-10.557-4.109-22.187-.562-12.611-.7-16.4-.7-48.3s.139-35.732.7-48.3c.513-11.677,2.474-17.983,4.109-22.187A36.342,36.342,0,0,1,35.9,35.452a37.117,37.117,0,0,1,13.732-8.92c4.2-1.635,10.557-3.6,22.187-4.111,12.611-.56,16.4-.7,48.3-.7,31.95,0,35.732.14,48.3.7,11.677.515,17.983,2.476,22.187,4.111a36.766,36.766,0,0,1,13.732,8.92,37.166,37.166,0,0,1,8.922,13.733c1.635,4.2,3.6,10.555,4.111,22.187.56,12.611.7,16.394.7,48.3s-.14,35.639-.7,48.251Zm0,0" transform="translate(0 0)" fill="#fff"/>
    <path id="Path_2" data-name="Path 2" d="M186.371,124.5a61.422,61.422,0,1,0,61.422,61.422A61.437,61.437,0,0,0,186.371,124.5Zm0,101.265a39.843,39.843,0,1,1,39.843-39.843A39.849,39.849,0,0,1,186.371,225.765Zm0,0" transform="translate(-66.348 -66.348)" fill="#fff"/>
    <path id="Path_3" data-name="Path 3" d="M391.13,102.941A14.34,14.34,0,1,1,376.789,88.6,14.341,14.341,0,0,1,391.13,102.941Zm0,0" transform="translate(-192.915 -47.217)" fill="#fff"/>
  </g>
</svg>
