<svg xmlns="http://www.w3.org/2000/svg" viewBox="0 0 352.24 351.66"><defs><style>.cls-1{fill:#fff;}</style></defs><g id="Layer_2" data-name="Layer 2"><g id="Layer_1-2" data-name="Layer 1"><path class="cls-1" d="M54,4C57.85.7,62.08.08,66.55.08q98.8,0,197.62,0c9.62,0,19.29-.43,28.85.4,34.36,3,58.85,29.76,59.17,64.17.1,11.36,0,22.71,0,34.07q0,116.79,0,233.58a27.92,27.92,0,0,1-1,8.47c-3.51,10.83-16.6,14.28-25.65,6.71-11.5-9.6-22.8-19.45-34.2-29.18-3.6-3.08-7.21-6.14-11-9.39-1,.79-2,1.48-2.93,2.26q-20.8,17.74-41.6,35.52c-7.74,6.59-15.54,6.58-23.23,0l-42.15-36c-.66-.56-1.36-1.08-2.28-1.81-3.82,3.25-7.62,6.45-11.4,9.68-11.1,9.49-22.16,19-33.32,28.47-8.52,7.2-20.22,5.7-25-3.52a24.35,24.35,0,0,1-2.25-10.78q-.21-74.12-.09-148.23c0-39.8-.11-79.61,0-119.41.1-25.16-11.25-43.57-32.43-56.39C60.67,6.91,57.39,5.62,54,4ZM224.14,223.81q23.25,0,46.51,0c10.3,0,17.4-6.57,17.39-16s-7-16-17.07-16q-46.88-.07-93.76.06a20.43,20.43,0,0,0-8.29,1.83,15.6,15.6,0,0,0-8.39,17.87,16,16,0,0,0,15.6,12.2C192.14,223.87,208.14,223.81,224.14,223.81Zm.35-95.85c-15.87,0-31.75-.24-47.62.17a21.41,21.41,0,0,0-11,3.79c-5.54,3.86-7.11,11.22-4.79,17.51,2.41,6.57,8.3,10.51,16.12,10.52q46.89.08,93.76,0a20.26,20.26,0,0,0,6.6-1.09c7.44-2.57,11.59-10,10.25-17.88a15.88,15.88,0,0,0-15.71-13C256.25,127.9,240.37,128,224.49,128Zm-.75-32v0c15.62,0,31.25.09,46.87-.07a22.29,22.29,0,0,0,8.68-1.72c6.61-3,9.94-10.3,8.49-17.48a15.55,15.55,0,0,0-14.92-12.46c-15-.18-30-.08-45-.09-16.88,0-33.75,0-50.62,0-5,0-9.41,1.32-12.81,5.07-4.54,5-5.59,10.88-3,17s7.51,9.63,14.31,9.68C191.74,96,207.74,95.92,223.74,95.92Z"/><path class="cls-1" d="M63.84,191.8H60q-21.18,0-42.37,0C6.44,191.76,0,185.36,0,174.1Q0,117.4,0,60.68A31.9,31.9,0,0,1,32,28.81c17.51,0,32.16,13.88,32.22,31.29.13,42.92,0,85.85-.07,128.77C64.13,189.72,64,190.56,63.84,191.8Z"/></g></g></svg>