<svg width="384" height="318" viewBox="0 0 384 318" fill="none" xmlns="http://www.w3.org/2000/svg">
<path d="M0 153.4C2.1 145.9 7.3 140.6 12.6 135.3C55.5 92.7 98.3 49.9 141.1 7.19999C148.4 -0.100012 158.4 -1.90001 167.6 2.09999C176.7 6.09999 182.3 15.1 181.8 25.1C181.5 31.6 178.7 37 174.1 41.6C144.5 71.1 115 100.7 85.4 130.2C84.4 131.2 83.3 131.9 82.2 132.8C82.3 133.2 82.5 133.5 82.6 133.9C84 133.9 85.4 133.9 86.7 133.9C176.8 133.9 266.8 133.9 356.9 133.9C365.7 133.9 373.2 136.4 378.5 143.7C384 151.3 384.9 159.6 380.9 168.1C376.9 176.6 369.9 181 360.6 181.8C359 181.9 357.4 181.9 355.7 181.9C266.3 181.9 176.8 181.9 87.4 181.9C85.9 181.9 84.5 181.9 83 181.9C82.7 182.3 82.4 182.6 82.1 183C83.4 184 84.9 184.9 86.1 186.1C116.3 215.9 146.4 245.7 176.5 275.6C190 289 185 310.8 167.2 316.2C157.5 319.1 149 316.7 141.8 309.5C124.4 292.1 107 274.8 89.6 257.4C62.5 230.4 35.4 203.3 8.3 176.3C4.3 172.3 1.9 167.6 0 162.4C0 159.4 0 156.4 0 153.4Z" fill="white"/>
</svg>
