<svg xmlns="http://www.w3.org/2000/svg" width="651.041" height="240.949" viewBox="0 0 651.041 240.949">
  <g id="logo-studioD" transform="translate(-0.147 0.1)">
    <path id="Path_33" data-name="Path 33" d="M252.99,1.022c-.5.809-2.974,1.3-9.053,1.748-10.644.861-18.68,2.165-34.725,5.583-10.488,2.27-31.1,8.14-38.481,11.036-.861.365-2.974,1.148-4.566,1.748-12,4.487-31.542,13.384-39.447,17.871C100.6,53.9,81.272,69.245,64.053,88.864,49.286,105.639,43,122,46.625,134.389c3.339,11.062,12.81,17.506,25.828,17.506,17.141-.078,31.124-11.714,31.124-25.985,0-3.913-.209-4.487-2.244-6.157a8.634,8.634,0,0,0-3.183-1.878c-1.748,0-6.366,2.322-9.418,4.774-4.931,3.835-8.531,5.792-12.444,6.809-4.487,1.148-6.861.287-8.688-3.1-.939-1.878-.939-2.452.157-5.87,2.165-6.574,10.7-18.81,18.732-26.689,7.3-7.227,24.889-19.828,40.308-28.933,4.931-2.9,24.889-12.94,30.681-15.419A325.142,325.142,0,0,1,194.029,36.5c2.165-.652,5.5-1.67,7.3-2.244,3.757-1.148,6.444-1.3,6.444-.444,0,.365-2.531,2.818-5.583,5.635-7.748,6.861-24.106,23.167-31.124,31.046-12.158,13.54-33.577,40.516-41.743,52.465-1.435,2.165-4.774,6.861-7.3,10.488-2.531,3.548-6,8.766-7.748,11.427-1.748,2.739-3.626,5.714-4.2,6.653s-2.531,4.044-4.331,6.861-3.757,5.922-4.331,6.861-2.531,4.044-4.331,6.94c-14.845,23.741-28.072,39.655-37.255,44.873-6.731,3.835-10.853,4.983-17.3,4.983-9.105,0-16.2-3.47-19.254-9.47-3.626-7.018-.157-14.766,10.566-23.741,7.827-6.522,9.47-9.705,7.383-14.192-1.1-2.452-5.5-4.7-9.105-4.7-8.975,0-24.028,12.079-29.376,23.506-.809,1.591-1.67,3.47-1.957,4.122-.939,1.878-.809,16.28.157,19.332,3.679,11.792,12.079,19.749,24.315,22.932,5.061,1.3,21.5,1.383,27.707,0A76.506,76.506,0,0,0,92.7,217.274c4.566-4.931,14.845-18.236,19.619-25.254,1.3-2.035,4.774-7.1,7.67-11.349,2.9-4.279,5.348-8.035,5.5-8.322.287-.73,9.627-15.053,11.505-17.741a11.809,11.809,0,0,0,1.383-2.322,41.838,41.838,0,0,1,3.261-5.061c1.8-2.687,3.261-4.931,3.261-5.061,0-.157,3.339-5.27,7.461-11.349,6.444-9.705,16.775-23.741,25.541-34.672,9.183-11.584,31.542-33.785,44.795-44.508,1.957-1.591,4.7-3.913,6.079-5.061a98.337,98.337,0,0,1,9.836-7.383c2.4-1.513,11.949-6,12.653-6a12.667,12.667,0,0,0,3.026-1.017c3.1-1.383,9.549-2.974,17.584-4.487,7.748-1.435,40.1-1.67,48.474-.287,2.818.444,7.383,1.1,10.123,1.383,2.818.365,7.018,1.017,9.418,1.435,2.4.5,6.94,1.383,10.123,1.957,3.183.652,7.1,1.435,8.688,1.878s4.2,1.1,5.792,1.383c6.157,1.226,28.881,8.035,32.194,9.757,1.017.5,3.626,1.591,5.792,2.452,11.349,4.566,31.046,15.627,36.6,20.48l3.183,2.818-.209,7.748c-.157,7.461-.078,7.879,1.878,10.775a20.546,20.546,0,0,0,4.983,4.983c2.687,1.8,3.679,2.035,8.9,2.035s6.287-.209,8.9-2.035c7.461-4.853,7.957-14.245,1.3-23.3A125.256,125.256,0,0,0,454.476,57.4c-2.165-1.8-14.323-10.644-15.993-11.584-.652-.444-3.626-2.165-6.522-3.913-4.7-2.9-7.461-4.409-17.219-9.47a288.415,288.415,0,0,0-32.35-13.671c-2.4-.861-5.218-1.8-6.157-2.165-.861-.365-3.626-1.226-6-1.878-2.4-.73-5.635-1.748-7.227-2.244-13.1-4.044-38.56-8.975-52.83-10.2-4.566-.444-6.444-.861-6.287-1.513.078-.652-5.27-.861-25.046-.861-21.576.026-25.28.183-25.854,1.122Z" transform="translate(0)" fill="#fff"/>
    <path id="Path_34" data-name="Path 34" d="M834.2,212.309c-9.418,2.9-15.627,5.87-18.967,8.9-2.244,2.035-2.087,2.687,1.018,5.27l2.687,2.244-2.4,7.514c-1.3,4.122-2.818,8.688-3.339,10.07-.5,1.383-2.452,7.383-4.331,13.384-1.957,5.922-4.853,15.053-6.522,20.271-1.67,5.14-3.992,12.314-5.061,15.914-1.148,3.757-2.687,7.018-3.548,7.748-3.679,3.1-12.445,9.262-13.253,9.262-.652,0-.939-1.148-.939-3.47,0-4.983-1.878-16.723-3.261-20.036-.652-1.591-2.687-5.922-4.566-9.549l-3.339-6.731,5.348-5.348c7.383-7.514,10.357-12.158,10.357-16.149,0-3.548-.809-4.487-5.87-6.731-10.123-4.644-24.759,2.974-29.533,15.184-.809,2.035-1.435,6.287-1.67,11.349l-.443,8.035-6.522,4.774c-3.548,2.687-7.67,5.714-9.053,6.809a56.524,56.524,0,0,1-4.7,3.47c-1.148.73-6.444,4.566-11.662,8.4-5.218,3.913-9.836,7.1-10.279,7.1-1.1,0-1.1-1.8,0-3.835a19.555,19.555,0,0,0,1.383-3.757c3.992-14.688,4.279-16.149,4.279-23.871,0-13.592-4.122-21.5-13.906-26.48-6.94-3.548-12.653-4.279-20.61-2.4-22.567,5.218-43.986,32.063-48.056,60.344-1.1,7.514-.365,19.671,1.435,24.237,3.548,8.975,8.114,14.245,14.245,16.488,4.983,1.748,14.479,1.67,20.48-.209,8.479-2.687,19.541-9.105,31.411-18.367,12.236-9.418,12.157-9.34,13.305-8.244a10.441,10.441,0,0,1,1.435,3.913c.574,3.757,4.774,12.445,7.3,15.132,6.366,6.861,11.662,9.183,20.923,9.183,6.522,0,9.992-.809,17.584-3.992,6.079-2.609,14.688-9.549,17.793-14.479,2.818-4.331,15.132-15.549,16.071-14.61.365.365-.652,4.279-2.4,9.053-2.087,5.87-2.687,7.748-3.261,9.757-.574,2.165-1.8,5.792-3.026,9.053-.574,1.513-.365,2.035,1.226,3.392,1.67,1.513,2.687,1.67,9.262,1.67,9.183,0,13.592-1.383,15.262-4.644.574-1.226,2.609-7.174,4.409-13.1,1.878-6,3.835-12,4.331-13.384s1.435-4.487,2.165-6.861c.652-2.4,1.67-5.5,2.165-6.861,1.8-4.931,5.427-16.645,5.427-17.506,0-1.591,5.635-7.592,8.975-9.549,10.566-6.235,14.766-.444,9.47,13.305-.5,1.383-2.452,7.383-4.331,13.384-1.878,5.922-3.835,12.158-4.331,13.749-5.218,16.567-3.757,25.7,4.774,30.029,3.392,1.748,6.157,1.8,10.2.209,3.679-1.383,12.888-7.3,19.384-12.366,2.531-2.035,4.931-3.47,5.218-3.339.287.209.574,2.4.574,4.774,0,8.114,4.487,12.158,13.305,12.158,7.461,0,11.427-1.878,25.254-12.079,6.522-4.774,9.183-6.235,9.183-4.774a55.1,55.1,0,0,1-1.878,5.635c-2.974,7.957-2.974,8.035-.209,9.757,2.165,1.383,3.339,1.435,10.775,1.3,9.992-.287,13.384-1.591,15.34-5.792,1.591-3.392,2.739-4.044,3.992-2.322,4.409,6.157,8.766,8.244,17.088,8.244,10.7,0,20.976-4.409,30.185-12.94,2.974-2.739,16.775-11.662,17.427-11.218.365.209.652,1.3.652,2.452,0,6.574,6.809,15.914,14.323,19.671,6,2.974,16.567,2.244,25.254-1.748a15.634,15.634,0,0,0,3.548-2.087c.652-1.148,2.244-.73,5.5,1.383,5.635,3.626,9.836,4.644,17.74,4.279a60.789,60.789,0,0,0,11.062-1.513c6.079-1.8,15.836-6.94,17.584-9.183.809-1.148,1.957-2.087,2.452-2.087.652,0,.939-1.1.939-3.339,0-1.8-.287-3.1-.652-2.9-.287.209-1.226-.078-1.957-.652-2.452-1.878-8.479-1.148-13.462,1.513-2.818,1.513-8.322,2.087-9.627,1.017-1.67-1.383-1.383-2.974,3.1-16.567,2.4-7.018,5.792-17.662,7.748-23.585,1.878-6,4.566-14.192,5.922-18.236,2.609-8.035,2.9-10.2,1.513-11.949-1.1-1.383-7.018-3.47-9.914-3.47-3.392,0-9.705,2.244-12.523,4.487-2.531,1.957-2.818,2.035-3.261.809a14.5,14.5,0,0,0-5.5-6.287c-1.957-1.226-3.548-1.435-9.914-1.435-7.1,0-7.957.157-12.366,2.322-5.87,2.9-13.54,9.183-18.523,15.34a104.865,104.865,0,0,0-12.6,21.784c-.809,2.165-1.957,5.218-2.531,6.809a42.1,42.1,0,0,0-1.748,5.87,31.57,31.57,0,0,1-1.513,4.853c-1.383,3.026-10.409,8.166-10.409,5.922a50.68,50.68,0,0,1,1.591-5.792,92.238,92.238,0,0,0,3.835-27.576c0-14.479-2.9-21.993-10.2-27.054-3.391-2.322-3.835-2.4-9.914-2.322-5.583,0-7.018.287-11.14,2.244-5.427,2.609-5.635,2.609-5.635,1.148,0-1.3,3.992-14.114,5.5-17.584a11.957,11.957,0,0,0,1.017-3.392,11.953,11.953,0,0,1,1.017-3.392c1.383-3.183,6.94-20.976,6.94-22.15a5.888,5.888,0,0,0-1.8-2.687c-1.383-1.435-2.452-1.8-5.218-1.8-6.574.078-19.176,4.331-26.4,8.975-4.331,2.739-4.853,3.992-2.452,5.87,2.9,2.322,2.609,5.714-1.383,17.01-.5,1.383-1.435,4.487-2.165,6.861-.652,2.4-1.67,5.5-2.165,6.861-.5,1.383-1.435,4.331-2.087,6.522-1.148,3.992-2.4,7.879-8.766,27.863-4.7,14.688-7.592,23.506-8.479,25.906-1.435,3.679-19.906,14.479-22.28,12.94-1.8-1.226-.939-7.1,2.531-16.775.5-1.383,2.452-7.461,4.331-13.384,1.878-6,3.835-11.949,4.409-13.253a11.953,11.953,0,0,0,1.017-3.392,11.953,11.953,0,0,1,1.017-3.392c.574-1.3,2.087-5.714,3.339-9.836l2.322-7.514-1.67-1.748c-1.513-1.591-2.087-1.748-9.47-1.748-7.174,0-12.366,1.017-14.532,2.9-.574.5-3.47,8.818-7.018,20.271-1.226,4.2-2.739,8.766-3.261,10.123-.5,1.383-1.957,5.922-3.261,10.123-1.226,4.2-2.739,8.688-3.339,9.992a11.3,11.3,0,0,0-1.018,3.757c0,1.878-2.974,5.218-6.287,6.861a33.277,33.277,0,0,0-3.835,2.165c-1.748,1.3-10.07,4.7-11.584,4.7-1.957,0-2.452-2.452-1.226-6,.574-1.67,2.087-6.444,3.392-10.644s2.739-8.766,3.261-10.123c1.383-3.679,5.14-15.627,6.444-20.4,2.818-10.07-.078-18.445-7.67-22.358-5.922-3.026-18.732-.5-26.924,5.27-4.931,3.548-5.061,2.974-1.67-7.514,1.383-4.122,3.992-12.366,5.87-18.315,1.957-6,3.913-12,4.409-13.384,1.957-5.348,3.261-9.836,3.261-11.01A4.834,4.834,0,0,0,847,212.387c-2.322-1.878-6.809-1.957-12.81-.078ZM685.566,268.557c2.818,1.67,3.835,5.583,3.183,11.792-1.383,13.018-13.1,36.473-22.8,45.447-2.818,2.609-9.262,5.922-11.505,5.922-9.47,0-11.218-15.627-3.835-34.359a79.059,79.059,0,0,1,4.409-8.322C664.433,273.175,678.052,264.122,685.566,268.557Zm302.19,7.435a9.43,9.43,0,0,1,2.818,4.853c.939,4.853-1.435,21.706-4.122,29.168-2.165,6.157-7.3,16.775-9.914,20.61-5.635,8.166-18.236,8.322-22.071.209-1.1-2.322-1.018-2.739.861-8.531,1.1-3.392,3.1-9.549,4.409-13.749s2.739-8.766,3.261-10.123,1.957-5.792,3.261-9.757c1.226-3.992,3.026-8.244,3.992-9.47a13.674,13.674,0,0,1,11.218-5.27C984.938,273.827,985.72,274.114,987.755,275.992Zm88.781.809a4.823,4.823,0,0,1,1.878,2.818,87.313,87.313,0,0,1-2.9,10.279c-1.591,4.931-4.853,15.053-7.3,22.645-2.4,7.514-4.853,14.845-5.427,16.149a12.33,12.33,0,0,0-1.017,3.626c0,2.687-6.079,5.922-11.062,5.922-3.679,0-7.383-2.687-9.262-6.809-2.452-5.427-1.513-17.662,2.244-28.646,4.409-12.81,13.906-24.393,21.993-26.689,4.122-1.252,8.766-.965,10.853.7ZM756.189,295.82c2.322,5.922,2.452,19.462.209,24.445-2.818,6.366-8.166,9.992-14.845,9.992-7.879,0-12.236-3.835-14.532-12.81-2.035-7.879-2.165-7.67,8.818-16.932,5.427-4.566,11.3-9.34,13.175-10.644l3.339-2.4,1.1,2.035C754.023,290.6,755.25,293.5,756.189,295.82Z" transform="translate(-463.256 -155.952)" fill="#fff"/>
  </g>
</svg>
