<svg id="logo-studioB" xmlns="http://www.w3.org/2000/svg" width="720.072" height="210.527" viewBox="0 0 720.072 210.527">
  <path id="Path_17" data-name="Path 17" d="M342.5,58.185c-6.97-4.253-16.954-6.911-26.583-6.911a55.94,55.94,0,1,0,56,55.939c0-.649-.3-1.477-.3-2.245V0H342.5V58.185ZM315.978,79.8a27.409,27.409,0,1,1-27.409,27.35A27.328,27.328,0,0,1,315.978,79.8ZM482.384,98.116v63.973h29.951V93.036c0-54.345-93.749-54.345-93.749,0v69.053H449.6v-63.5c-.119-24.81,32.844-24.81,32.785-.473ZM172.668,56.944V120.5c.059,24.4-32.9,24.4-32.785-.413l.295-63.147H108.87v68.7c0,54.285,93.748,54.285,93.748,0v-68.7h-29.95Zm87.723,21.325.059-28.413c-19.2-2.9-47.79,13.232-47.79,43.949v68.049h30.127L242.61,94.1A15.967,15.967,0,0,1,260.391,78.269ZM414.1,33.848a17.9,17.9,0,1,0-17.9,17.9A17.924,17.924,0,0,0,414.1,33.848Zm-33.318,23.1v104.91l29.419-.386-.3-104.524H380.779Z" fill="#fff"/>
  <path id="Path_18" data-name="Path 18" d="M0,48.5v162.03H54.583c43.97,0,68.668-56.1,31.072-85.652C113.514,99.45,97,48.5,57.832,48.5H0Zm36.034,91.382,21.679.06c7.5,0,16.659,7.975,16.659,21.088,0,12.4-9.156,20.675-16.9,20.675H36.034ZM35.8,106.622l-.445-30.066,22.538.177c5.789,0,12.819,6.32,12.878,14.176.118,7.266-3.6,15.713-12.938,15.713Zm526.216,57.3c20.935,6.15,41.842.924,57.419-14.354l-20.617-20.793a26.8,26.8,0,0,1-10.639,7,28.1,28.1,0,0,1-36.087-16.632l82.938-.354a58.794,58.794,0,0,0-49.274-66.973,55.814,55.814,0,0,0-11.629-.6,57.475,57.475,0,0,0-53.945,60.8c1.49,24.958,17.76,45.145,41.834,51.9Zm-9.628-69.762a28.782,28.782,0,0,1,9.806-9.761,30.185,30.185,0,0,1,41.528,9.878l-51.334-.117Z" fill="#fff"/>
  <path id="Path_19" data-name="Path 19" d="M646.487,63.028a28.876,28.876,0,0,0-6.793,20.734,27.192,27.192,0,0,0,18.312,27.409l9.879,3.586,11.27,3.325a11.67,11.67,0,0,1,9.332,12.877,11.2,11.2,0,0,1-11.1,8.8,12.349,12.349,0,0,1-12.818-9.037l-30.954-5.2a42.423,42.423,0,0,0,22.813,34.7c12.661,6.574,36.23,4.658,47.9-3.547,11.14-7.836,18.327-20.766,14.887-35.407a30.289,30.289,0,0,0-18.371-23.214c-3.249-1.713-9.983-3.485-14.414-5.08-10.869-3.9-18.076-5.375-19.966-10.869-1.6-4.607,3.662-9.1,8.625-9.156,6.733-.059,11.164,4.193,10.869,10.219l27.232,5.612a37.666,37.666,0,0,0-38.1-37.155,34.381,34.381,0,0,0-28.592,11.4Z" fill="#fff"/>
</svg>
