<svg xmlns="http://www.w3.org/2000/svg" width="84.505" height="95.55" viewBox="0 0 84.505 95.55">
  <g id="noun_swap_2283375" transform="translate(88.202 -2.225) rotate(90)">
    <path id="Path_18381" data-name="Path 18381" d="M59.5,56.4h-31V42.1a2.173,2.173,0,0,0-3.7-1.7L2.9,62.3a2.478,2.478,0,0,0,0,3.4L24.8,87.6a2.193,2.193,0,0,0,3.7-1.7V71.7h31A1.685,1.685,0,0,0,61.2,70V58.2a1.774,1.774,0,0,0-1.7-1.8Z" fill="#3fa9f5"/>
    <path id="Path_18382" data-name="Path 18382" d="M97.1,34.3l-21.9-22A2.193,2.193,0,0,0,71.5,14V28.4h-31a1.685,1.685,0,0,0-1.7,1.7V41.9a1.685,1.685,0,0,0,1.7,1.7h31V57.9a2.173,2.173,0,0,0,3.7,1.7L97.1,37.7A2.478,2.478,0,0,0,97.1,34.3Z" transform="translate(0 -8)" fill="#3fa9f5"/>
  </g>
</svg>
