<svg width="480" height="481" viewBox="0 0 480 481" fill="none" xmlns="http://www.w3.org/2000/svg">
<path d="M162.086 294.162L5.96409 450.17C4.17796 451.698 2.72729 453.579 1.70314 455.694C0.678995 457.81 0.103478 460.114 0.0127146 462.462C-0.0780492 464.81 0.317902 467.151 1.17571 469.339C2.03352 471.527 3.33467 473.514 4.99749 475.176C6.66031 476.838 8.64891 478.138 10.8385 478.995C13.028 479.852 15.3712 480.248 17.7211 480.157C20.0709 480.066 22.3766 479.491 24.4935 478.468C26.6103 477.445 28.4926 475.995 30.0222 474.21L186.144 318.203L162.086 294.162Z" fill="white"/>
<path d="M473.645 117.688L362.739 6.86289C355.673 1.80176 347.037 -0.587001 338.372 0.122505C329.707 0.832012 321.576 4.59367 315.428 10.7368C309.281 16.8799 305.516 25.0051 304.806 33.6638C304.096 42.3225 306.487 50.9517 311.551 58.0129C311.953 58.5235 312.171 59.1539 312.171 59.8031C312.171 60.4524 311.953 61.0828 311.551 61.5934L250.297 122.803C243.329 130.187 234.028 134.947 223.959 136.283C213.891 137.618 203.669 135.447 195.015 130.134C179.982 119.724 161.765 114.925 143.55 116.577C125.335 118.228 108.281 126.226 95.3696 139.171L75.5771 159.29C72.5018 162.469 70.7827 166.718 70.7827 171.14C70.7827 175.561 72.5018 179.81 75.5771 182.989L297.39 404.639C300.586 407.815 304.911 409.597 309.419 409.597C313.926 409.597 318.251 407.815 321.448 404.639L341.581 384.52C354.397 371.597 362.284 354.6 363.873 336.476C365.462 318.352 360.655 300.243 350.283 285.289C344.967 276.641 342.794 266.427 344.131 256.366C345.467 246.305 350.231 237.01 357.62 230.047L418.192 169.52C418.703 169.119 419.334 168.901 419.984 168.901C420.633 168.901 421.264 169.119 421.775 169.52C428.842 174.581 437.477 176.97 446.142 176.26C454.807 175.551 462.938 171.789 469.086 165.646C475.234 159.503 478.998 151.378 479.708 142.719C480.418 134.06 478.028 125.431 472.963 118.37L473.645 117.688Z" fill="white"/>
</svg>
