<svg xmlns="http://www.w3.org/2000/svg" width="250.341" height="218.742" viewBox="0 0 250.341 218.742">
  <g id="noun_chat_1214541" transform="translate(75 59.9)">
    <path id="Path_1" data-name="Path 1" d="M234.525,9.1H22.477A19.368,19.368,0,0,0,3.2,28.377V167.868a19.368,19.368,0,0,0,19.277,19.277H59.425l21.151,33.467a15.205,15.205,0,0,0,12.584,7.229,14.6,14.6,0,0,0,12.584-7.229l21.151-33.735H234.257A19.368,19.368,0,0,0,253.535,167.6V28.645A19.033,19.033,0,0,0,234.525,9.1Z" transform="translate(-78.2 -69)" fill="#fff"/>
    <path id="Path_2" data-name="Path 2" d="M91.854,37.41l-29.253-.6L53,9.179a3.179,3.179,0,0,0-6.011,0L37.378,36.814l-29.255.6a3.183,3.183,0,0,0-1.857,5.719L29.584,60.806l-8.473,28c-.989,3.283,2.757,5.018,4.866,3.536L49.991,75.631,74.008,92.344c2.87,1.987,5.882-1.2,4.781-3.85L70.4,60.806,93.712,43.131A3.184,3.184,0,0,0,91.854,37.41Z" transform="translate(0 -24.935)"/>
  </g>
</svg>
