<svg width="721" height="459" viewBox="0 0 721 459" fill="none" xmlns="http://www.w3.org/2000/svg">
<path fill-rule="evenodd" clip-rule="evenodd" d="M0 384.812L136.2 306.532C136.2 306.532 167.5 285.122 255.18 308.612C342.85 332.112 377.29 355.582 475.39 355.582C475.39 355.582 437.82 444.292 369.99 455.782C302.15 467.262 216.03 445.132 156.18 410.582C96.33 376.012 0 384.812 0 384.812ZM375.54 293.562C404.31 307.932 428.86 321.252 463.06 328.192H535.75C534.63 116.442 495.21 2.69244 455.65 0.0724427C522.24 2.69244 588.6 116.442 590.46 328.192H718.45C740.18 116.212 597.88 2.06244 455.34 0.042444L455.23 0.0324495C455.05 0.0224495 454.89 0.0124452 454.71 0.0124452C418.11 -0.797555 381.64 93.6324 375.54 293.562ZM189.64 271.022C208.55 269.202 237.11 270.422 277.86 281.342C293.08 285.412 307.23 289.532 320.82 293.562C331.07 93.6324 392.46 -0.797555 454.08 0.0124452C327.69 -1.19755 201.51 85.8024 189.64 271.022V271.022Z" fill="white"/>
</svg>
