<svg width="40" height="50" viewBox="0 0 40 50" fill="none" xmlns="http://www.w3.org/2000/svg">
<path d="M38.2104 0.339977C37.9441 0.222178 37.6494 0.184044 37.3619 0.230185C37.0744 0.276327 36.8064 0.404767 36.5904 0.599977L33.2004 3.67998L29.8104 0.599977C29.5342 0.348412 29.174 0.208986 28.8004 0.208986C28.4268 0.208986 28.0666 0.348412 27.7904 0.599977L24.4004 3.67998L21.0104 0.599977C20.7358 0.349111 20.3773 0.210011 20.0054 0.210011C19.6335 0.210011 19.275 0.349111 19.0004 0.599977L15.6104 3.67998L12.2204 0.599977C11.9442 0.348412 11.584 0.208986 11.2104 0.208986C10.8368 0.208986 10.4766 0.348412 10.2004 0.599977L6.81039 3.68998L3.41039 0.599977C3.1954 0.404175 2.92812 0.275088 2.6411 0.228424C2.35407 0.18176 2.05967 0.219532 1.79372 0.337143C1.52777 0.454754 1.30174 0.647133 1.14314 0.890867C0.984536 1.1346 0.900199 1.41918 0.900391 1.70998V48.29C0.900199 48.5808 0.984536 48.8654 1.14314 49.1091C1.30174 49.3528 1.52777 49.5452 1.79372 49.6628C2.05967 49.7804 2.35407 49.8182 2.6411 49.7715C2.92812 49.7249 3.1954 49.5958 3.41039 49.4L6.81039 46.31L10.2004 49.4C10.4766 49.6515 10.8368 49.791 11.2104 49.791C11.584 49.791 11.9442 49.6515 12.2204 49.4L15.6104 46.32L19.0004 49.4C19.275 49.6508 19.6335 49.7899 20.0054 49.7899C20.3773 49.7899 20.7358 49.6508 21.0104 49.4L24.4004 46.32L27.7904 49.4C28.0666 49.6515 28.4268 49.791 28.8004 49.791C29.174 49.791 29.5342 49.6515 29.8104 49.4L33.2004 46.32L36.5904 49.4C36.8678 49.6495 37.2273 49.7883 37.6004 49.79C37.9982 49.79 38.3797 49.6319 38.6611 49.3506C38.9424 49.0693 39.1004 48.6878 39.1004 48.29V1.70998C39.1003 1.42003 39.0162 1.13632 38.8583 0.893182C38.7003 0.65004 38.4753 0.457887 38.2104 0.339977V0.339977ZM21.5904 39.19H21.5004V40.28C21.5004 40.6778 21.3424 41.0593 21.0611 41.3406C20.7797 41.6219 20.3982 41.78 20.0004 41.78C19.6026 41.78 19.221 41.6219 18.9397 41.3406C18.6584 41.0593 18.5004 40.6778 18.5004 40.28V39.19H17.2204C16.8226 39.19 16.441 39.0319 16.1597 38.7506C15.8784 38.4693 15.7204 38.0878 15.7204 37.69C15.7204 37.2922 15.8784 36.9106 16.1597 36.6293C16.441 36.348 16.8226 36.19 17.2204 36.19H21.5904C21.8317 36.19 22.0632 36.0941 22.2339 35.9234C22.4045 35.7528 22.5004 35.5213 22.5004 35.28C22.5004 35.0386 22.4045 34.8072 22.2339 34.6365C22.0632 34.4659 21.8317 34.37 21.5904 34.37H18.4004C17.3634 34.37 16.3689 33.958 15.6356 33.2248C14.9023 32.4915 14.4904 31.497 14.4904 30.46C14.4904 29.423 14.9023 28.4285 15.6356 27.6952C16.3689 26.9619 17.3634 26.55 18.4004 26.55H18.5004V25.47C18.5004 25.0722 18.6584 24.6906 18.9397 24.4093C19.221 24.128 19.6026 23.97 20.0004 23.97C20.3982 23.97 20.7797 24.128 21.0611 24.4093C21.3424 24.6906 21.5004 25.0722 21.5004 25.47V26.55H22.7604C23.1582 26.55 23.5397 26.708 23.8211 26.9893C24.1024 27.2706 24.2604 27.6522 24.2604 28.05C24.2604 28.4478 24.1024 28.8293 23.8211 29.1106C23.5397 29.3919 23.1582 29.55 22.7604 29.55H18.4004C18.159 29.55 17.9276 29.6459 17.7569 29.8165C17.5863 29.9872 17.4904 30.2186 17.4904 30.46C17.4904 30.7013 17.5863 30.9328 17.7569 31.1034C17.9276 31.2741 18.159 31.37 18.4004 31.37H21.5904C22.6274 31.37 23.6219 31.7819 24.3552 32.5152C25.0884 33.2485 25.5004 34.243 25.5004 35.28C25.5004 36.317 25.0884 37.3115 24.3552 38.0448C23.6219 38.778 22.6274 39.19 21.5904 39.19V39.19ZM28.7904 20.28H11.2104C10.8126 20.28 10.431 20.1219 10.1497 19.8406C9.86843 19.5593 9.71039 19.1778 9.71039 18.78C9.71039 18.3822 9.86843 18.0006 10.1497 17.7193C10.431 17.438 10.8126 17.28 11.2104 17.28H28.7904C29.1882 17.28 29.5697 17.438 29.851 17.7193C30.1324 18.0006 30.2904 18.3822 30.2904 18.78C30.2904 19.1778 30.1324 19.5593 29.851 19.8406C29.5697 20.1219 29.1882 20.28 28.7904 20.28V20.28ZM28.7904 13.6H11.2104C10.8126 13.6 10.431 13.4419 10.1497 13.1606C9.86843 12.8793 9.71039 12.4978 9.71039 12.1C9.71039 11.7022 9.86843 11.3206 10.1497 11.0393C10.431 10.758 10.8126 10.6 11.2104 10.6H28.7904C29.1882 10.6 29.5697 10.758 29.851 11.0393C30.1324 11.3206 30.2904 11.7022 30.2904 12.1C30.2904 12.4978 30.1324 12.8793 29.851 13.1606C29.5697 13.4419 29.1882 13.6 28.7904 13.6V13.6Z" fill="white"/>
</svg>
