<svg width="100" height="100" viewBox="0 0 100 100" fill="none" xmlns="http://www.w3.org/2000/svg">
<path d="M100 50C100 40.111 97.0676 30.444 91.5735 22.2215C86.0794 13.9991 78.2705 7.59043 69.1342 3.80605C59.9979 0.0216641 49.9446 -0.968503 40.2455 0.960759C30.5465 2.89002 21.6373 7.65206 14.6447 14.6447C7.65206 21.6373 2.89002 30.5465 0.960759 40.2455C-0.968503 49.9446 0.0216641 59.9979 3.80605 69.1342C7.59043 78.2705 13.9991 86.0794 22.2215 91.5735C30.444 97.0676 40.111 100 50 100C63.2608 100 75.9785 94.7322 85.3554 85.3554C94.7322 75.9785 100 63.2608 100 50ZM42.69 38.88C42.5429 39.5059 42.4361 40.1405 42.37 40.78C42.37 41.17 42.19 41.28 41.81 41.27C40.59 41.27 39.37 41.27 38.15 41.27H34.41C34.19 41.27 34.01 41.27 34.03 40.95C34.0486 38.4069 34.5792 35.8936 35.59 33.56C36.948 30.6425 39.2925 28.298 42.21 26.94C44.5481 25.809 47.0898 25.1598 49.6838 25.031C52.2779 24.9021 54.8714 25.2963 57.31 26.19C59.0514 26.7509 60.6477 27.6886 61.9855 28.9365C63.3233 30.1844 64.3696 31.7118 65.05 33.41C65.8696 35.577 66.161 37.908 65.9 40.21C65.6444 43.0408 64.3388 45.6734 62.24 47.59C60.64 49.14 58.92 50.59 57.24 52.04C55.9251 53.0227 54.8907 54.3329 54.24 55.84C53.8368 57.0198 53.6143 58.2537 53.58 59.5C53.58 59.95 53.51 60.39 53.49 60.83C53.49 61.06 53.41 61.17 53.16 61.17H46.53C46.32 61.17 46.21 61.11 46.22 60.88C46.1789 58.7146 46.4005 56.5521 46.88 54.44C47.5303 52.2399 48.7927 50.27 50.52 48.76C52 47.39 53.47 46.01 54.88 44.56C56.0679 43.3604 56.875 41.8367 57.2 40.18C57.75 37.37 56.69 35.29 54 34.31C52.7149 33.8196 51.344 33.5934 49.9695 33.645C48.5949 33.6965 47.2448 34.0247 46 34.61C45.1561 35.0179 44.418 35.6156 43.8438 36.3565C43.2695 37.0973 42.8746 37.961 42.69 38.88V38.88ZM45.51 70.36C45.579 69.2268 46.0824 68.1638 46.9153 67.3924C47.7483 66.6209 48.8468 66.2004 49.9819 66.2185C51.1171 66.2365 52.2016 66.6917 53.0097 67.4892C53.8178 68.2867 54.2871 69.3652 54.32 70.5C54.3373 71.0956 54.2337 71.6884 54.0156 72.2428C53.7974 72.7973 53.4691 73.3017 53.0506 73.7257C52.6321 74.1498 52.132 74.4846 51.5805 74.7101C51.029 74.9355 50.4375 75.0468 49.8418 75.0374C49.2461 75.0279 48.6585 74.8978 48.1144 74.655C47.5703 74.4121 47.0811 74.0616 46.6763 73.6245C46.2715 73.1873 45.9594 72.6727 45.759 72.1116C45.5585 71.5506 45.4738 70.9547 45.51 70.36Z" fill="white"/>
</svg>
