<svg width="28" height="20" viewBox="0 0 28 20" fill="none" xmlns="http://www.w3.org/2000/svg">
<path d="M2.00012 11.6301H21.1701C21.3201 11.6301 21.4601 11.7201 21.5201 11.8601C21.5801 12.0001 21.5501 12.1601 21.4401 12.2701L16.8501 16.8601C16.5401 17.1701 16.3701 17.5701 16.3701 18.0101C16.3701 18.4501 16.5401 18.8501 16.8501 19.1601C17.4601 19.7701 18.5301 19.7701 19.1501 19.1601L27.1501 11.1601L27.4901 11.3301L27.2101 11.0801L27.2801 10.9901C27.3801 10.8601 27.4501 10.7501 27.4901 10.6401V10.6301C27.5401 10.5101 27.5701 10.3801 27.5901 10.2101L27.6001 10.1101C27.6101 9.95008 27.6001 9.81008 27.5801 9.69008C27.5501 9.56008 27.5101 9.44008 27.4401 9.29008L27.3901 9.20008C27.3101 9.05008 27.2201 8.94008 27.1301 8.85008L19.1301 0.850078C18.5201 0.240078 17.4501 0.240078 16.8301 0.850078C16.5201 1.16008 16.3501 1.56008 16.3501 2.00008C16.3501 2.44008 16.5201 2.84008 16.8301 3.15008L21.4201 7.74008C21.5301 7.85008 21.5601 8.01008 21.5001 8.15008C21.4401 8.29008 21.3101 8.38008 21.1501 8.38008H2.00012C1.10012 8.38008 0.370117 9.11008 0.370117 10.0101C0.370117 10.9101 1.11012 11.6301 2.00012 11.6301Z" fill="white"/>
</svg>
