<svg width="24" height="24" viewBox="0 0 24 24" fill="none" xmlns="http://www.w3.org/2000/svg">
<path d="M7 15.9998H21C21.2368 16.0036 21.4673 15.9233 21.6504 15.7732C21.8335 15.623 21.9574 15.4127 22 15.1798L24 4.17976C24.0271 4.03604 24.0223 3.88812 23.986 3.74644C23.9498 3.60476 23.8828 3.47277 23.79 3.35976C23.6938 3.24424 23.5729 3.15188 23.4361 3.08956C23.2993 3.02723 23.1503 2.99654 23 2.99976H8C7.73478 2.99976 7.48043 3.10512 7.29289 3.29265C7.10536 3.48019 7 3.73454 7 3.99976C7 4.26498 7.10536 4.51933 7.29289 4.70687C7.48043 4.8944 7.73478 4.99976 8 4.99976H21.8L20.16 13.9998H7.81L5 0.789759C4.95121 0.562329 4.82466 0.359021 4.64214 0.21483C4.45962 0.0706388 4.23255 -0.00541504 4 -0.000240642H1C0.734784 -0.000240642 0.48043 0.105116 0.292893 0.292653C0.105357 0.480189 0 0.734543 0 0.999759C0 1.26498 0.105357 1.51933 0.292893 1.70687C0.48043 1.8944 0.734784 1.99976 1 1.99976H3.19L6 15.2098C6.04879 15.4372 6.17534 15.6405 6.35786 15.7847C6.54038 15.9289 6.76745 16.0049 7 15.9998Z" fill="white"/>
<path d="M8.5 17C7.80777 17 7.13108 17.2053 6.55551 17.5899C5.97993 17.9744 5.53133 18.5211 5.26642 19.1606C5.00152 19.8001 4.9322 20.5039 5.06725 21.1828C5.2023 21.8617 5.53564 22.4854 6.02513 22.9749C6.51461 23.4644 7.13825 23.7977 7.81719 23.9327C8.49612 24.0678 9.19985 23.9985 9.83939 23.7336C10.4789 23.4687 11.0256 23.0201 11.4101 22.4445C11.7947 21.8689 12 21.1922 12 20.5C12 19.5717 11.6313 18.6815 10.9749 18.0251C10.3185 17.3687 9.42826 17 8.5 17ZM8.5 22C8.20333 22 7.91332 21.912 7.66665 21.7472C7.41997 21.5824 7.22771 21.3481 7.11418 21.074C7.00065 20.7999 6.97095 20.4983 7.02882 20.2074C7.0867 19.9164 7.22956 19.6491 7.43934 19.4393C7.64912 19.2296 7.91639 19.0867 8.20737 19.0288C8.49834 18.9709 8.79994 19.0007 9.07403 19.1142C9.34812 19.2277 9.58238 19.42 9.74721 19.6666C9.91203 19.9133 10 20.2033 10 20.5C10 20.8978 9.84197 21.2794 9.56066 21.5607C9.27936 21.842 8.89783 22 8.5 22Z" fill="white"/>
<path d="M18.5 17C17.8078 17 17.1311 17.2053 16.5555 17.5899C15.9799 17.9744 15.5313 18.5211 15.2664 19.1606C15.0015 19.8001 14.9322 20.5039 15.0673 21.1828C15.2023 21.8617 15.5356 22.4854 16.0251 22.9749C16.5146 23.4644 17.1383 23.7977 17.8172 23.9327C18.4961 24.0678 19.1999 23.9985 19.8394 23.7336C20.4789 23.4687 21.0256 23.0201 21.4101 22.4445C21.7947 21.8689 22 21.1922 22 20.5C22 19.5717 21.6313 18.6815 20.9749 18.0251C20.3185 17.3687 19.4283 17 18.5 17V17ZM18.5 22C18.2033 22 17.9133 21.912 17.6666 21.7472C17.42 21.5824 17.2277 21.3481 17.1142 21.074C17.0007 20.7999 16.9709 20.4983 17.0288 20.2074C17.0867 19.9164 17.2296 19.6491 17.4393 19.4393C17.6491 19.2296 17.9164 19.0867 18.2074 19.0288C18.4983 18.9709 18.7999 19.0007 19.074 19.1142C19.3481 19.2277 19.5824 19.42 19.7472 19.6666C19.912 19.9133 20 20.2033 20 20.5C20 20.8978 19.842 21.2794 19.5607 21.5607C19.2794 21.842 18.8978 22 18.5 22Z" fill="white"/>
</svg>
