<svg xmlns="http://www.w3.org/2000/svg" width="166.199" height="93.487" viewBox="0 0 166.199 93.487">
  <g id="soundcloud" transform="translate(0 -5)">
    <path id="Path_4" data-name="Path 4" d="M69.131,46.55a26.413,26.413,0,0,0-5.415.568A46.824,46.824,0,0,0,17.194,5,5.2,5.2,0,0,0,12,10.194v83.1a5.2,5.2,0,0,0,5.194,5.194H69.131a25.969,25.969,0,0,0,0-51.937Z" transform="translate(71.1)" fill="#fff"/>
    <path id="Path_5" data-name="Path 5" d="M9,11.694V84.406a5.194,5.194,0,1,0,10.387,0V11.694A5.194,5.194,0,1,0,9,11.694Z" transform="translate(53.325 8.887)" fill="#fff"/>
    <path id="Path_6" data-name="Path 6" d="M6,14.694V66.631a5.194,5.194,0,1,0,10.387,0V14.694A5.194,5.194,0,1,0,6,14.694Z" transform="translate(35.55 26.662)" fill="#fff"/>
    <path id="Path_7" data-name="Path 7" d="M3,66.631a5.194,5.194,0,1,0,10.387,0V14.694A5.194,5.194,0,1,0,3,14.694Z" transform="translate(17.775 26.662)" fill="#fff"/>
    <path id="Path_8" data-name="Path 8" d="M5.194,54.05a5.2,5.2,0,0,0,5.194-5.194V17.694A5.194,5.194,0,0,0,0,17.694V48.856A5.2,5.2,0,0,0,5.194,54.05Z" transform="translate(0 44.437)" fill="#fff"/>
  </g>
</svg>
