<svg width="20" height="22" viewBox="0 0 20 22" fill="none" xmlns="http://www.w3.org/2000/svg">
<path d="M19.5901 9.81006L14.8201 13.3101L17.0001 19.6801C17.0685 19.8822 17.0705 20.1009 17.0057 20.3042C16.9409 20.5075 16.8128 20.6848 16.6401 20.8101C16.4688 20.9352 16.2622 21.0027 16.0501 21.0027C15.838 21.0027 15.6314 20.9352 15.4601 20.8101L10.0501 16.8101L4.64009 20.8101C4.45482 20.9448 4.22889 21.0119 4.00009 21.0001C3.78827 21.0008 3.58167 20.9343 3.41009 20.8101C3.23738 20.6848 3.10927 20.5075 3.0445 20.3042C2.97973 20.1009 2.98169 19.8822 3.05009 19.6801L5.18009 13.3101L0.410092 9.81006C0.239424 9.68538 0.11265 9.50982 0.0479715 9.3086C-0.0167072 9.10738 -0.0159649 8.89083 0.0500919 8.69006C0.115464 8.48957 0.242542 8.31488 0.413163 8.19095C0.583785 8.06703 0.789215 8.00021 1.00009 8.00006H7.00009L9.10009 1.68006C9.16585 1.47999 9.2931 1.30579 9.46368 1.18229C9.63427 1.0588 9.83949 0.99231 10.0501 0.99231C10.2607 0.99231 10.4659 1.0588 10.6365 1.18229C10.8071 1.30579 10.9343 1.47999 11.0001 1.68006L13.0501 8.00006H19.0001C19.211 8.00021 19.4164 8.06703 19.587 8.19095C19.7576 8.31488 19.8847 8.48957 19.9501 8.69006C20.0161 8.89083 20.0169 9.10738 19.9522 9.3086C19.8875 9.50982 19.7608 9.68538 19.5901 9.81006V9.81006Z" fill="#FFC107"/>
</svg>
