<svg xmlns="http://www.w3.org/2000/svg" width="449.139" height="511.21" viewBox="0 0 449.139 511.21">
  <g id="tik-tok" transform="translate(-31.423 -0.39)">
    <path id="Path_9" data-name="Path 9" d="M480.32,128.39a128.8,128.8,0,0,1-77.83-26.01,129.1,129.1,0,0,1-48.97-77.83A129.782,129.782,0,0,1,351.04.39H267.57V228.47l-.1,124.93a75.669,75.669,0,1,1-51.9-71.69V196.96a164.251,164.251,0,0,0-24.07-1.78A160.056,160.056,0,0,0,71.23,248.97a156.854,156.854,0,0,0,7.08,216.29,162.837,162.837,0,0,0,15.08,13.17A160.071,160.071,0,0,0,191.5,511.6a164.252,164.252,0,0,0,24.07-1.77,159.527,159.527,0,0,0,89.12-44.57,156.271,156.271,0,0,0,46.88-111.21l-.43-186.56a210.864,210.864,0,0,0,46.88,27.34,211,211,0,0,0,82.54,16.64v-83.1c.02.02-.22.02-.24.02Z" fill="#fff"/>
  </g>
</svg>
