<svg width="295" height="208" viewBox="0 0 295 208" fill="none" xmlns="http://www.w3.org/2000/svg">
<path fill-rule="evenodd" clip-rule="evenodd" d="M194.698 103.999L118.217 59.8406V148.157L194.698 103.999ZM279.165 16.6476C283.733 21.2152 287.02 26.9028 288.698 33.1406V33.1388C294.85 56.0985 294.85 103.997 294.85 103.997C294.85 103.997 294.85 151.898 288.698 174.855C287.02 181.093 283.733 186.781 279.166 191.349C274.598 195.916 268.91 199.203 262.672 200.881C239.713 207.035 147.656 207.035 147.656 207.035C147.656 207.035 55.5971 207.035 32.6392 200.881C26.4013 199.203 20.7138 195.916 16.1462 191.348C11.5786 186.781 8.29125 181.093 6.61345 174.855C0.461426 151.899 0.461426 103.999 0.461426 103.999C0.461426 103.999 0.461426 56.1003 6.61345 33.1406C8.29142 26.9029 11.5788 21.2154 16.1464 16.6478C20.7139 12.0803 26.4014 8.79288 32.6392 7.11492C55.5971 0.962891 147.656 0.962891 147.656 0.962891C147.656 0.962891 239.713 0.962891 262.672 7.11492C268.91 8.79272 274.598 12.08 279.165 16.6476Z" fill="white"/>
</svg>
