<svg width="366" height="192" viewBox="0 0 366 192" fill="none" xmlns="http://www.w3.org/2000/svg">
<path d="M112.04 99.92H86.84L89.71 56.14L73.35 99.92H49.95L87.07 0.949997H111.96L109.09 45.34L125.76 0.949997H149.15L112.04 99.92Z" fill="white"/>
<path d="M115.07 99.92L152.19 0.949997H175.58L138.47 99.92H115.07Z" fill="white"/>
<path d="M47.2601 65.81C14.5701 104.2 -16.2699 155.28 10.9701 178.8C37.3601 201.59 70.3501 188.1 92.8501 179.1C115.34 170.1 363.97 62.14 363.97 62.14C366.37 60.94 365.92 59.44 362.92 60.19C361.71 60.49 92.2501 133.52 92.2501 133.52C58.0501 143.11 19.0701 122.19 47.2601 65.81Z" fill="white"/>
<path d="M281.42 17.45L287.71 0.960007H240.83H240.62H216.33L191.82 30.65L203.13 0.960007H179.44L142.62 99.93H166.01L181.73 58.54L182.81 99.93L254.59 99.77L261.42 80.73H234.13L243.1 56.74H265.59L272.51 38.3H250.02L257.73 17.46H281.42V17.45ZM206.02 93.33L204.52 41.75L239.89 2.92L206.02 93.33Z" fill="white"/>
</svg>
